<svg xmlns="http://www.w3.org/2000/svg" width="71mm" height="36mm" viewBox="0 0 71 36"><path d="M30.375 14.625h18V32.25h-18z" style="fill:none;stroke-width:.264583"/><path d="M28.875 11.25h12.75v13.125h-12.75z" style="fill:none;stroke:#000;stroke-width:.965;stroke-dasharray:none;stroke-opacity:1"/><path fill="none" d="M33 11.625c-.375 13.125 0 12.75 0 12.75m4.583-13.356c-.375 13.125 0 12.75 0 12.75" style="fill:#000;fill-opacity:0;stroke:#000;stroke-width:.964999"/><path fill="none" d="M28.5 15.375c13.125-.375 13.5 0 13.5 0m-13.289 4.208c13.125-.375 13.5 0 13.5 0" style="fill:#000;fill-opacity:0;stroke:#000;stroke-width:.964999"/><path d="M30.091 14.358h18v17.625h-18z" style="fill:none;stroke-width:.264583"/><path fill="none" d="m28.591 10.983-3-2.625v-.375m19.208 18.944-3-2.625v-.375" style="fill:#000;fill-opacity:0;stroke:#000;stroke-width:.964999"/><path fill="none" d="m41.76 10.672 3.458-3.198v-.457M24.925 27.292l3.457-3.198v-.457" style="fill:#000;fill-opacity:0;stroke:#000;stroke-width:.783033;stroke-dasharray:none"/></svg>