<svg xmlns="http://www.w3.org/2000/svg" width="71mm" height="36mm" viewBox="0 0 71 36"><path d="M31.875 20.25h18v17.625h-18z" style="fill:none;stroke-width:.264583"/><ellipse cx="34.875" cy="18.75" fill="none" rx="6.061" ry="6.248" style="fill:#000;fill-opacity:0;stroke:#000;stroke-width:.843454"/><path fill="none" d="M32.776 12.363c-.367 12.76 0 12.395 0 12.395" style="fill:#000;fill-opacity:0;stroke:#000;stroke-width:.940626"/><path fill="none" d="M36.99 13.293c-.394 11.584 0 11.253 0 11.253" style="fill:#000;fill-opacity:0;stroke:#000;stroke-width:.930304"/><path fill="none" d="M29.445 16.133c10.203-.41 10.494 0 10.494 0" style="fill:#000;fill-opacity:0;stroke:#000;stroke-width:.88869"/><path fill="none" d="M29.27 20.339c10.933-.4 11.245 0 11.245 0" style="fill:#000;fill-opacity:0;stroke:#000;stroke-width:.909084"/><path d="M19.579 16.179h18v17.625h-18z" style="fill:none;stroke-width:.264583"/><ellipse cx="34.579" cy="18.616" fill="none" rx="6.061" ry="6.248" style="fill:#000;fill-opacity:0;stroke:#000;stroke-width:.843454"/><path fill="none" d="M39.079 13.929c3.75-3.75 3.375-3.75 3.375-3.75M26.062 27.124c3.75-3.75 3.375-3.75 3.375-3.75m.267-9.445c-3-3-3.75-3-3.75-3" style="fill:#000;fill-opacity:0;stroke:#000;stroke-width:.964999"/><path fill="none" d="M43.012 26.695c-3.237-3.613-4.046-3.613-4.046-3.613" style="fill:#000;fill-opacity:0;stroke:#000;stroke-width:1.09998"/></svg>