<svg xmlns="http://www.w3.org/2000/svg" width="71mm" height="36mm" viewBox="0 0 71 36"><path d="M52.875 75h18v17.625h-18z" style="fill:none;stroke-width:.264583"/><path fill="none" d="m40.97 23.967-6.38-.145-6.382.088 3.316-5.452 3.114-5.57 3.064 5.597z" style="fill:#000;fill-opacity:0;stroke:#000;stroke-width:.843"/><path d="M29.513 12.402h18v17.625h-18z" style="fill:none;stroke-width:.264583"/><path fill="none" d="M32.694 17.631c-.492 6.34 0 6.16 0 6.16" style="fill:#000;fill-opacity:0;stroke:#000;stroke-width:.76885"/><path fill="none" d="M36.742 16.741c-.466 7.423 0 7.21 0 7.21" style="fill:#000;fill-opacity:0;stroke:#000;stroke-width:.809004"/><path fill="none" d="M31.683 17.566c4.891-.518 5.031 0 5.031 0" style="fill:#000;fill-opacity:0;stroke:#000;stroke-width:.692843"/><path fill="none" d="M30.51 20.878c8.507-.413 8.75 0 8.75 0" style="fill:#000;fill-opacity:0;stroke:#000;stroke-width:.815745"/><path fill="none" d="M34.5 12.667c0-4.773.266-4.773.266-4.773" style="fill:#000;fill-opacity:0;stroke:#000;stroke-width:.843"/><path fill="none" d="m28.46 23.593-4.737 3.004" style="fill:#000;fill-opacity:0;stroke:#000;stroke-width:.883;stroke-dasharray:none"/><path fill="none" d="M40.338 23.791c4.035 2.407 4.51 3.21 4.51 3.21" style="fill:#000;fill-opacity:0;stroke:#000;stroke-width:.800917"/></svg>