<svg xmlns="http://www.w3.org/2000/svg" width="71mm" height="36mm" viewBox="0 0 71 36"><path d="M38.219 12.628h18v17.625h-18z" style="fill:none;stroke-width:.264583"/><path fill="none" d="m39.968 25.132-6.38-.145-6.381.088 3.316-5.452 3.114-5.57 3.064 5.597z" style="fill:#000;fill-opacity:0;stroke:#000;stroke-width:.843"/><path d="M28.512 15.067h18v17.625h-18z" style="fill:none;stroke-width:.264583"/><path fill="none" d="M31.693 18.796c-.492 6.34 0 6.16 0 6.16" style="fill:#000;fill-opacity:0;stroke:#000;stroke-width:.76885"/><path fill="none" d="M35.741 17.906c-.466 7.423 0 7.21 0 7.21" style="fill:#000;fill-opacity:0;stroke:#000;stroke-width:.809004"/><path fill="none" d="M30.682 18.731c4.891-.518 5.031 0 5.031 0" style="fill:#000;fill-opacity:0;stroke:#000;stroke-width:.692843"/><path fill="none" d="M29.509 22.043c8.507-.413 8.75 0 8.75 0" style="fill:#000;fill-opacity:0;stroke:#000;stroke-width:.815745"/><path fill="none" d="m33.603 10.962 4.338 7.84 4.621 7.677-8.959-.164-8.959.164 4.622-7.676z" style="fill:#000;fill-opacity:0;stroke:#000;stroke-width:.843"/></svg>