<svg xmlns="http://www.w3.org/2000/svg" width="71mm" height="36mm" viewBox="0 0 71 36"><path d="M19.875 15.75h18v17.625h-18z" style="fill:none;stroke-width:.264583"/><path d="M18.375 12.375h12.75V25.5h-12.75z" style="fill:#000;stroke:#000;stroke-width:.965;stroke-dasharray:none;stroke-opacity:1"/><path d="M19.591 15.108h18v17.625h-18z" style="fill:none;stroke-width:.264583"/><path d="M18.091 11.733h12.75v13.125h-12.75z" style="fill:none;stroke:#000;stroke-width:.965;stroke-dasharray:none;stroke-opacity:1"/><path fill="none" d="m17.716 11.358-3-2.625v-.375m19.583 19.319-3-2.625v-.375" style="fill:#000;fill-opacity:0;stroke:#000;stroke-width:.964999"/><path fill="none" d="m31.26 11.422 3.458-3.198v-.457M14.425 28.042l3.457-3.198v-.457" style="fill:#000;fill-opacity:0;stroke:#000;stroke-width:.783033;stroke-dasharray:none"/><path d="M41.858 15.429h18v17.625h-18z" style="fill:none;stroke-width:.264583"/><path d="M40.358 12.054h12.75v13.125h-12.75z" style="fill:#000;stroke:#000;stroke-width:.965;stroke-dasharray:none;stroke-opacity:1"/><path d="M41.574 14.787h18v17.625h-18z" style="fill:none;stroke-width:.264583"/><path d="M40.074 11.412h12.75v13.125h-12.75z" style="fill:none;stroke:#000;stroke-width:.965;stroke-dasharray:none;stroke-opacity:1"/><path fill="none" d="m39.7 11.037-3-2.625v-.375m19.582 19.319-3-2.625v-.375" style="fill:#000;fill-opacity:0;stroke:#000;stroke-width:.964999"/><path fill="none" d="m53.243 11.101 3.458-3.198v-.457M36.408 27.721l3.457-3.198v-.457" style="fill:#000;fill-opacity:0;stroke:#000;stroke-width:.783033;stroke-dasharray:none"/></svg>