<svg xmlns="http://www.w3.org/2000/svg" width="71mm" height="36mm" viewBox="0 0 71 36"><path d="M21.375 15.375h18V33h-18z" style="fill:none;stroke-width:.264583"/><path d="M19.875 12h12.75v13.125h-12.75z" style="fill:none;stroke:#000;stroke-width:.965;stroke-dasharray:none;stroke-opacity:1"/><path fill="none" d="M24 12.375c-.375 13.125 0 12.75 0 12.75m4.583-13.356c-.375 13.125 0 12.75 0 12.75" style="fill:#000;fill-opacity:0;stroke:#000;stroke-width:.964999"/><path fill="none" d="M19.5 16.125c13.125-.375 13.5 0 13.5 0m-13.289 4.208c13.125-.375 13.5 0 13.5 0" style="fill:#000;fill-opacity:0;stroke:#000;stroke-width:.964999"/><path d="M35.778 11.813h12.75v13.125h-12.75z" style="fill:none;stroke:#000;stroke-width:.965;stroke-dasharray:none;stroke-opacity:1"/><path fill="none" d="M39.903 12.188c-.375 13.125 0 12.75 0 12.75m4.583-13.357c-.375 13.125 0 12.75 0 12.75" style="fill:#000;fill-opacity:0;stroke:#000;stroke-width:.964999"/><path fill="none" d="M35.403 15.938c13.125-.375 13.5 0 13.5 0m-13.289 4.208c13.125-.375 13.5 0 13.5 0" style="fill:#000;fill-opacity:0;stroke:#000;stroke-width:.964999"/></svg>