<svg xmlns="http://www.w3.org/2000/svg" width="71mm" height="36mm" viewBox="0 0 71 36"><path d="M19.5 15.375h18V33h-18z" style="fill:none;stroke-width:.264583"/><path d="M18 12h12.75v13.125H18Z" style="fill:none;stroke:#000;stroke-width:.965;stroke-dasharray:none;stroke-opacity:1"/><path fill="none" d="M22.125 12.375c-.375 13.125 0 12.75 0 12.75m4.583-13.356c-.375 13.125 0 12.75 0 12.75" style="fill:#000;fill-opacity:0;stroke:#000;stroke-width:.964999"/><path fill="none" d="M17.625 16.125c13.125-.375 13.5 0 13.5 0m-13.289 4.208c13.125-.375 13.5 0 13.5 0" style="fill:#000;fill-opacity:0;stroke:#000;stroke-width:.964999"/><path d="M19.216 15.108h18v17.625h-18z" style="fill:none;stroke-width:.264583"/><path fill="none" d="m17.716 11.733-3-2.625v-.375m19.208 18.944-3-2.625v-.375" style="fill:#000;fill-opacity:0;stroke:#000;stroke-width:.964999"/><path fill="none" d="m30.885 11.422 3.458-3.198v-.457M14.05 28.042l3.457-3.198v-.457" style="fill:#000;fill-opacity:0;stroke:#000;stroke-width:.783033;stroke-dasharray:none"/><path d="M41.483 14.867h18v17.625h-18z" style="fill:none;stroke-width:.264583"/><path d="M39.983 11.492h12.75v13.125h-12.75z" style="fill:none;stroke:#000;stroke-width:.965;stroke-dasharray:none;stroke-opacity:1"/><path fill="none" d="M44.108 11.867c-.375 13.125 0 12.75 0 12.75m4.584-13.357c-.375 13.125 0 12.75 0 12.75" style="fill:#000;fill-opacity:0;stroke:#000;stroke-width:.964999"/><path fill="none" d="M39.608 15.617c13.125-.375 13.5 0 13.5 0m-13.289 4.208c13.125-.375 13.5 0 13.5 0" style="fill:#000;fill-opacity:0;stroke:#000;stroke-width:.964999"/><path d="M41.199 14.6h18v17.625h-18z" style="fill:none;stroke-width:.264583"/><path fill="none" d="m39.699 11.225-3-2.625v-.375m19.208 18.943-3-2.625v-.375" style="fill:#000;fill-opacity:0;stroke:#000;stroke-width:.964999"/><path fill="none" d="m52.868 10.914 3.458-3.199v-.457M36.033 27.534l3.457-3.199v-.457" style="fill:#000;fill-opacity:0;stroke:#000;stroke-width:.783033;stroke-dasharray:none"/></svg>