<svg xmlns="http://www.w3.org/2000/svg" width="71mm" height="36mm" viewBox="0 0 71 36"><path d="M19.5 15h18v17.625h-18z" style="fill:none;stroke-width:.264583"/><path d="M18 11.625h12.75V24.75H18Z" style="fill:none;stroke:#000;stroke-width:.965;stroke-dasharray:none;stroke-opacity:1"/><path fill="none" d="M22.125 12c-.375 13.125 0 12.75 0 12.75m4.583-13.356c-.375 13.125 0 12.75 0 12.75" style="fill:#000;fill-opacity:0;stroke:#000;stroke-width:.964999"/><path fill="none" d="M17.625 15.75c13.125-.375 13.5 0 13.5 0m-13.289 4.208c13.125-.375 13.5 0 13.5 0" style="fill:#000;fill-opacity:0;stroke:#000;stroke-width:.964999"/><path d="M15.564 8.814h17.623v18.373H15.564Z" style="fill:none;stroke:#000;stroke-width:1.34229;stroke-dasharray:none;stroke-opacity:1"/><path d="M38.625 11.625h12.75V24.75h-12.75z" style="fill:none;stroke:#000;stroke-width:.965;stroke-dasharray:none;stroke-opacity:1"/><path fill="none" d="M42.75 12c-.375 13.125 0 12.75 0 12.75m4.583-13.356c-.375 13.125 0 12.75 0 12.75" style="fill:#000;fill-opacity:0;stroke:#000;stroke-width:.964999"/><path fill="none" d="M38.25 15.75c13.125-.375 13.5 0 13.5 0m-13.289 4.208c13.125-.375 13.5 0 13.5 0" style="fill:#000;fill-opacity:0;stroke:#000;stroke-width:.964999"/><path d="M36.189 8.814h17.623v18.373H36.189Z" style="fill:none;stroke:#000;stroke-width:1.34229;stroke-dasharray:none;stroke-opacity:1"/></svg>