<svg xmlns="http://www.w3.org/2000/svg" width="71mm" height="36mm" viewBox="0 0 71 36"><path d="M52.875 75h18v17.625h-18z" style="fill:none;stroke-width:.264583"/><ellipse cx="26.625" cy="17.813" fill="none" rx="6.061" ry="6.248" style="fill:#000;fill-opacity:0;stroke:#000;stroke-width:.843454"/><path fill="none" d="M31.125 13.125c3.75-3.75 3.375-3.75 3.375-3.75M18.108 26.321c3.75-3.75 3.375-3.75 3.375-3.75m.267-9.446c-3-3-3.75-3-3.75-3" style="fill:#000;fill-opacity:0;stroke:#000;stroke-width:.964999"/><path fill="none" d="M35.058 25.891c-3.237-3.612-4.046-3.612-4.046-3.612" style="fill:#000;fill-opacity:0;stroke:#000;stroke-width:1.09998"/><ellipse cx="45.008" cy="17.66" fill="none" rx="6.061" ry="6.248" style="fill:#000;fill-opacity:0;stroke:#000;stroke-width:.843454"/><path fill="none" d="M49.508 12.973c3.75-3.75 3.375-3.75 3.375-3.75M36.49 26.168c3.75-3.75 3.376-3.75 3.376-3.75m.267-9.445c-3-3-3.75-3-3.75-3" style="fill:#000;fill-opacity:0;stroke:#000;stroke-width:.964999"/><path fill="none" d="M53.44 25.739c-3.236-3.613-4.045-3.613-4.045-3.613" style="fill:#000;fill-opacity:0;stroke:#000;stroke-width:1.09998"/></svg>