<svg xmlns="http://www.w3.org/2000/svg" width="71mm" height="36mm" viewBox="0 0 71 36"><path d="M52.875 75h18v17.625h-18z" style="fill:none;stroke-width:.264583"/><ellipse cx="27" cy="18.375" fill="none" rx="6.061" ry="6.248" style="fill:#000;fill-opacity:0;stroke:#000;stroke-width:.843454"/><path fill="none" d="M24.901 11.988c-.367 12.76 0 12.395 0 12.395" style="fill:#000;fill-opacity:0;stroke:#000;stroke-width:.940626"/><path fill="none" d="M29.115 12.918c-.394 11.584 0 11.253 0 11.253" style="fill:#000;fill-opacity:0;stroke:#000;stroke-width:.930304"/><path fill="none" d="M21.57 15.758c10.203-.41 10.494 0 10.494 0" style="fill:#000;fill-opacity:0;stroke:#000;stroke-width:.88869"/><path fill="none" d="M21.395 19.964c10.933-.4 11.245 0 11.245 0" style="fill:#000;fill-opacity:0;stroke:#000;stroke-width:.909084"/><path d="M40.579 70.929h18v17.625h-18z" style="fill:none;stroke-width:.264583"/><ellipse cx="26.704" cy="18.241" fill="none" rx="6.061" ry="6.248" style="fill:#000;fill-opacity:0;stroke:#000;stroke-width:.843454"/><path fill="none" d="M31.204 13.554c3.75-3.75 3.375-3.75 3.375-3.75M18.187 26.749c3.75-3.75 3.375-3.75 3.375-3.75m.267-9.445c-3-3-3.75-3-3.75-3" style="fill:#000;fill-opacity:0;stroke:#000;stroke-width:.964999"/><path fill="none" d="M35.137 26.32c-3.237-3.613-4.046-3.613-4.046-3.613" style="fill:#000;fill-opacity:0;stroke:#000;stroke-width:1.09998"/><ellipse cx="45" cy="17.625" fill="none" rx="6.061" ry="6.248" style="fill:#000;fill-opacity:0;stroke:#000;stroke-width:.843454"/><path fill="none" d="M42.901 11.238c-.367 12.76 0 12.395 0 12.395" style="fill:#000;fill-opacity:0;stroke:#000;stroke-width:.940626"/><path fill="none" d="M47.115 12.168c-.394 11.584 0 11.253 0 11.253" style="fill:#000;fill-opacity:0;stroke:#000;stroke-width:.930304"/><path fill="none" d="M39.57 15.008c10.203-.41 10.494 0 10.494 0" style="fill:#000;fill-opacity:0;stroke:#000;stroke-width:.88869"/><path fill="none" d="M39.395 19.214c10.933-.4 11.245 0 11.245 0" style="fill:#000;fill-opacity:0;stroke:#000;stroke-width:.909084"/><path d="M58.579 70.179h18v17.625h-18z" style="fill:none;stroke-width:.264583"/><ellipse cx="44.704" cy="17.491" fill="none" rx="6.061" ry="6.248" style="fill:#000;fill-opacity:0;stroke:#000;stroke-width:.843454"/><path fill="none" d="M49.204 12.804c3.75-3.75 3.375-3.75 3.375-3.75M36.187 25.999c3.75-3.75 3.375-3.75 3.375-3.75m.267-9.445c-3-3-3.75-3-3.75-3" style="fill:#000;fill-opacity:0;stroke:#000;stroke-width:.964999"/><path fill="none" d="M53.137 25.57c-3.237-3.613-4.046-3.613-4.046-3.613" style="fill:#000;fill-opacity:0;stroke:#000;stroke-width:1.09998"/></svg>