<svg xmlns="http://www.w3.org/2000/svg" width="71mm" height="36mm" viewBox="0 0 71 36"><path d="M52.875 75h18v17.625h-18z" style="fill:none;stroke-width:.264583"/><ellipse cx="25.125" cy="18" fill="none" rx="6.061" ry="6.248" style="fill:#000;fill-opacity:0;stroke:#000;stroke-width:.843454"/><path fill="none" d="M23.026 11.613c-.367 12.76 0 12.395 0 12.395" style="fill:#000;fill-opacity:0;stroke:#000;stroke-width:.940626"/><path fill="none" d="M27.24 12.543c-.394 11.584 0 11.253 0 11.253" style="fill:#000;fill-opacity:0;stroke:#000;stroke-width:.930304"/><path fill="none" d="M19.695 15.383c10.203-.41 10.494 0 10.494 0" style="fill:#000;fill-opacity:0;stroke:#000;stroke-width:.88869"/><path fill="none" d="M19.52 19.589c10.933-.4 11.245 0 11.245 0" style="fill:#000;fill-opacity:0;stroke:#000;stroke-width:.909084"/><path d="M40.28 70.44h18v17.625h-18z" style="fill:none;stroke-width:.264583"/><ellipse cx="25.961" cy="16.818" fill="none" rx="9.037" ry="9.223" style="fill:#000;fill-opacity:0;stroke:#000;stroke-width:.811404;stroke-dasharray:none" transform="matrix(.99904 .0437 -.03904 .99924 0 0)"/><ellipse cx="45.22" cy="18.435" fill="none" rx="6.061" ry="6.248" style="fill:#000;fill-opacity:0;stroke:#000;stroke-width:.843454"/><path fill="none" d="M43.121 12.048c-.366 12.76 0 12.395 0 12.395" style="fill:#000;fill-opacity:0;stroke:#000;stroke-width:.940626"/><path fill="none" d="M47.336 12.978c-.395 11.584 0 11.253 0 11.253" style="fill:#000;fill-opacity:0;stroke:#000;stroke-width:.930304"/><path fill="none" d="M39.79 15.818c10.203-.41 10.495 0 10.495 0" style="fill:#000;fill-opacity:0;stroke:#000;stroke-width:.88869"/><path fill="none" d="M39.616 20.024c10.932-.4 11.245 0 11.245 0" style="fill:#000;fill-opacity:0;stroke:#000;stroke-width:.909084"/><ellipse cx="46.058" cy="16.374" fill="none" rx="9.037" ry="9.223" style="fill:#000;fill-opacity:0;stroke:#000;stroke-width:.811404;stroke-dasharray:none" transform="matrix(.99904 .0437 -.03904 .99924 0 0)"/></svg>