<svg xmlns="http://www.w3.org/2000/svg" width="71mm" height="36mm" viewBox="0 0 71 36"><path d="M52.875 75h18v17.625h-18z" style="fill:none;stroke-width:.264583"/><path fill="none" d="m29.843 25.507-6.38-.145-6.381.088 3.316-5.452 3.114-5.57 3.064 5.597zm-6.364-11.402c0-4.773.265-4.773.265-4.773" style="fill:#000;fill-opacity:0;stroke:#000;stroke-width:.843"/><path fill="none" d="m17.438 25.032-4.737 3.003" style="fill:#000;fill-opacity:0;stroke:#000;stroke-width:.883;stroke-dasharray:none"/><path fill="none" d="M29.317 25.229c4.035 2.407 4.51 3.209 4.51 3.209" style="fill:#000;fill-opacity:0;stroke:#000;stroke-width:.800917"/><path fill="none" d="m52.808 25.344-6.38-.145-6.381.088 3.316-5.452 3.114-5.57 3.064 5.597zM46.444 13.942c0-4.773.265-4.773.265-4.773" style="fill:#000;fill-opacity:0;stroke:#000;stroke-width:.843"/><path fill="none" d="m40.403 24.868-4.737 3.004" style="fill:#000;fill-opacity:0;stroke:#000;stroke-width:.883;stroke-dasharray:none"/><path fill="none" d="M52.282 25.065c4.035 2.407 4.51 3.21 4.51 3.21" style="fill:#000;fill-opacity:0;stroke:#000;stroke-width:.800917"/></svg>