<svg xmlns="http://www.w3.org/2000/svg" xmlns:xlink="http://www.w3.org/1999/xlink" width="71mm" height="36mm" viewBox="0 0 71 36"><defs><linearGradient id="a"><stop offset="0" style="stop-color:#000;stop-opacity:1"/></linearGradient><linearGradient xlink:href="#a" id="b" x1="23.076" x2="37.345" y1="62.126" y2="62.126" gradientTransform="translate(-6 -43.125)" gradientUnits="userSpaceOnUse"/><linearGradient xlink:href="#a" id="c" x1="23.076" x2="37.345" y1="62.126" y2="62.126" gradientTransform="translate(17.76 -43.023)" gradientUnits="userSpaceOnUse"/></defs><path d="M52.875 75h18v17.625h-18z" style="fill:none;stroke-width:.264583"/><path d="m30.593 24.757-6.38-.145-6.381.088 3.316-5.452 3.114-5.57 3.064 5.597z" style="fill:url(#b);fill-opacity:1;stroke:#000;stroke-width:.843"/><path fill="none" d="M24.229 13.355c0-4.773.265-4.773.265-4.773" style="fill:#000;fill-opacity:0;stroke:#000;stroke-width:.843"/><path fill="none" d="m18.188 24.282-4.737 3.003" style="fill:#000;fill-opacity:0;stroke:#000;stroke-width:.883;stroke-dasharray:none"/><path fill="none" d="M30.067 24.479c4.035 2.407 4.51 3.209 4.51 3.209" style="fill:#000;fill-opacity:0;stroke:#000;stroke-width:.800917"/><path d="m54.353 24.859-6.38-.145-6.381.088 3.316-5.452 3.114-5.57 3.064 5.597z" style="fill:url(#c);fill-opacity:1;stroke:#000;stroke-width:.843"/><path fill="none" d="M47.99 13.457c0-4.773.264-4.773.264-4.773" style="fill:#000;fill-opacity:0;stroke:#000;stroke-width:.843"/><path fill="none" d="m41.949 24.383-4.737 3.004" style="fill:#000;fill-opacity:0;stroke:#000;stroke-width:.883;stroke-dasharray:none"/><path fill="none" d="M53.827 24.581c4.035 2.407 4.51 3.209 4.51 3.209" style="fill:#000;fill-opacity:0;stroke:#000;stroke-width:.800917"/></svg>