<svg xmlns="http://www.w3.org/2000/svg" width="71mm" height="36mm" viewBox="0 0 71 36"><path d="M52.875 75h18v17.625h-18z" style="fill:none;stroke-width:.264583"/><path fill="none" d="m32.843 24.007-6.38-.145-6.381.088 3.316-5.452 3.114-5.57 3.064 5.597z" style="fill:#000;fill-opacity:0;stroke:#000;stroke-width:.843"/><path d="M21.387 13.942h18v17.625h-18z" style="fill:none;stroke-width:.264583"/><path fill="none" d="M24.568 17.671c-.492 6.34 0 6.16 0 6.16" style="fill:#000;fill-opacity:0;stroke:#000;stroke-width:.76885"/><path fill="none" d="M28.616 16.781c-.466 7.423 0 7.21 0 7.21" style="fill:#000;fill-opacity:0;stroke:#000;stroke-width:.809004"/><path fill="none" d="M23.557 17.606c4.891-.518 5.031 0 5.031 0" style="fill:#000;fill-opacity:0;stroke:#000;stroke-width:.692843"/><path fill="none" d="M22.384 20.918c8.507-.413 8.75 0 8.75 0" style="fill:#000;fill-opacity:0;stroke:#000;stroke-width:.815745"/><path fill="none" d="m48.506 23.929-6.38-.145-6.381.088 3.316-5.452 3.114-5.57 3.064 5.597z" style="fill:#000;fill-opacity:0;stroke:#000;stroke-width:.843"/><path fill="none" d="M40.232 17.594c-.493 6.34 0 6.158 0 6.158" style="fill:#000;fill-opacity:0;stroke:#000;stroke-width:.76885"/><path fill="none" d="M44.279 16.703c-.466 7.423 0 7.211 0 7.211" style="fill:#000;fill-opacity:0;stroke:#000;stroke-width:.809004"/><path fill="none" d="M39.22 17.528c4.892-.518 5.031 0 5.031 0" style="fill:#000;fill-opacity:0;stroke:#000;stroke-width:.692843"/><path fill="none" d="M38.047 20.84c8.507-.413 8.75 0 8.75 0" style="fill:#000;fill-opacity:0;stroke:#000;stroke-width:.815745"/></svg>