<svg xmlns="http://www.w3.org/2000/svg" width="71mm" height="36mm" viewBox="0 0 71 36"><path d="M52.875 75h18v17.625h-18z" style="fill:none;stroke-width:.264583"/><path fill="none" d="m29.093 23.632-6.38-.145-6.381.088 3.316-5.452 3.114-5.57 3.064 5.597z" style="fill:#000;fill-opacity:0;stroke:#000;stroke-width:.843"/><path d="M17.637 13.567h18v17.625h-18z" style="fill:none;stroke-width:.264583"/><path fill="none" d="M20.818 17.296c-.492 6.34 0 6.16 0 6.16" style="fill:#000;fill-opacity:0;stroke:#000;stroke-width:.76885"/><path fill="none" d="M24.866 16.406c-.466 7.423 0 7.21 0 7.21" style="fill:#000;fill-opacity:0;stroke:#000;stroke-width:.809004"/><path fill="none" d="M19.807 17.231c4.891-.518 5.031 0 5.031 0" style="fill:#000;fill-opacity:0;stroke:#000;stroke-width:.692843"/><path fill="none" d="M18.634 20.543c8.507-.413 8.75 0 8.75 0" style="fill:#000;fill-opacity:0;stroke:#000;stroke-width:.815745"/><path fill="none" d="M22.624 12.332c0-4.773.266-4.773.266-4.773" style="fill:#000;fill-opacity:0;stroke:#000;stroke-width:.843"/><path fill="none" d="m16.584 23.258-4.737 3.004" style="fill:#000;fill-opacity:0;stroke:#000;stroke-width:.883;stroke-dasharray:none"/><path fill="none" d="M28.462 23.456c4.035 2.407 4.51 3.209 4.51 3.209" style="fill:#000;fill-opacity:0;stroke:#000;stroke-width:.800917"/><path fill="none" d="m52.163 23.632-6.38-.145-6.381.088 3.316-5.452 3.114-5.57 3.064 5.597z" style="fill:#000;fill-opacity:0;stroke:#000;stroke-width:.843"/><path fill="none" d="M43.888 17.296c-.493 6.34 0 6.16 0 6.16" style="fill:#000;fill-opacity:0;stroke:#000;stroke-width:.76885"/><path fill="none" d="M47.935 16.406c-.466 7.423 0 7.21 0 7.21" style="fill:#000;fill-opacity:0;stroke:#000;stroke-width:.809004"/><path fill="none" d="M42.876 17.231c4.892-.518 5.032 0 5.032 0" style="fill:#000;fill-opacity:0;stroke:#000;stroke-width:.692843"/><path fill="none" d="M41.703 20.543c8.507-.413 8.75 0 8.75 0" style="fill:#000;fill-opacity:0;stroke:#000;stroke-width:.815745"/><path fill="none" d="M45.694 12.332c0-4.773.265-4.773.265-4.773" style="fill:#000;fill-opacity:0;stroke:#000;stroke-width:.843"/><path fill="none" d="m39.653 23.258-4.737 3.004" style="fill:#000;fill-opacity:0;stroke:#000;stroke-width:.883;stroke-dasharray:none"/><path fill="none" d="M51.532 23.456c4.035 2.407 4.51 3.209 4.51 3.209" style="fill:#000;fill-opacity:0;stroke:#000;stroke-width:.800917"/></svg>