<svg xmlns="http://www.w3.org/2000/svg" width="71mm" height="36mm" viewBox="0 0 71 36"><path d="M8.25 16.125h18V33.75h-18z" style="fill:none;stroke-width:.264583"/><path d="M6.75 12.75H19.5v13.125H6.75Z" style="fill:none;stroke:#000;stroke-width:.965;stroke-dasharray:none;stroke-opacity:1"/><path fill="none" d="m6.375 12.375-3-2.625v-.375m19.582 19.318-3-2.625v-.375" style="fill:#000;fill-opacity:0;stroke:#000;stroke-width:.964999"/><path fill="none" d="m19.919 12.439 3.457-3.198v-.457M3.084 29.059l3.457-3.198v-.457" style="fill:#000;fill-opacity:0;stroke:#000;stroke-width:.783033;stroke-dasharray:none"/><path d="M30.841 15.483h18v17.625h-18z" style="fill:none;stroke-width:.264583"/><path d="M29.341 12.108h12.75v13.125h-12.75z" style="fill:none;stroke:#000;stroke-width:.965;stroke-dasharray:none;stroke-opacity:1"/><path fill="none" d="m28.966 11.733-3-2.625v-.375m19.583 19.319-3-2.625v-.375" style="fill:#000;fill-opacity:0;stroke:#000;stroke-width:.964999"/><path fill="none" d="m42.51 11.797 3.458-3.198v-.457M25.675 28.417l3.457-3.198v-.457" style="fill:#000;fill-opacity:0;stroke:#000;stroke-width:.783033;stroke-dasharray:none"/><g fill="none" stroke="none" style="fill:#000;fill-opacity:0;stroke:#000;stroke-width:3.64724"><path d="m45.41 118.923 15.558-10.134v27.517l-15.558 3.112z" style="fill:#e9e9ff;fill-rule:evenodd;stroke:none;stroke-linejoin:round"/><path d="M32.625 116.625v22.087l12.785.706v-20.495z" style="fill:#353564;fill-rule:evenodd;stroke:none;stroke-linejoin:round"/><path d="M32.625 116.625 45 104.535l15.968 4.254-15.558 10.134Z" style="fill:#4d4d9f;fill-rule:evenodd;stroke:none;stroke-linejoin:round"/><path d="M32.625 138.713 45 135l15.968 1.306-15.558 3.112z" style="fill:#afafde;fill-rule:evenodd;stroke:none;stroke-linejoin:round"/><path d="M45 104.534V135l15.968 1.306V108.79Z" style="fill:#d7d7ff;fill-rule:evenodd;stroke:none;stroke-linejoin:round"/><path d="M32.625 116.625 45 104.535V135l-12.375 3.712z" style="fill:#8686bf;fill-rule:evenodd;stroke:none;stroke-linejoin:round"/></g><g fill="none" stroke="none" style="fill:#000;fill-opacity:0;stroke:#000;stroke-width:3.64724"><path d="M45.41 129.362 70 118.998V156.5l-24.59-2.81z" style="fill:#e9e9ff;fill-rule:evenodd;stroke:none;stroke-linejoin:round"/><path d="M32.625 127.875v26.218l12.785-.403v-24.328z" style="fill:#353564;fill-rule:evenodd;stroke:none;stroke-linejoin:round"/><path d="M32.625 154.093 52.5 157.5l17.5-1-24.59-2.81Z" style="fill:#afafde;fill-rule:evenodd;stroke:none;stroke-linejoin:round"/><path d="M32.625 127.875 52.5 115.31l17.5 3.688-24.59 10.364Z" style="fill:#4d4d9f;fill-rule:evenodd;stroke:none;stroke-linejoin:round"/><path d="M52.5 115.31v42.19l17.5-1v-37.502z" style="fill:#d7d7ff;fill-rule:evenodd;stroke:none;stroke-linejoin:round"/><path d="M32.625 127.875 52.5 115.31v42.19l-19.875-3.407z" style="fill:#8686bf;fill-rule:evenodd;stroke:none;stroke-linejoin:round"/></g><g fill="none" stroke="none" style="fill:#000;fill-opacity:0;stroke:#000;stroke-width:3.64724"><path d="m81.322 77.956 2.97-2.577v1.984l-2.97 2.507z" style="fill:#e9e9ff;fill-rule:evenodd;stroke:none;stroke-linejoin:round" transform="translate(-44.625 -58.875)"/><path d="M62.25 67.5v2.198L81.322 79.87v-1.914z" style="fill:#353564;fill-rule:evenodd;stroke:none;stroke-linejoin:round" transform="translate(-44.625 -58.875)"/><path d="m62.25 67.5 2.625-3.416L84.292 75.38l-2.97 2.577z" style="fill:#4d4d9f;fill-rule:evenodd;stroke:none;stroke-linejoin:round" transform="translate(-44.625 -58.875)"/><path d="m62.25 69.698 2.625-3.323 19.417 10.988-2.97 2.507z" style="fill:#afafde;fill-rule:evenodd;stroke:none;stroke-linejoin:round" transform="translate(-44.625 -58.875)"/><path d="M64.875 64.084v2.291l19.417 10.988V75.38Z" style="fill:#d7d7ff;fill-rule:evenodd;stroke:none;stroke-linejoin:round" transform="translate(-44.625 -58.875)"/><path d="m62.25 67.5 2.625-3.416v2.291l-2.625 3.323z" style="fill:#8686bf;fill-rule:evenodd;stroke:none;stroke-linejoin:round" transform="translate(-44.625 -58.875)"/></g><path d="M52.966 15.483h18v17.625h-18z" style="fill:none;stroke-width:.264583"/><path d="M51.466 12.108h12.75v13.125h-12.75z" style="fill:none;stroke:#000;stroke-width:.965;stroke-dasharray:none;stroke-opacity:1"/><path fill="none" d="m51.091 11.733-3-2.625v-.375m19.583 19.319-3-2.625v-.375" style="fill:#000;fill-opacity:0;stroke:#000;stroke-width:.964999"/><path fill="none" d="m64.635 11.797 3.458-3.198v-.457M47.8 28.417l3.457-3.198v-.457" style="fill:#000;fill-opacity:0;stroke:#000;stroke-width:.783033;stroke-dasharray:none"/></svg>