<svg xmlns="http://www.w3.org/2000/svg" width="71mm" height="36mm" viewBox="0 0 71 36"><path d="M9 16.5h18v17.625H9Z" style="fill:none;stroke-width:.264583"/><path d="M7.5 13.125h12.75V26.25H7.5Z" style="fill:#000;stroke:#000;stroke-width:.965;stroke-dasharray:none;stroke-opacity:1"/><path d="M8.716 15.858h18v17.625h-18z" style="fill:none;stroke-width:.264583"/><path d="M7.216 12.483h12.75v13.125H7.216Z" style="fill:none;stroke:#000;stroke-width:.965;stroke-dasharray:none;stroke-opacity:1"/><path fill="none" d="m6.841 12.108-3-2.625v-.375m19.583 19.319-3-2.625v-.375" style="fill:#000;fill-opacity:0;stroke:#000;stroke-width:.964999"/><path fill="none" d="m20.385 12.172 3.458-3.198v-.457M3.55 28.792l3.457-3.198v-.457" style="fill:#000;fill-opacity:0;stroke:#000;stroke-width:.783033;stroke-dasharray:none"/><path d="M30.983 16.179h18v17.625h-18z" style="fill:none;stroke-width:.264583"/><path d="M29.483 12.804h12.75v13.125h-12.75z" style="fill:#000;stroke:#000;stroke-width:.965;stroke-dasharray:none;stroke-opacity:1"/><path d="M30.699 15.537h18v17.625h-18z" style="fill:none;stroke-width:.264583"/><path d="M29.199 12.162h12.75v13.125h-12.75z" style="fill:none;stroke:#000;stroke-width:.965;stroke-dasharray:none;stroke-opacity:1"/><path fill="none" d="m28.825 11.787-3-2.625v-.375m19.582 19.319-3-2.625v-.375" style="fill:#000;fill-opacity:0;stroke:#000;stroke-width:.964999"/><path fill="none" d="m42.368 11.851 3.458-3.198v-.457M25.533 28.471l3.457-3.198v-.457" style="fill:#000;fill-opacity:0;stroke:#000;stroke-width:.783033;stroke-dasharray:none"/><path d="M96.983 74.304h18v17.625h-18z" style="fill:none;stroke-width:.264583"/><path d="M51.608 12.429h12.75v13.125h-12.75z" style="fill:#000;stroke:#000;stroke-width:.965;stroke-dasharray:none;stroke-opacity:1"/><path d="M52.824 15.162h18v17.625h-18z" style="fill:none;stroke-width:.264583"/><path d="M51.324 11.787h12.75v13.125h-12.75z" style="fill:none;stroke:#000;stroke-width:.965;stroke-dasharray:none;stroke-opacity:1"/><path fill="none" d="m50.949 11.412-3-2.625v-.375M67.532 27.73l-3-2.624v-.375" style="fill:#000;fill-opacity:0;stroke:#000;stroke-width:.964999"/><path fill="none" d="m64.493 11.476 3.458-3.198v-.457M47.658 28.096l3.457-3.198v-.457" style="fill:#000;fill-opacity:0;stroke:#000;stroke-width:.783033;stroke-dasharray:none"/></svg>