<svg xmlns="http://www.w3.org/2000/svg" width="71mm" height="36mm" viewBox="0 0 71 36"><path d="M52.875 75h18v17.625h-18z" style="fill:none;stroke-width:.264583"/><path d="M13.5 12.375h12.75V25.5H13.5Z" style="fill:none;stroke:#000;stroke-width:.965;stroke-dasharray:none;stroke-opacity:1"/><path fill="none" d="M17.625 12.75c-.375 13.125 0 12.75 0 12.75m4.583-13.356c-.375 13.125 0 12.75 0 12.75" style="fill:#000;fill-opacity:0;stroke:#000;stroke-width:.964999"/><path fill="none" d="M13.125 16.5c13.125-.375 13.5 0 13.5 0m-13.289 4.208c13.125-.375 13.5 0 13.5 0" style="fill:#000;fill-opacity:0;stroke:#000;stroke-width:.964999"/><path d="M44.778 12.188h12.75v13.125h-12.75z" style="fill:none;stroke:#000;stroke-width:.965;stroke-dasharray:none;stroke-opacity:1"/><path fill="none" d="M48.903 12.563c-.375 13.125 0 12.75 0 12.75m4.583-13.357c-.375 13.125 0 12.75 0 12.75" style="fill:#000;fill-opacity:0;stroke:#000;stroke-width:.964999"/><path fill="none" d="M44.403 16.313c13.125-.375 13.5 0 13.5 0m-13.289 4.208c13.125-.375 13.5 0 13.5 0" style="fill:#000;fill-opacity:0;stroke:#000;stroke-width:.964999"/><path d="M29.403 12.188h12.75v13.125h-12.75z" style="fill:none;stroke:#000;stroke-width:.965;stroke-dasharray:none;stroke-opacity:1"/><path fill="none" d="M33.528 12.563c-.375 13.125 0 12.75 0 12.75m4.583-13.357c-.375 13.125 0 12.75 0 12.75" style="fill:#000;fill-opacity:0;stroke:#000;stroke-width:.964999"/><path fill="none" d="M29.028 16.313c13.125-.375 13.5 0 13.5 0m-13.289 4.208c13.125-.375 13.5 0 13.5 0" style="fill:#000;fill-opacity:0;stroke:#000;stroke-width:.964999"/></svg>