<svg xmlns="http://www.w3.org/2000/svg" width="71mm" height="36mm" viewBox="0 0 71 36"><path d="M9 15h18v17.625H9Z" style="fill:none;stroke-width:.264583"/><path d="M7.5 11.625h12.75V24.75H7.5Z" style="fill:none;stroke:#000;stroke-width:.965;stroke-dasharray:none;stroke-opacity:1"/><path fill="none" d="M11.625 12c-.375 13.125 0 12.75 0 12.75m4.583-13.356c-.375 13.125 0 12.75 0 12.75" style="fill:#000;fill-opacity:0;stroke:#000;stroke-width:.964999"/><path fill="none" d="M7.125 15.75c13.125-.375 13.5 0 13.5 0M7.336 19.958c13.125-.375 13.5 0 13.5 0" style="fill:#000;fill-opacity:0;stroke:#000;stroke-width:.964999"/><path d="M8.716 14.733h18v17.625h-18z" style="fill:none;stroke-width:.264583"/><path fill="none" d="m7.216 11.358-3-2.625v-.375m19.208 18.944-3-2.625v-.375" style="fill:#000;fill-opacity:0;stroke:#000;stroke-width:.964999"/><path fill="none" d="m20.385 11.047 3.458-3.198v-.457M3.55 27.667l3.457-3.198v-.457" style="fill:#000;fill-opacity:0;stroke:#000;stroke-width:.783033;stroke-dasharray:none"/><path d="M30.983 14.492h18v17.625h-18z" style="fill:none;stroke-width:.264583"/><path d="M29.483 11.117h12.75v13.125h-12.75z" style="fill:none;stroke:#000;stroke-width:.965;stroke-dasharray:none;stroke-opacity:1"/><path fill="none" d="M33.608 11.492c-.375 13.125 0 12.75 0 12.75m4.584-13.357c-.375 13.125 0 12.75 0 12.75" style="fill:#000;fill-opacity:0;stroke:#000;stroke-width:.964999"/><path fill="none" d="M29.108 15.242c13.125-.375 13.5 0 13.5 0M29.319 19.45c13.125-.375 13.5 0 13.5 0" style="fill:#000;fill-opacity:0;stroke:#000;stroke-width:.964999"/><path d="M30.699 14.225h18V31.85h-18z" style="fill:none;stroke-width:.264583"/><path fill="none" d="m29.199 10.85-3-2.625V7.85m19.208 18.943-3-2.625v-.375" style="fill:#000;fill-opacity:0;stroke:#000;stroke-width:.964999"/><path fill="none" d="m42.368 10.539 3.458-3.199v-.457M25.533 27.159l3.457-3.199v-.457" style="fill:#000;fill-opacity:0;stroke:#000;stroke-width:.783033;stroke-dasharray:none"/><path d="M52.358 14.117h18v17.625h-18z" style="fill:none;stroke-width:.264583"/><path d="M50.858 10.742h12.75v13.125h-12.75z" style="fill:none;stroke:#000;stroke-width:.965;stroke-dasharray:none;stroke-opacity:1"/><path fill="none" d="M54.983 11.117c-.375 13.125 0 12.75 0 12.75m4.584-13.357c-.375 13.125 0 12.75 0 12.75" style="fill:#000;fill-opacity:0;stroke:#000;stroke-width:.964999"/><path fill="none" d="M50.483 14.867c13.125-.375 13.5 0 13.5 0m-13.288 4.208c13.124-.375 13.5 0 13.5 0" style="fill:#000;fill-opacity:0;stroke:#000;stroke-width:.964999"/><path d="M52.074 13.85h18v17.625h-18z" style="fill:none;stroke-width:.264583"/><path fill="none" d="m50.575 10.475-3-2.625v-.375m19.207 18.943-3-2.625v-.375" style="fill:#000;fill-opacity:0;stroke:#000;stroke-width:.964999"/><path fill="none" d="m63.743 10.164 3.458-3.199v-.457M46.908 26.784l3.457-3.199v-.457" style="fill:#000;fill-opacity:0;stroke:#000;stroke-width:.783033;stroke-dasharray:none"/></svg>