<svg xmlns="http://www.w3.org/2000/svg" width="71mm" height="36mm" viewBox="0 0 71 36"><path d="M10.5 16.5h18v17.625h-18z" style="fill:none;stroke-width:.264583"/><path d="M9 13.125h12.75V26.25H9Z" style="fill:none;stroke:#000;stroke-width:.965;stroke-dasharray:none;stroke-opacity:1"/><path fill="none" d="M13.125 13.5c-.375 13.125 0 12.75 0 12.75m4.583-13.356c-.375 13.125 0 12.75 0 12.75" style="fill:#000;fill-opacity:0;stroke:#000;stroke-width:.964999"/><path fill="none" d="M8.625 17.25c13.125-.375 13.5 0 13.5 0M8.836 21.458c13.125-.375 13.5 0 13.5 0" style="fill:#000;fill-opacity:0;stroke:#000;stroke-width:.964999"/><path d="M6.564 10.314h17.623v18.373H6.564Z" style="fill:none;stroke:#000;stroke-width:1.34229;stroke-dasharray:none;stroke-opacity:1"/><path d="M29.625 13.125h12.75V26.25h-12.75z" style="fill:none;stroke:#000;stroke-width:.965;stroke-dasharray:none;stroke-opacity:1"/><path fill="none" d="M33.75 13.5c-.375 13.125 0 12.75 0 12.75m4.583-13.356c-.375 13.125 0 12.75 0 12.75" style="fill:#000;fill-opacity:0;stroke:#000;stroke-width:.964999"/><path fill="none" d="M29.25 17.25c13.125-.375 13.5 0 13.5 0m-13.289 4.208c13.125-.375 13.5 0 13.5 0" style="fill:#000;fill-opacity:0;stroke:#000;stroke-width:.964999"/><path d="M27.189 10.314h17.623v18.373H27.189Z" style="fill:none;stroke:#000;stroke-width:1.34229;stroke-dasharray:none;stroke-opacity:1"/><path d="M50.25 13.125H63V26.25H50.25Z" style="fill:none;stroke:#000;stroke-width:.965;stroke-dasharray:none;stroke-opacity:1"/><path fill="none" d="M54.375 13.5c-.375 13.125 0 12.75 0 12.75m4.583-13.356c-.375 13.125 0 12.75 0 12.75" style="fill:#000;fill-opacity:0;stroke:#000;stroke-width:.964999"/><path fill="none" d="M49.875 17.25c13.125-.375 13.5 0 13.5 0m-13.289 4.208c13.125-.375 13.5 0 13.5 0" style="fill:#000;fill-opacity:0;stroke:#000;stroke-width:.964999"/><path d="M47.814 10.314h17.623v18.373H47.814Z" style="fill:none;stroke:#000;stroke-width:1.34229;stroke-dasharray:none;stroke-opacity:1"/></svg>