<svg xmlns="http://www.w3.org/2000/svg" width="71mm" height="36mm" viewBox="0 0 71 36"><path d="M1.875 16.5h18v17.625h-18z" style="fill:none;stroke-width:.264583"/><ellipse cx="16.875" cy="18.938" fill="none" rx="6.061" ry="6.248" style="fill:#000;fill-opacity:0;stroke:#000;stroke-width:.843454"/><path fill="none" d="M21.375 14.25c3.75-3.75 3.375-3.75 3.375-3.75M8.358 27.446c3.75-3.75 3.375-3.75 3.375-3.75M12 14.25c-3-3-3.75-3-3.75-3" style="fill:#000;fill-opacity:0;stroke:#000;stroke-width:.964999"/><path fill="none" d="M25.308 27.016c-3.237-3.612-4.046-3.612-4.046-3.612" style="fill:#000;fill-opacity:0;stroke:#000;stroke-width:1.09998"/><ellipse cx="35.258" cy="18.785" fill="none" rx="6.061" ry="6.248" style="fill:#000;fill-opacity:0;stroke:#000;stroke-width:.843454"/><path fill="none" d="M39.758 14.098c3.75-3.75 3.375-3.75 3.375-3.75M26.74 27.293c3.75-3.75 3.376-3.75 3.376-3.75m.267-9.445c-3-3-3.75-3-3.75-3" style="fill:#000;fill-opacity:0;stroke:#000;stroke-width:.964999"/><path fill="none" d="M43.69 26.864c-3.236-3.613-4.045-3.613-4.045-3.613" style="fill:#000;fill-opacity:0;stroke:#000;stroke-width:1.09998"/><ellipse cx="53.633" cy="18.41" fill="none" rx="6.061" ry="6.248" style="fill:#000;fill-opacity:0;stroke:#000;stroke-width:.843454"/><path fill="none" d="M58.133 13.723c3.75-3.75 3.375-3.75 3.375-3.75M45.116 26.918c3.75-3.75 3.375-3.75 3.375-3.75m.267-9.445c-3-3-3.75-3-3.75-3" style="fill:#000;fill-opacity:0;stroke:#000;stroke-width:.964999"/><path fill="none" d="M62.066 26.489c-3.237-3.613-4.046-3.613-4.046-3.613" style="fill:#000;fill-opacity:0;stroke:#000;stroke-width:1.09998"/></svg>