<svg xmlns="http://www.w3.org/2000/svg" xmlns:xlink="http://www.w3.org/1999/xlink" width="71mm" height="36mm" viewBox="0 0 71 36"><defs><linearGradient id="a"><stop offset="0" style="stop-color:#000;stop-opacity:1"/></linearGradient><linearGradient xlink:href="#a" id="b" x1="61.392" x2="74.357" y1="77.438" y2="77.438" gradientTransform="translate(-50.25 -57.75)" gradientUnits="userSpaceOnUse"/><linearGradient xlink:href="#a" id="c" x1="61.392" x2="74.357" y1="77.438" y2="77.438" gradientTransform="translate(-31.867 -57.902)" gradientUnits="userSpaceOnUse"/><linearGradient xlink:href="#a" id="d" x1="61.392" x2="74.357" y1="77.438" y2="77.438" gradientTransform="translate(-13.492 -58.277)" gradientUnits="userSpaceOnUse"/></defs><path d="M52.875 75h18v17.625h-18z" style="fill:none;stroke-width:.264583"/><ellipse cx="17.625" cy="19.688" rx="6.061" ry="6.248" style="fill:url(#b);fill-opacity:1;stroke:#000;stroke-width:.843454"/><path fill="none" d="M22.125 15c3.75-3.75 3.375-3.75 3.375-3.75M9.108 28.196c3.75-3.75 3.375-3.75 3.375-3.75M12.75 15C9.75 12 9 12 9 12" style="fill:#000;fill-opacity:0;stroke:#000;stroke-width:.964999"/><path fill="none" d="M26.058 27.766c-3.237-3.612-4.046-3.612-4.046-3.612" style="fill:#000;fill-opacity:0;stroke:#000;stroke-width:1.09998"/><ellipse cx="36.008" cy="19.535" rx="6.061" ry="6.248" style="fill:url(#c);fill-opacity:1;stroke:#000;stroke-width:.843454"/><path fill="none" d="M40.508 14.848c3.75-3.75 3.375-3.75 3.375-3.75M27.49 28.043c3.75-3.75 3.376-3.75 3.376-3.75m.267-9.445c-3-3-3.75-3-3.75-3" style="fill:#000;fill-opacity:0;stroke:#000;stroke-width:.964999"/><path fill="none" d="M44.44 27.614c-3.236-3.613-4.045-3.613-4.045-3.613" style="fill:#000;fill-opacity:0;stroke:#000;stroke-width:1.09998"/><ellipse cx="54.383" cy="19.16" rx="6.061" ry="6.248" style="fill:url(#d);fill-opacity:1;stroke:#000;stroke-width:.843454"/><path fill="none" d="M58.883 14.473c3.75-3.75 3.375-3.75 3.375-3.75M45.866 27.668c3.75-3.75 3.375-3.75 3.375-3.75m.267-9.445c-3-3-3.75-3-3.75-3" style="fill:#000;fill-opacity:0;stroke:#000;stroke-width:.964999"/><path fill="none" d="M62.816 27.239c-3.237-3.613-4.046-3.613-4.046-3.613" style="fill:#000;fill-opacity:0;stroke:#000;stroke-width:1.09998"/></svg>