<svg xmlns="http://www.w3.org/2000/svg" xmlns:xlink="http://www.w3.org/1999/xlink" width="71mm" height="36mm" viewBox="0 0 71 36"><defs><linearGradient id="a"><stop offset="0" style="stop-color:#000;stop-opacity:1"/></linearGradient><linearGradient xlink:href="#a" id="b" x1="62.142" x2="75.107" y1="77.438" y2="77.438" gradientTransform="translate(-52.875 -59.25)" gradientUnits="userSpaceOnUse"/><linearGradient xlink:href="#a" id="c" x1="62.142" x2="75.107" y1="77.438" y2="77.438" gradientTransform="translate(-32.845 -58.935)" gradientUnits="userSpaceOnUse"/><linearGradient xlink:href="#a" id="d" x1="62.142" x2="75.107" y1="77.438" y2="77.438" gradientTransform="translate(-12.97 -58.935)" gradientUnits="userSpaceOnUse"/></defs><path d="M52.875 75h18v17.625h-18z" style="fill:none;stroke-width:.264583"/><ellipse cx="15.75" cy="18.188" rx="6.061" ry="6.248" style="fill:url(#b);fill-opacity:1;stroke:#000;stroke-width:.843454"/><ellipse cx="15.562" cy="18.375" fill="none" rx="6.061" ry="6.248" style="fill:#000;fill-opacity:0;stroke:#000;stroke-width:.843454"/><ellipse cx="16.455" cy="17.67" fill="none" rx="9.037" ry="9.223" style="fill:#000;fill-opacity:0;stroke:#000;stroke-width:.811404;stroke-dasharray:none" transform="matrix(.99904 .0437 -.03904 .99924 0 0)"/><path d="M72.905 75.315h18V92.94h-18z" style="fill:none;stroke-width:.264583"/><ellipse cx="35.78" cy="18.502" rx="6.061" ry="6.248" style="fill:url(#c);fill-opacity:1;stroke:#000;stroke-width:.843454"/><ellipse cx="35.592" cy="18.69" fill="none" rx="6.061" ry="6.248" style="fill:#000;fill-opacity:0;stroke:#000;stroke-width:.843454"/><ellipse cx="36.482" cy="17.109" fill="none" rx="9.037" ry="9.223" style="fill:#000;fill-opacity:0;stroke:#000;stroke-width:.811404;stroke-dasharray:none" transform="matrix(.99904 .0437 -.03904 .99924 0 0)"/><path d="M92.78 75.315h18V92.94h-18z" style="fill:none;stroke-width:.264583"/><ellipse cx="55.655" cy="18.502" rx="6.061" ry="6.248" style="fill:url(#d);fill-opacity:1;stroke:#000;stroke-width:.843454"/><ellipse cx="55.467" cy="18.69" fill="none" rx="6.061" ry="6.248" style="fill:#000;fill-opacity:0;stroke:#000;stroke-width:.843454"/><ellipse cx="56.342" cy="16.24" fill="none" rx="9.037" ry="9.223" style="fill:#000;fill-opacity:0;stroke:#000;stroke-width:.811404;stroke-dasharray:none" transform="matrix(.99904 .0437 -.03904 .99924 0 0)"/></svg>