<svg xmlns="http://www.w3.org/2000/svg" width="71mm" height="36mm" viewBox="0 0 71 36"><path d="M52.875 75h18v17.625h-18z" style="fill:none;stroke-width:.264583"/><ellipse cx="18" cy="18.75" fill="none" rx="6.061" ry="6.248" style="fill:#000;fill-opacity:0;stroke:#000;stroke-width:.843454"/><path fill="none" d="M15.901 12.363c-.367 12.76 0 12.395 0 12.395" style="fill:#000;fill-opacity:0;stroke:#000;stroke-width:.940626"/><path fill="none" d="M20.115 13.293c-.394 11.584 0 11.253 0 11.253" style="fill:#000;fill-opacity:0;stroke:#000;stroke-width:.930304"/><path fill="none" d="M12.57 16.133c10.203-.41 10.494 0 10.494 0" style="fill:#000;fill-opacity:0;stroke:#000;stroke-width:.88869"/><path fill="none" d="M12.395 20.339c10.933-.4 11.245 0 11.245 0" style="fill:#000;fill-opacity:0;stroke:#000;stroke-width:.909084"/><path d="M40.579 70.929h18v17.625h-18z" style="fill:none;stroke-width:.264583"/><ellipse cx="17.704" cy="18.616" fill="none" rx="6.061" ry="6.248" style="fill:#000;fill-opacity:0;stroke:#000;stroke-width:.843454"/><path fill="none" d="M22.204 13.929c3.75-3.75 3.375-3.75 3.375-3.75M9.187 27.124c3.75-3.75 3.375-3.75 3.375-3.75m.267-9.445c-3-3-3.75-3-3.75-3" style="fill:#000;fill-opacity:0;stroke:#000;stroke-width:.964999"/><path fill="none" d="M26.137 26.695c-3.237-3.613-4.046-3.613-4.046-3.613" style="fill:#000;fill-opacity:0;stroke:#000;stroke-width:1.09998"/><ellipse cx="36.375" cy="18.375" fill="none" rx="6.061" ry="6.248" style="fill:#000;fill-opacity:0;stroke:#000;stroke-width:.843454"/><path fill="none" d="M34.275 11.988c-.366 12.76 0 12.395 0 12.395" style="fill:#000;fill-opacity:0;stroke:#000;stroke-width:.940626"/><path fill="none" d="M38.49 12.918c-.394 11.584 0 11.253 0 11.253" style="fill:#000;fill-opacity:0;stroke:#000;stroke-width:.930304"/><path fill="none" d="M30.945 15.758c10.203-.41 10.494 0 10.494 0" style="fill:#000;fill-opacity:0;stroke:#000;stroke-width:.88869"/><path fill="none" d="M30.77 19.964c10.933-.4 11.245 0 11.245 0" style="fill:#000;fill-opacity:0;stroke:#000;stroke-width:.909084"/><path d="M58.579 70.179h18v17.625h-18z" style="fill:none;stroke-width:.264583"/><ellipse cx="36.079" cy="18.241" fill="none" rx="6.061" ry="6.248" style="fill:#000;fill-opacity:0;stroke:#000;stroke-width:.843454"/><path fill="none" d="M40.579 13.554c3.75-3.75 3.375-3.75 3.375-3.75M27.562 26.75C31.312 23 30.937 23 30.937 23m.267-9.446c-3-3-3.75-3-3.75-3" style="fill:#000;fill-opacity:0;stroke:#000;stroke-width:.964999"/><path fill="none" d="M44.512 26.32c-3.237-3.613-4.046-3.613-4.046-3.613" style="fill:#000;fill-opacity:0;stroke:#000;stroke-width:1.09998"/><path d="M76.579 70.554h18v17.625h-18z" style="fill:none;stroke-width:.264583"/><ellipse cx="55.054" cy="18.169" fill="none" rx="6.061" ry="6.248" style="fill:#000;fill-opacity:0;stroke:#000;stroke-width:.843454"/><path fill="none" d="M52.955 11.782c-.367 12.76 0 12.395 0 12.395" style="fill:#000;fill-opacity:0;stroke:#000;stroke-width:.940626"/><path fill="none" d="M57.169 12.712c-.394 11.584 0 11.253 0 11.253" style="fill:#000;fill-opacity:0;stroke:#000;stroke-width:.930304"/><path fill="none" d="M49.624 15.552c10.203-.41 10.494 0 10.494 0" style="fill:#000;fill-opacity:0;stroke:#000;stroke-width:.88869"/><path fill="none" d="M49.449 19.758c10.933-.4 11.245 0 11.245 0" style="fill:#000;fill-opacity:0;stroke:#000;stroke-width:.909084"/><ellipse cx="54.758" cy="18.035" fill="none" rx="6.061" ry="6.248" style="fill:#000;fill-opacity:0;stroke:#000;stroke-width:.843454"/><path fill="none" d="M59.258 13.348c3.75-3.75 3.375-3.75 3.375-3.75M46.241 26.543c3.75-3.75 3.375-3.75 3.375-3.75m.267-9.445c-3-3-3.75-3-3.75-3" style="fill:#000;fill-opacity:0;stroke:#000;stroke-width:.964999"/><path fill="none" d="M63.191 26.114c-3.237-3.613-4.046-3.613-4.046-3.613" style="fill:#000;fill-opacity:0;stroke:#000;stroke-width:1.09998"/></svg>