<svg xmlns="http://www.w3.org/2000/svg" width="71mm" height="36mm" viewBox="0 0 71 36"><path d="M52.875 75h18v17.625h-18z" style="fill:none;stroke-width:.264583"/><ellipse cx="15.375" cy="18.75" fill="none" rx="6.061" ry="6.248" style="fill:#000;fill-opacity:0;stroke:#000;stroke-width:.843454"/><path fill="none" d="M13.276 12.363c-.367 12.76 0 12.395 0 12.395" style="fill:#000;fill-opacity:0;stroke:#000;stroke-width:.940626"/><path fill="none" d="M17.49 13.293c-.394 11.584 0 11.253 0 11.253" style="fill:#000;fill-opacity:0;stroke:#000;stroke-width:.930304"/><path fill="none" d="M9.945 16.133c10.203-.41 10.494 0 10.494 0" style="fill:#000;fill-opacity:0;stroke:#000;stroke-width:.88869"/><path fill="none" d="M9.77 20.339c10.933-.4 11.245 0 11.245 0" style="fill:#000;fill-opacity:0;stroke:#000;stroke-width:.909084"/><path d="M40.28 70.44h18v17.625h-18z" style="fill:none;stroke-width:.264583"/><ellipse cx="16.248" cy="17.994" fill="none" rx="9.037" ry="9.223" style="fill:#000;fill-opacity:0;stroke:#000;stroke-width:.811404;stroke-dasharray:none" transform="matrix(.99904 .0437 -.03904 .99924 0 0)"/><ellipse cx="35.47" cy="19.185" fill="none" rx="6.061" ry="6.248" style="fill:#000;fill-opacity:0;stroke:#000;stroke-width:.843454"/><path fill="none" d="M33.371 12.798c-.366 12.76 0 12.395 0 12.395" style="fill:#000;fill-opacity:0;stroke:#000;stroke-width:.940626"/><path fill="none" d="M37.586 13.728c-.395 11.584 0 11.253 0 11.253" style="fill:#000;fill-opacity:0;stroke:#000;stroke-width:.930304"/><path fill="none" d="M30.04 16.568c10.203-.41 10.495 0 10.495 0" style="fill:#000;fill-opacity:0;stroke:#000;stroke-width:.88869"/><path fill="none" d="M29.866 20.774c10.932-.4 11.245 0 11.245 0" style="fill:#000;fill-opacity:0;stroke:#000;stroke-width:.909084"/><ellipse cx="36.345" cy="17.55" fill="none" rx="9.037" ry="9.223" style="fill:#000;fill-opacity:0;stroke:#000;stroke-width:.811404;stroke-dasharray:none" transform="matrix(.99904 .0437 -.03904 .99924 0 0)"/><ellipse cx="55.72" cy="19.185" fill="none" rx="6.061" ry="6.248" style="fill:#000;fill-opacity:0;stroke:#000;stroke-width:.843454"/><path fill="none" d="M53.621 12.798c-.366 12.76 0 12.395 0 12.395" style="fill:#000;fill-opacity:0;stroke:#000;stroke-width:.940626"/><path fill="none" d="M57.836 13.728c-.395 11.584 0 11.253 0 11.253" style="fill:#000;fill-opacity:0;stroke:#000;stroke-width:.930304"/><path fill="none" d="M50.29 16.568c10.203-.41 10.495 0 10.495 0" style="fill:#000;fill-opacity:0;stroke:#000;stroke-width:.88869"/><path fill="none" d="M50.116 20.774c10.932-.4 11.245 0 11.245 0" style="fill:#000;fill-opacity:0;stroke:#000;stroke-width:.909084"/><ellipse cx="56.58" cy="16.665" fill="none" rx="9.037" ry="9.223" style="fill:#000;fill-opacity:0;stroke:#000;stroke-width:.811404;stroke-dasharray:none" transform="matrix(.99904 .0437 -.03904 .99924 0 0)"/></svg>