<svg xmlns="http://www.w3.org/2000/svg" width="71mm" height="36mm" viewBox="0 0 71 36"><path d="M52.875 75h18v17.625h-18z" style="fill:none;stroke-width:.264583"/><path fill="none" d="m18.968 25.882-6.38-.145-6.381.088 3.316-5.452 3.114-5.57 3.064 5.597zM12.604 14.48c0-4.773.265-4.773.265-4.773" style="fill:#000;fill-opacity:0;stroke:#000;stroke-width:.843"/><path fill="none" d="M6.563 25.407 1.826 28.41" style="fill:#000;fill-opacity:0;stroke:#000;stroke-width:.883;stroke-dasharray:none"/><path fill="none" d="M18.442 25.604c4.035 2.407 4.51 3.209 4.51 3.209" style="fill:#000;fill-opacity:0;stroke:#000;stroke-width:.800917"/><path fill="none" d="m41.933 25.719-6.38-.145-6.381.088 3.316-5.452 3.114-5.57 3.064 5.597zM35.569 14.317c0-4.773.265-4.773.265-4.773" style="fill:#000;fill-opacity:0;stroke:#000;stroke-width:.843"/><path fill="none" d="m29.528 25.243-4.737 3.004" style="fill:#000;fill-opacity:0;stroke:#000;stroke-width:.883;stroke-dasharray:none"/><path fill="none" d="M41.407 25.44c4.035 2.407 4.51 3.21 4.51 3.21" style="fill:#000;fill-opacity:0;stroke:#000;stroke-width:.800917"/><path fill="none" d="m65.268 25.984-6.38-.145-6.381.088 3.316-5.452 3.114-5.57 3.064 5.597zM58.903 14.582c0-4.773.266-4.773.266-4.773" style="fill:#000;fill-opacity:0;stroke:#000;stroke-width:.843"/><path fill="none" d="m52.863 25.508-4.737 3.004" style="fill:#000;fill-opacity:0;stroke:#000;stroke-width:.883;stroke-dasharray:none"/><path fill="none" d="M64.741 25.706c4.035 2.407 4.51 3.209 4.51 3.209" style="fill:#000;fill-opacity:0;stroke:#000;stroke-width:.800917"/></svg>