<svg xmlns="http://www.w3.org/2000/svg" width="71mm" height="36mm" viewBox="0 0 71 36"><path d="M52.875 75h18v17.625h-18z" style="fill:none;stroke-width:.264583"/><path fill="none" d="m21.593 25.507-6.38-.145-6.381.088 3.316-5.452 3.114-5.57 3.064 5.597z" style="fill:#000;fill-opacity:0;stroke:#000;stroke-width:.843"/><path fill="none" d="m15.228 11.45 4.338 7.84 4.621 7.677-8.959-.164-8.959.164 4.622-7.676zM42.541 25.394l-6.38-.145-6.381.088 3.316-5.452 3.114-5.57 3.064 5.597z" style="fill:#000;fill-opacity:0;stroke:#000;stroke-width:.843"/><path fill="none" d="m36.177 11.337 4.338 7.84 4.621 7.677-8.959-.164-8.959.164 4.622-7.676zM63.223 25.394l-6.38-.145-6.381.088 3.316-5.452 3.114-5.57 3.064 5.597z" style="fill:#000;fill-opacity:0;stroke:#000;stroke-width:.843"/><path fill="none" d="m56.859 11.337 4.338 7.84 4.621 7.677-8.959-.164-8.959.164 4.622-7.676z" style="fill:#000;fill-opacity:0;stroke:#000;stroke-width:.843"/></svg>