<svg xmlns="http://www.w3.org/2000/svg" xmlns:xlink="http://www.w3.org/1999/xlink" width="71mm" height="36mm" viewBox="0 0 71 36"><defs><linearGradient id="a"><stop offset="0" style="stop-color:#000;stop-opacity:1"/></linearGradient><linearGradient xlink:href="#a" id="b" x1="23.076" x2="37.345" y1="62.126" y2="62.126" gradientTransform="translate(-18.375 -41.625)" gradientUnits="userSpaceOnUse"/><linearGradient xlink:href="#a" id="c" x1="23.076" x2="37.345" y1="62.126" y2="62.126" gradientTransform="translate(5.385 -41.523)" gradientUnits="userSpaceOnUse"/><linearGradient xlink:href="#a" id="d" x1="23.076" x2="37.345" y1="62.126" y2="62.126" gradientTransform="translate(29.25 -41.523)" gradientUnits="userSpaceOnUse"/></defs><path d="M52.875 75h18v17.625h-18z" style="fill:none;stroke-width:.264583"/><path d="m18.218 26.257-6.38-.145-6.381.088 3.316-5.452 3.114-5.57 3.064 5.597z" style="fill:url(#b);fill-opacity:1;stroke:#000;stroke-width:.843"/><path fill="none" d="M11.854 14.855c0-4.773.265-4.773.265-4.773" style="fill:#000;fill-opacity:0;stroke:#000;stroke-width:.843"/><path fill="none" d="m5.813 25.782-4.737 3.003" style="fill:#000;fill-opacity:0;stroke:#000;stroke-width:.883;stroke-dasharray:none"/><path fill="none" d="M17.692 25.979c4.035 2.407 4.51 3.209 4.51 3.209" style="fill:#000;fill-opacity:0;stroke:#000;stroke-width:.800917"/><path d="m41.978 26.359-6.38-.145-6.381.088 3.316-5.452 3.114-5.57 3.064 5.597z" style="fill:url(#c);fill-opacity:1;stroke:#000;stroke-width:.843"/><path fill="none" d="M35.615 14.957c0-4.773.264-4.773.264-4.773" style="fill:#000;fill-opacity:0;stroke:#000;stroke-width:.843"/><path fill="none" d="m29.574 25.883-4.737 3.004" style="fill:#000;fill-opacity:0;stroke:#000;stroke-width:.883;stroke-dasharray:none"/><path fill="none" d="M41.452 26.081c4.035 2.407 4.51 3.209 4.51 3.209" style="fill:#000;fill-opacity:0;stroke:#000;stroke-width:.800917"/><path d="m65.843 26.359-6.38-.145-6.381.088 3.316-5.452 3.114-5.57 3.064 5.597z" style="fill:url(#d);fill-opacity:1;stroke:#000;stroke-width:.843"/><path fill="none" d="M59.479 14.957c0-4.773.265-4.773.265-4.773" style="fill:#000;fill-opacity:0;stroke:#000;stroke-width:.843"/><path fill="none" d="m53.439 25.883-4.737 3.004" style="fill:#000;fill-opacity:0;stroke:#000;stroke-width:.883;stroke-dasharray:none"/><path fill="none" d="M65.317 26.081c4.035 2.407 4.51 3.209 4.51 3.209" style="fill:#000;fill-opacity:0;stroke:#000;stroke-width:.800917"/></svg>