<svg xmlns="http://www.w3.org/2000/svg" xmlns:xlink="http://www.w3.org/1999/xlink" width="71mm" height="36mm" viewBox="0 0 71 36"><defs><linearGradient id="a"><stop offset="0" style="stop-color:#000;stop-opacity:1"/></linearGradient><linearGradient xlink:href="#a" id="b" x1="23.076" x2="37.345" y1="62.126" y2="62.126" gradientTransform="translate(-15.375 -42.375)" gradientUnits="userSpaceOnUse"/><linearGradient xlink:href="#a" id="c" x1="23.076" x2="37.345" y1="62.126" y2="62.126" gradientTransform="translate(5.043 -42.488)" gradientUnits="userSpaceOnUse"/><linearGradient xlink:href="#a" id="d" x1="23.076" x2="37.345" y1="62.126" y2="62.126" gradientTransform="translate(25.46 -42.488)" gradientUnits="userSpaceOnUse"/></defs><path d="M52.875 75h18v17.625h-18z" style="fill:none;stroke-width:.264583"/><path d="m21.218 25.507-6.38-.145-6.381.088 3.316-5.452 3.114-5.57 3.064 5.597z" style="fill:url(#b);fill-opacity:1;stroke:#000;stroke-width:.843"/><path fill="none" d="m14.853 11.45 4.338 7.84 4.621 7.677-8.959-.164-8.959.164 4.622-7.676z" style="fill:#000;fill-opacity:0;stroke:#000;stroke-width:.843"/><path d="m41.636 25.394-6.38-.145-6.381.088 3.316-5.452 3.114-5.57 3.064 5.597z" style="fill:url(#c);fill-opacity:1;stroke:#000;stroke-width:.843"/><path fill="none" d="m35.271 11.337 4.338 7.84 4.621 7.677-8.959-.164-8.959.164 4.622-7.676z" style="fill:#000;fill-opacity:0;stroke:#000;stroke-width:.843"/><path d="m62.053 25.394-6.38-.145-6.381.088 3.316-5.452 3.114-5.57 3.064 5.597z" style="fill:url(#d);fill-opacity:1;stroke:#000;stroke-width:.843"/><path fill="none" d="m55.688 11.337 4.338 7.84 4.621 7.677-8.959-.164-8.959.164 4.622-7.676z" style="fill:#000;fill-opacity:0;stroke:#000;stroke-width:.843"/></svg>