<svg xmlns="http://www.w3.org/2000/svg" width="71mm" height="36mm" viewBox="0 0 71 36"><path d="M52.875 75h18v17.625h-18z" style="fill:none;stroke-width:.264583"/><path fill="none" d="m26.843 25.132-6.38-.145-6.381.088 3.316-5.452 3.114-5.57 3.064 5.597z" style="fill:#000;fill-opacity:0;stroke:#000;stroke-width:.843"/><path d="M25.137 57.817h18v17.625h-18z" style="fill:none;stroke-width:.264583"/><path fill="none" d="M18.568 18.796c-.492 6.34 0 6.16 0 6.16" style="fill:#000;fill-opacity:0;stroke:#000;stroke-width:.76885"/><path fill="none" d="M22.616 17.906c-.466 7.423 0 7.21 0 7.21" style="fill:#000;fill-opacity:0;stroke:#000;stroke-width:.809004"/><path fill="none" d="M17.557 18.731c4.891-.518 5.031 0 5.031 0" style="fill:#000;fill-opacity:0;stroke:#000;stroke-width:.692843"/><path fill="none" d="M16.384 22.043c8.507-.413 8.75 0 8.75 0" style="fill:#000;fill-opacity:0;stroke:#000;stroke-width:.815745"/><path fill="none" d="m42.506 25.054-6.38-.145-6.381.088 3.316-5.452 3.114-5.57 3.064 5.597z" style="fill:#000;fill-opacity:0;stroke:#000;stroke-width:.843"/><path fill="none" d="M34.232 18.719c-.493 6.34 0 6.158 0 6.158" style="fill:#000;fill-opacity:0;stroke:#000;stroke-width:.76885"/><path fill="none" d="M38.279 17.828c-.466 7.423 0 7.211 0 7.211" style="fill:#000;fill-opacity:0;stroke:#000;stroke-width:.809004"/><path fill="none" d="M33.22 18.653c4.892-.518 5.031 0 5.031 0" style="fill:#000;fill-opacity:0;stroke:#000;stroke-width:.692843"/><path fill="none" d="M32.047 21.965c8.507-.413 8.75 0 8.75 0" style="fill:#000;fill-opacity:0;stroke:#000;stroke-width:.815745"/><path fill="none" d="m57.886 25.054-6.38-.145-6.381.088 3.316-5.452 3.114-5.57 3.064 5.597z" style="fill:#000;fill-opacity:0;stroke:#000;stroke-width:.843"/><path fill="none" d="M49.611 18.719c-.493 6.34 0 6.158 0 6.158" style="fill:#000;fill-opacity:0;stroke:#000;stroke-width:.76885"/><path fill="none" d="M53.658 17.828c-.466 7.423 0 7.211 0 7.211" style="fill:#000;fill-opacity:0;stroke:#000;stroke-width:.809004"/><path fill="none" d="M48.6 18.653c4.891-.518 5.03 0 5.03 0" style="fill:#000;fill-opacity:0;stroke:#000;stroke-width:.692843"/><path fill="none" d="M47.427 21.965c8.506-.413 8.75 0 8.75 0" style="fill:#000;fill-opacity:0;stroke:#000;stroke-width:.815745"/></svg>