<svg xmlns="http://www.w3.org/2000/svg" xmlns:xlink="http://www.w3.org/1999/xlink" width="30mm" height="95mm" viewBox="0 0 30 95"><defs><linearGradient id="a"><stop offset="0" style="stop-color:#b1d9b1;stop-opacity:1"/></linearGradient><linearGradient xlink:href="#a" id="b" x1="66.683" x2="90.066" y1="94.125" y2="94.125" gradientTransform="matrix(.8721 0 0 .65408 -52.532 -30.868)" gradientUnits="userSpaceOnUse"/></defs><path d="M19.684 60.367c3.24 7.739 3.698 28.926 3.726 27.34v.403" style="fill:#fff;fill-opacity:1;stroke:#278227;stroke-width:1.35613;stroke-dasharray:none;stroke-opacity:1"/><path d="M12.444 60.322c-5.093 7.5-2.277 30.721-2.625 30.375v.375" style="fill:#fff;fill-opacity:1;stroke:#278227;stroke-width:1.314;stroke-dasharray:none;stroke-opacity:1"/><path fill="none" d="M19.414 21.65c-2.127-36.683-4.833-11.128-4.833-11.128" style="fill:#fff;fill-opacity:0;stroke:#278227;stroke-width:1.593;stroke-dasharray:none;stroke-opacity:1"/><path d="M23.192 45.406c3.991 1.802 3.06 12.166 3.06 12.166" style="fill:#fff;fill-opacity:1;stroke:#278227;stroke-width:1.06465;stroke-dasharray:none;stroke-opacity:1"/><path d="M8.628 46.1c-3.98 4.47-2.796 12.937-2.796 12.937" style="fill:#fff;fill-opacity:1;stroke:#278227;stroke-width:1.16934;stroke-dasharray:none;stroke-opacity:1"/><ellipse cx="16.006" cy="49.822" rx="8.098" ry="12.036" style="fill:#b1d9b1;fill-opacity:1;stroke:#278227;stroke-width:.31692;stroke-dasharray:none;stroke-opacity:1"/><circle cx="15.819" cy="30.697" r="9.811" style="mix-blend-mode:normal;fill:url(#b);fill-opacity:1;stroke:#278227;stroke-width:.377633;stroke-dasharray:none;stroke-opacity:1"/><ellipse cx="12.334" cy="28.794" rx="2.521" ry="2.311" style="fill:#000;fill-opacity:1;stroke:#000;stroke-width:.636481;stroke-dasharray:none;stroke-opacity:1"/><ellipse cx="19.184" cy="28.794" rx="2.511" ry="2.311" style="fill:#000;fill-opacity:1;stroke:#000;stroke-width:.63534;stroke-dasharray:none;stroke-opacity:1"/><ellipse cx="-114.188" cy="10.875" rx="1.313" ry=".75" style="fill:#fff;fill-opacity:1;stroke:#000;stroke-width:.383;stroke-dasharray:none;stroke-opacity:1"/><path fill="none" d="M11.451 21.947C7.326-11.428 2.076 11.822 2.076 11.822" style="opacity:1;fill:#fff;fill-opacity:0;fill-rule:nonzero;stroke:#278227;stroke-width:1.593;stroke-dasharray:none;stroke-opacity:1"/><ellipse cx="2.451" cy="11.822" rx="1.125" ry="1.875" style="fill:#278227;fill-opacity:1;stroke:#278227;stroke-width:.383;stroke-dasharray:none;stroke-opacity:1"/><ellipse cx="14.936" cy="10.3" rx="1.125" ry="1.875" style="fill:#278227;fill-opacity:1;stroke:#278227;stroke-width:.383;stroke-dasharray:none;stroke-opacity:1"/><ellipse cx="-15.423" cy="90.075" rx="3" ry="1.5" style="fill:#278227;fill-opacity:1;stroke:#278227;stroke-width:1.314;stroke-dasharray:none;stroke-opacity:1" transform="rotate(-14.467)"/><ellipse cx="-90.401" cy="-24.684" rx="3" ry="1.5" style="fill:#278227;fill-opacity:1;stroke:#278227;stroke-width:1.314;stroke-dasharray:none;stroke-opacity:1" transform="rotate(-120.689)"/><ellipse cx="35.618" cy="53.576" rx="1.125" ry="1.875" style="fill:#278227;fill-opacity:1;stroke:#278227;stroke-width:.383;stroke-dasharray:none;stroke-opacity:1" transform="rotate(9.838)"/><ellipse cx="-24.752" cy="-55.001" rx="1.125" ry="1.875" style="fill:#278227;fill-opacity:1;stroke:#278227;stroke-width:.383;stroke-dasharray:none;stroke-opacity:1" transform="rotate(-160.841)"/><ellipse cx="20.374" cy="28.099" rx=".679" ry=".867" style="fill:#fff;fill-opacity:1;stroke:#000;stroke-width:.0661126;stroke-dasharray:none;stroke-opacity:1"/><ellipse cx="13.482" cy="28.231" rx=".679" ry=".867" style="fill:#fff;fill-opacity:1;stroke:#000;stroke-width:.0661126;stroke-dasharray:none;stroke-opacity:1"/><path d="M12.5 33.59c4.422 6.453 6.265-.645 6.265-.645" style="fill:#b1d9b1;fill-opacity:1;stroke:#278227;stroke-width:.650206;stroke-dasharray:none;stroke-opacity:1"/></svg>