<?xml version="1.0" encoding="UTF-8" standalone="no"?>
<!-- Created with Inkscape (http://www.inkscape.org/) -->

<svg
   width="210mm"
   height="297mm"
   viewBox="0 0 210 297"
   version="1.1"
   id="svg5"
   inkscape:version="1.2.2 (b0a84865, 2022-12-01)"
   sodipodi:docname="2112.svg"
   xmlns:inkscape="http://www.inkscape.org/namespaces/inkscape"
   xmlns:sodipodi="http://sodipodi.sourceforge.net/DTD/sodipodi-0.dtd"
   xmlns="http://www.w3.org/2000/svg"
   xmlns:svg="http://www.w3.org/2000/svg">
  <sodipodi:namedview
     id="namedview7"
     pagecolor="#ffffff"
     bordercolor="#000000"
     borderopacity="0.25"
     inkscape:showpageshadow="2"
     inkscape:pageopacity="0.0"
     inkscape:pagecheckerboard="0"
     inkscape:deskcolor="#d1d1d1"
     inkscape:document-units="mm"
     showgrid="false"
     inkscape:zoom="0.70555556"
     inkscape:cx="-56.692913"
     inkscape:cy="518.74015"
     inkscape:window-width="1390"
     inkscape:window-height="942"
     inkscape:window-x="167"
     inkscape:window-y="25"
     inkscape:window-maximized="0"
     inkscape:current-layer="layer1" />
  <defs
     id="defs2">
    <inkscape:perspective
       sodipodi:type="inkscape:persp3d"
       inkscape:vp_x="0 : 148.5 : 1"
       inkscape:vp_y="0 : 1000 : 0"
       inkscape:vp_z="210 : 148.5 : 1"
       inkscape:persp3d-origin="105 : 99 : 1"
       id="perspective11044" />
    <linearGradient
       id="linearGradient801"
       inkscape:swatch="solid">
      <stop
         style="stop-color:#000000;stop-opacity:1;"
         offset="0"
         id="stop799" />
    </linearGradient>
    <linearGradient
       id="linearGradient795"
       inkscape:swatch="solid">
      <stop
         style="stop-color:#000000;stop-opacity:1;"
         offset="0"
         id="stop793" />
    </linearGradient>
  </defs>
  <g
     inkscape:label="Layer 1"
     inkscape:groupmode="layer"
     id="layer1">
    <rect
       style="fill:none;stroke-width:0.264583"
       id="rect111"
       width="18"
       height="17.625"
       x="52.874996"
       y="75" />
    <rect
       style="fill:none;stroke-width:0.965;stroke:#000000;stroke-opacity:1;stroke-dasharray:none"
       id="rect113"
       width="12.75"
       height="13.125"
       x="51.375"
       y="71.624992" />
    <path
       style="fill:#000000;fill-opacity:0;stroke:#000000;stroke-width:0.964999"
       d="m 50.999999,71.249998 -3,-2.625 v -0.375"
       id="path10460" />
    <path
       style="fill:#000000;fill-opacity:0;stroke:#000000;stroke-width:0.964999"
       d="m 67.582385,87.568441 -3,-2.625 v -0.375"
       id="path10460-9" />
    <path
       style="fill:#000000;fill-opacity:0;stroke:#000000;stroke-width:0.783033;stroke-dasharray:none"
       d="m 64.544281,71.313947 3.457118,-3.198242 v -0.456893"
       id="path10460-1"
       inkscape:transform-center-x="-4.2264592"
       inkscape:transform-center-y="-4.790127" />
    <path
       style="fill:#000000;fill-opacity:0;stroke:#000000;stroke-width:0.783033;stroke-dasharray:none"
       d="m 47.70862,87.933869 3.457118,-3.198242 v -0.456893"
       id="path10460-1-5"
       inkscape:transform-center-x="-4.2264592"
       inkscape:transform-center-y="-4.790127" />
    <rect
       style="fill:none;stroke-width:0.264583"
       id="rect111-5"
       width="18"
       height="17.625"
       x="75.466125"
       y="74.358093" />
    <rect
       style="fill:none;stroke:#000000;stroke-width:0.965;stroke-dasharray:none;stroke-opacity:1"
       id="rect113-5"
       width="12.75"
       height="13.125"
       x="73.966125"
       y="70.983093" />
    <path
       style="fill:#000000;fill-opacity:0;stroke:#000000;stroke-width:0.964999"
       d="m 73.591128,70.60809 -3,-2.625 v -0.375"
       id="path10460-5" />
    <path
       style="fill:#000000;fill-opacity:0;stroke:#000000;stroke-width:0.964999"
       d="m 90.173514,86.92653 -3,-2.625 v -0.375"
       id="path10460-9-8" />
    <path
       style="fill:#000000;fill-opacity:0;stroke:#000000;stroke-width:0.783033;stroke-dasharray:none"
       d="M 87.13541,70.67204 90.592528,67.4738 V 67.01691"
       id="path10460-1-2"
       inkscape:transform-center-x="-4.2264592"
       inkscape:transform-center-y="-4.790127" />
    <path
       style="fill:#000000;fill-opacity:0;stroke:#000000;stroke-width:0.783033;stroke-dasharray:none"
       d="m 70.299749,87.29196 3.457118,-3.19824 v -0.45689"
       id="path10460-1-5-9"
       inkscape:transform-center-x="-4.2264592"
       inkscape:transform-center-y="-4.790127" />
    <g
       sodipodi:type="inkscape:box3d"
       id="g11046"
       style="fill:#000000;fill-opacity:0;stroke:#000000;stroke-width:3.64724"
       inkscape:perspectiveID="#perspective11044"
       inkscape:corner0="2.2183909 : 0.15208623 : 0 : 1"
       inkscape:corner7="1.3333334 : 0.081000014 : 0.25 : 1">
      <path
         sodipodi:type="inkscape:box3dside"
         id="path11058"
         style="fill:#e9e9ff;fill-rule:evenodd;stroke:none;stroke-linejoin:round"
         inkscape:box3dsidetype="11"
         d="m 45.410108,118.92253 15.557634,-10.13332 v 27.51724 l -15.557634,3.11153 z"
         points="60.967742,108.78921 60.967742,136.30645 45.410108,139.41798 45.410108,118.92253 " />
      <path
         sodipodi:type="inkscape:box3dside"
         id="path11048"
         style="fill:#353564;fill-rule:evenodd;stroke:none;stroke-linejoin:round"
         inkscape:box3dsidetype="6"
         d="m 32.625,116.625 v 22.0875 l 12.785108,0.70548 v -20.49545 z"
         points="32.625,138.7125 45.410108,139.41798 45.410108,118.92253 32.625,116.625 " />
      <path
         sodipodi:type="inkscape:box3dside"
         id="path11050"
         style="fill:#4d4d9f;fill-rule:evenodd;stroke:none;stroke-linejoin:round"
         inkscape:box3dsidetype="5"
         d="M 32.625,116.625 45,104.53448 l 15.967742,4.25473 -15.557634,10.13332 z"
         points="45,104.53448 60.967742,108.78921 45.410108,118.92253 32.625,116.625 " />
      <path
         sodipodi:type="inkscape:box3dside"
         id="path11056"
         style="fill:#afafde;fill-rule:evenodd;stroke:none;stroke-linejoin:round"
         inkscape:box3dsidetype="13"
         d="M 32.625,138.7125 45,135 l 15.967742,1.30645 -15.557634,3.11153 z"
         points="45,135 60.967742,136.30645 45.410108,139.41798 32.625,138.7125 " />
      <path
         sodipodi:type="inkscape:box3dside"
         id="path11054"
         style="fill:#d7d7ff;fill-rule:evenodd;stroke:none;stroke-linejoin:round"
         inkscape:box3dsidetype="14"
         d="M 45,104.53448 V 135 l 15.967742,1.30645 v -27.51724 z"
         points="45,135 60.967742,136.30645 60.967742,108.78921 45,104.53448 " />
      <path
         sodipodi:type="inkscape:box3dside"
         id="path11052"
         style="fill:#8686bf;fill-rule:evenodd;stroke:none;stroke-linejoin:round"
         inkscape:box3dsidetype="3"
         d="M 32.625,116.625 45,104.53448 V 135 l -12.375,3.7125 z"
         points="45,104.53448 45,135 32.625,138.7125 32.625,116.625 " />
    </g>
    <g
       sodipodi:type="inkscape:box3d"
       id="g11060"
       style="fill:#000000;fill-opacity:0;stroke:#000000;stroke-width:3.64724"
       inkscape:perspectiveID="#perspective11044"
       inkscape:corner0="2.2183909 : 0.11587933 : 0 : 1"
       inkscape:corner7="1.0000001 : 0.031500009 : 0.25 : 1">
      <path
         sodipodi:type="inkscape:box3dside"
         id="path11072"
         style="fill:#e9e9ff;fill-rule:evenodd;stroke:none;stroke-linejoin:round"
         inkscape:box3dsidetype="11"
         d="M 45.410108,129.36164 70,118.99808 V 156.5 l -24.589892,-2.81027 z"
         points="70,118.99808 70,156.5 45.410108,153.68973 45.410108,129.36164 " />
      <path
         sodipodi:type="inkscape:box3dside"
         id="path11062"
         style="fill:#353564;fill-rule:evenodd;stroke:none;stroke-linejoin:round"
         inkscape:box3dsidetype="6"
         d="m 32.625,127.875 v 26.21786 l 12.785108,-0.40313 v -24.32809 z"
         points="32.625,154.09286 45.410108,153.68973 45.410108,129.36164 32.625,127.875 " />
      <path
         sodipodi:type="inkscape:box3dside"
         id="path11070"
         style="fill:#afafde;fill-rule:evenodd;stroke:none;stroke-linejoin:round"
         inkscape:box3dsidetype="13"
         d="M 32.625,154.09286 52.5,157.5 70,156.5 45.410108,153.68973 Z"
         points="52.5,157.5 70,156.5 45.410108,153.68973 32.625,154.09286 " />
      <path
         sodipodi:type="inkscape:box3dside"
         id="path11064"
         style="fill:#4d4d9f;fill-rule:evenodd;stroke:none;stroke-linejoin:round"
         inkscape:box3dsidetype="5"
         d="M 32.625,127.875 52.5,115.31034 70,118.99808 45.410108,129.36164 Z"
         points="52.5,115.31034 70,118.99808 45.410108,129.36164 32.625,127.875 " />
      <path
         sodipodi:type="inkscape:box3dside"
         id="path11068"
         style="fill:#d7d7ff;fill-rule:evenodd;stroke:none;stroke-linejoin:round"
         inkscape:box3dsidetype="14"
         d="M 52.5,115.31034 V 157.5 l 17.5,-1 v -37.50192 z"
         points="52.5,157.5 70,156.5 70,118.99808 52.5,115.31034 " />
      <path
         sodipodi:type="inkscape:box3dside"
         id="path11066"
         style="fill:#8686bf;fill-rule:evenodd;stroke:none;stroke-linejoin:round"
         inkscape:box3dsidetype="3"
         d="M 32.625,127.875 52.5,115.31034 V 157.5 l -19.875,-3.40714 z"
         points="52.5,115.31034 52.5,157.5 32.625,154.09286 32.625,127.875 " />
    </g>
    <g
       sodipodi:type="inkscape:box3d"
       id="g11088"
       style="fill:#000000;fill-opacity:0;stroke:#000000;stroke-width:3.64724"
       inkscape:perspectiveID="#perspective11044"
       inkscape:corner0="0.40714287 : 0.11034643 : 0 : 0.59285713"
       inkscape:corner7="0.61849716 : 0.18241909 : 0.25 : 1">
      <path
         sodipodi:type="inkscape:box3dside"
         id="path11100"
         style="fill:#e9e9ff;fill-rule:evenodd;stroke:none;stroke-linejoin:round"
         inkscape:box3dsidetype="11"
         d="m 81.321929,77.955681 2.970414,-2.576745 v 1.984173 l -2.970414,2.506824 z"
         points="84.292343,75.378936 84.292343,77.363109 81.321929,79.869933 81.321929,77.955681 " />
      <path
         sodipodi:type="inkscape:box3dside"
         id="path11090"
         style="fill:#353564;fill-rule:evenodd;stroke:none;stroke-linejoin:round"
         inkscape:box3dsidetype="6"
         d="m 62.25,67.500004 v 2.197972 l 19.071929,10.171957 v -1.914252 z"
         points="62.25,69.697976 81.321929,79.869933 81.321929,77.955681 62.25,67.500004 " />
      <path
         sodipodi:type="inkscape:box3dside"
         id="path11092"
         style="fill:#4d4d9f;fill-rule:evenodd;stroke:none;stroke-linejoin:round"
         inkscape:box3dsidetype="5"
         d="m 62.25,67.500004 2.625,-3.415662 19.417343,11.294594 -2.970414,2.576745 z"
         points="64.875,64.084342 84.292343,75.378936 81.321929,77.955681 62.25,67.500004 " />
      <path
         sodipodi:type="inkscape:box3dside"
         id="path11098"
         style="fill:#afafde;fill-rule:evenodd;stroke:none;stroke-linejoin:round"
         inkscape:box3dsidetype="13"
         d="M 62.25,69.697976 64.875,66.375 84.292343,77.363109 81.321929,79.869933 Z"
         points="64.875,66.375 84.292343,77.363109 81.321929,79.869933 62.25,69.697976 " />
      <path
         sodipodi:type="inkscape:box3dside"
         id="path11096"
         style="fill:#d7d7ff;fill-rule:evenodd;stroke:none;stroke-linejoin:round"
         inkscape:box3dsidetype="14"
         d="M 64.875,64.084342 V 66.375 l 19.417343,10.988109 v -1.984173 z"
         points="64.875,66.375 84.292343,77.363109 84.292343,75.378936 64.875,64.084342 " />
      <path
         sodipodi:type="inkscape:box3dside"
         id="path11094"
         style="fill:#8686bf;fill-rule:evenodd;stroke:none;stroke-linejoin:round"
         inkscape:box3dsidetype="3"
         d="m 62.25,67.500004 2.625,-3.415662 V 66.375 l -2.625,3.322976 z"
         points="64.875,64.084342 64.875,66.375 62.25,69.697976 62.25,67.500004 " />
    </g>
  </g>
</svg>
