<?xml version="1.0" encoding="UTF-8" standalone="no"?>
<!-- Created with Inkscape (http://www.inkscape.org/) -->

<svg
   width="210mm"
   height="297mm"
   viewBox="0 0 210 297"
   version="1.1"
   id="svg5"
   inkscape:version="1.2.2 (b0a84865, 2022-12-01)"
   sodipodi:docname="2332.svg"
   xmlns:inkscape="http://www.inkscape.org/namespaces/inkscape"
   xmlns:sodipodi="http://sodipodi.sourceforge.net/DTD/sodipodi-0.dtd"
   xmlns="http://www.w3.org/2000/svg"
   xmlns:svg="http://www.w3.org/2000/svg">
  <sodipodi:namedview
     id="namedview7"
     pagecolor="#ffffff"
     bordercolor="#000000"
     borderopacity="0.25"
     inkscape:showpageshadow="2"
     inkscape:pageopacity="0.0"
     inkscape:pagecheckerboard="0"
     inkscape:deskcolor="#d1d1d1"
     inkscape:document-units="mm"
     showgrid="false"
     inkscape:zoom="0.99780624"
     inkscape:cx="184.40454"
     inkscape:cy="464.01794"
     inkscape:window-width="1390"
     inkscape:window-height="942"
     inkscape:window-x="412"
     inkscape:window-y="25"
     inkscape:window-maximized="0"
     inkscape:current-layer="layer1" />
  <defs
     id="defs2">
    <linearGradient
       id="linearGradient801"
       inkscape:swatch="solid">
      <stop
         style="stop-color:#000000;stop-opacity:1;"
         offset="0"
         id="stop799" />
    </linearGradient>
    <linearGradient
       id="linearGradient795"
       inkscape:swatch="solid">
      <stop
         style="stop-color:#000000;stop-opacity:1;"
         offset="0"
         id="stop793" />
    </linearGradient>
  </defs>
  <g
     inkscape:label="Layer 1"
     inkscape:groupmode="layer"
     id="layer1">
    <rect
       style="fill:none;stroke-width:0.264583"
       id="rect111"
       width="18"
       height="17.625"
       x="52.874996"
       y="75" />
    <path
       sodipodi:type="star"
       style="fill:#000000;fill-opacity:0;stroke:#000000;stroke-width:0.843"
       id="path544"
       inkscape:flatsided="false"
       sodipodi:sides="3"
       sodipodi:cx="30.228815"
       sodipodi:cy="64.169937"
       sodipodi:r1="7.3675809"
       sodipodi:r2="3.566931"
       sodipodi:arg1="0.52807445"
       sodipodi:arg2="1.575272"
       inkscape:rounded="-8.8999113e-09"
       inkscape:randomized="0"
       d="m 36.592776,67.882248 -6.379925,-0.145416 -6.380972,0.0883 3.315896,-5.45247 3.114015,-5.570234 3.064029,5.597885 z"
       inkscape:transform-center-x="0.016487767"
       inkscape:transform-center-y="-1.8275991" />
    <rect
       style="fill:none;stroke-width:0.264583"
       id="rect111-3"
       width="18"
       height="17.625"
       x="25.136877"
       y="57.816521" />
    <path
       style="fill:#000000;fill-opacity:0;stroke:#000000;stroke-width:0.76885"
       d="m 28.318434,61.546281 c -0.492803,6.339953 0,6.158812 0,6.158812"
       id="path9855" />
    <path
       style="fill:#000000;fill-opacity:0;stroke:#000000;stroke-width:0.809004"
       d="m 32.365605,60.655607 c -0.465991,7.42334 0,7.211244 0,7.211244"
       id="path9855-0" />
    <path
       style="fill:#000000;fill-opacity:0;stroke:#000000;stroke-width:0.692843"
       d="m 27.306808,61.481178 c 4.891619,-0.518674 5.031381,0 5.031381,0"
       id="path9991-3" />
    <path
       style="fill:#000000;fill-opacity:0;stroke:#000000;stroke-width:0.815745"
       d="m 26.133906,64.793143 c 8.506666,-0.413454 8.749716,0 8.749716,0"
       id="path9991-3-5" />
    <path
       style="fill:#000000;fill-opacity:0;stroke:#000000;stroke-width:0.843"
       d="m 30.124482,56.581983 c 0,-4.772972 0.265165,-4.772972 0.265165,-4.772972"
       id="path5712" />
    <path
       style="fill:#000000;fill-opacity:0;stroke:#000000;stroke-width:0.883;stroke-dasharray:none"
       d="m 24.084001,67.508373 c -4.737079,3.0035 -4.737079,3.0035 -4.737079,3.0035"
       id="path5736" />
    <path
       style="fill:#000000;fill-opacity:0;stroke:#000000;stroke-width:0.800917"
       d="m 35.962319,67.706033 c 4.03512,2.40651 4.509842,3.20868 4.509842,3.20868 v 0"
       id="path5738" />
    <path
       sodipodi:type="star"
       style="fill:#000000;fill-opacity:0;stroke:#000000;stroke-width:0.843"
       id="path544-9"
       inkscape:flatsided="false"
       sodipodi:sides="3"
       sodipodi:cx="30.228815"
       sodipodi:cy="64.169937"
       sodipodi:r1="7.3675809"
       sodipodi:r2="3.566931"
       sodipodi:arg1="0.52807445"
       sodipodi:arg2="1.575272"
       inkscape:rounded="-8.8999113e-09"
       inkscape:randomized="0"
       d="m 36.592776,67.882248 -6.379925,-0.145416 -6.380972,0.0883 3.315896,-5.45247 3.114015,-5.570234 3.064029,5.597885 z"
       inkscape:transform-center-x="0.016487767"
       inkscape:transform-center-y="-1.8275991"
       transform="translate(23.069358)" />
    <path
       style="fill:#000000;fill-opacity:0;stroke:#000000;stroke-width:0.76885"
       d="m 51.387792,61.546281 c -0.492803,6.339958 0,6.158808 0,6.158808"
       id="path9855-4" />
    <path
       style="fill:#000000;fill-opacity:0;stroke:#000000;stroke-width:0.809004"
       d="m 55.434963,60.655607 c -0.465991,7.423342 0,7.211242 0,7.211242"
       id="path9855-0-1" />
    <path
       style="fill:#000000;fill-opacity:0;stroke:#000000;stroke-width:0.692843"
       d="m 50.376166,61.481178 c 4.891619,-0.518674 5.031381,0 5.031381,0"
       id="path9991-3-6" />
    <path
       style="fill:#000000;fill-opacity:0;stroke:#000000;stroke-width:0.815745"
       d="m 49.203264,64.793139 c 8.506666,-0.41345 8.749716,0 8.749716,0"
       id="path9991-3-5-1" />
    <path
       style="fill:#000000;fill-opacity:0;stroke:#000000;stroke-width:0.843"
       d="m 53.19384,56.581983 c 0,-4.772972 0.265165,-4.772972 0.265165,-4.772972"
       id="path5712-2" />
    <path
       style="fill:#000000;fill-opacity:0;stroke:#000000;stroke-width:0.883;stroke-dasharray:none"
       d="m 47.153359,67.508369 c -4.737079,3.0035 -4.737079,3.0035 -4.737079,3.0035"
       id="path5736-0" />
    <path
       style="fill:#000000;fill-opacity:0;stroke:#000000;stroke-width:0.800917"
       d="m 59.031677,67.706029 c 4.03512,2.40651 4.509842,3.20868 4.509842,3.20868 v 0"
       id="path5738-4" />
    <path
       sodipodi:type="star"
       style="fill:#000000;fill-opacity:0;stroke:#000000;stroke-width:0.843"
       id="path544-7"
       inkscape:flatsided="false"
       sodipodi:sides="3"
       sodipodi:cx="30.228815"
       sodipodi:cy="64.169937"
       sodipodi:r1="7.3675809"
       sodipodi:r2="3.566931"
       sodipodi:arg1="0.52807445"
       sodipodi:arg2="1.575272"
       inkscape:rounded="-8.8999113e-09"
       inkscape:randomized="0"
       d="m 36.592776,67.882248 -6.379925,-0.145416 -6.380972,0.0883 3.315896,-5.45247 3.114015,-5.570234 3.064029,5.597885 z"
       inkscape:transform-center-x="0.016487767"
       inkscape:transform-center-y="-1.8275991"
       transform="translate(45.343222,61.253125)" />
    <path
       style="fill:#000000;fill-opacity:0;stroke:#000000;stroke-width:0.76885"
       d="m 73.661656,122.79941 c -0.492803,6.33995 0,6.15881 0,6.15881"
       id="path9855-5" />
    <path
       style="fill:#000000;fill-opacity:0;stroke:#000000;stroke-width:0.809004"
       d="m 77.708827,121.90873 c -0.465991,7.42334 0,7.21125 0,7.21125"
       id="path9855-0-3" />
    <path
       style="fill:#000000;fill-opacity:0;stroke:#000000;stroke-width:0.692843"
       d="m 72.65003,122.7343 c 4.891619,-0.51867 5.031381,0 5.031381,0"
       id="path9991-3-9" />
    <path
       style="fill:#000000;fill-opacity:0;stroke:#000000;stroke-width:0.815745"
       d="m 71.477128,126.04627 c 8.506666,-0.41346 8.749716,0 8.749716,0"
       id="path9991-3-5-0" />
    <path
       style="fill:#000000;fill-opacity:0;stroke:#000000;stroke-width:0.843"
       d="m 75.467704,117.83511 c 0,-4.77297 0.265165,-4.77297 0.265165,-4.77297"
       id="path5712-5" />
    <path
       style="fill:#000000;fill-opacity:0;stroke:#000000;stroke-width:0.883;stroke-dasharray:none"
       d="m 69.427223,128.7615 c -4.737079,3.0035 -4.737079,3.0035 -4.737079,3.0035"
       id="path5736-5" />
    <path
       style="fill:#000000;fill-opacity:0;stroke:#000000;stroke-width:0.800917"
       d="m 81.305541,128.95916 c 4.03512,2.40651 4.509842,3.20868 4.509842,3.20868 v 0"
       id="path5738-6" />
  </g>
</svg>
