<?xml version="1.0" encoding="UTF-8" standalone="no"?>
<!-- Created with Inkscape (http://www.inkscape.org/) -->

<svg
   width="210mm"
   height="297mm"
   viewBox="0 0 210 297"
   version="1.1"
   id="svg5"
   inkscape:version="1.2.2 (b0a84865, 2022-12-01)"
   sodipodi:docname="3232.svg"
   xmlns:inkscape="http://www.inkscape.org/namespaces/inkscape"
   xmlns:sodipodi="http://sodipodi.sourceforge.net/DTD/sodipodi-0.dtd"
   xmlns="http://www.w3.org/2000/svg"
   xmlns:svg="http://www.w3.org/2000/svg">
  <sodipodi:namedview
     id="namedview7"
     pagecolor="#ffffff"
     bordercolor="#000000"
     borderopacity="0.25"
     inkscape:showpageshadow="2"
     inkscape:pageopacity="0.0"
     inkscape:pagecheckerboard="0"
     inkscape:deskcolor="#d1d1d1"
     inkscape:document-units="mm"
     showgrid="false"
     inkscape:zoom="0.70555556"
     inkscape:cx="211.1811"
     inkscape:cy="552.7559"
     inkscape:window-width="1390"
     inkscape:window-height="942"
     inkscape:window-x="304"
     inkscape:window-y="25"
     inkscape:window-maximized="0"
     inkscape:current-layer="layer1" />
  <defs
     id="defs2">
    <linearGradient
       id="linearGradient801"
       inkscape:swatch="solid">
      <stop
         style="stop-color:#000000;stop-opacity:1;"
         offset="0"
         id="stop799" />
    </linearGradient>
    <linearGradient
       id="linearGradient795"
       inkscape:swatch="solid">
      <stop
         style="stop-color:#000000;stop-opacity:1;"
         offset="0"
         id="stop793" />
    </linearGradient>
  </defs>
  <g
     inkscape:label="Layer 1"
     inkscape:groupmode="layer"
     id="layer1">
    <rect
       style="fill:none;stroke-width:0.264583"
       id="rect111"
       width="18"
       height="17.625"
       x="52.874996"
       y="75" />
    <ellipse
       style="fill:#000000;fill-opacity:0;stroke:#000000;stroke-width:0.843454"
       id="path270-8"
       cx="55.875"
       cy="73.5"
       rx="6.0607738"
       ry="6.2482743" />
    <path
       style="fill:#000000;fill-opacity:0;stroke:#000000;stroke-width:0.940626"
       d="m 53.77555,67.112684 c -0.3665,12.759506 0,12.394946 0,12.394946"
       id="path9855-04" />
    <path
       style="fill:#000000;fill-opacity:0;stroke:#000000;stroke-width:0.930304"
       d="m 57.99041,68.042721 c -0.39488,11.583839 0,11.252869 0,11.252869"
       id="path9855-0-6" />
    <path
       style="fill:#000000;fill-opacity:0;stroke:#000000;stroke-width:0.88869"
       d="m 50.44463,70.8826 c 10.20297,-0.40912 10.49448,0 10.49448,0"
       id="path9991-0" />
    <path
       style="fill:#000000;fill-opacity:0;stroke:#000000;stroke-width:0.909084"
       d="m 50.27019,75.08892 c 10.93278,-0.39953 11.24515,0 11.24515,0"
       id="path9991-3-3" />
    <rect
       style="fill:none;stroke-width:0.264583"
       id="rect111-8"
       width="18"
       height="17.625"
       x="40.578526"
       y="70.928749" />
    <ellipse
       style="fill:#000000;fill-opacity:0;stroke:#000000;stroke-width:0.843454"
       id="path270"
       cx="55.578522"
       cy="73.366249"
       rx="6.0607738"
       ry="6.2482743" />
    <path
       style="fill:#000000;fill-opacity:0;stroke:#000000;stroke-width:0.964999"
       d="m 60.078528,68.67875 c 3.749998,-3.75 3.374998,-3.75 3.374998,-3.75"
       id="path7238" />
    <path
       style="fill:#000000;fill-opacity:0;stroke:#000000;stroke-width:0.964999"
       d="m 47.061612,81.87441 c 3.749998,-3.75 3.374998,-3.75 3.374998,-3.75"
       id="path7238-3" />
    <path
       style="fill:#000000;fill-opacity:0;stroke:#000000;stroke-width:0.964999"
       d="m 50.703526,68.67875 c -3,-3 -3.749998,-3 -3.749998,-3"
       id="path7262" />
    <path
       style="fill:#000000;fill-opacity:0;stroke:#000000;stroke-width:1.09998"
       d="M 64.011876,81.44478 C 60.774793,77.83234 59.965524,77.83234 59.965524,77.83234"
       id="path7262-5" />
    <ellipse
       style="fill:#000000;fill-opacity:0;stroke:#000000;stroke-width:0.843454"
       id="path270-8-5"
       cx="74.25"
       cy="73.125"
       rx="6.0607738"
       ry="6.2482743" />
    <path
       style="fill:#000000;fill-opacity:0;stroke:#000000;stroke-width:0.940626"
       d="m 72.150549,66.73768 c -0.3665,12.75951 0,12.39495 0,12.39495"
       id="path9855-04-6" />
    <path
       style="fill:#000000;fill-opacity:0;stroke:#000000;stroke-width:0.930304"
       d="m 76.365409,67.66772 c -0.39488,11.58384 0,11.25287 0,11.25287"
       id="path9855-0-6-2" />
    <path
       style="fill:#000000;fill-opacity:0;stroke:#000000;stroke-width:0.88869"
       d="m 68.819629,70.5076 c 10.20297,-0.40912 10.49448,0 10.49448,0"
       id="path9991-0-8" />
    <path
       style="fill:#000000;fill-opacity:0;stroke:#000000;stroke-width:0.909084"
       d="m 68.645189,74.71392 c 10.93278,-0.39953 11.24515,0 11.24515,0"
       id="path9991-3-3-5" />
    <rect
       style="fill:none;stroke-width:0.264583"
       id="rect111-8-9"
       width="18"
       height="17.625"
       x="58.578522"
       y="70.178749" />
    <ellipse
       style="fill:#000000;fill-opacity:0;stroke:#000000;stroke-width:0.843454"
       id="path270-4"
       cx="73.953522"
       cy="72.991249"
       rx="6.0607738"
       ry="6.2482743" />
    <path
       style="fill:#000000;fill-opacity:0;stroke:#000000;stroke-width:0.964999"
       d="m 78.453527,68.30375 c 3.749998,-3.75 3.374998,-3.75 3.374998,-3.75"
       id="path7238-39" />
    <path
       style="fill:#000000;fill-opacity:0;stroke:#000000;stroke-width:0.964999"
       d="m 65.436611,81.49941 c 3.749998,-3.75 3.374998,-3.75 3.374998,-3.75"
       id="path7238-3-0" />
    <path
       style="fill:#000000;fill-opacity:0;stroke:#000000;stroke-width:0.964999"
       d="m 69.078525,68.30375 c -3,-3 -3.749998,-3 -3.749998,-3"
       id="path7262-56" />
    <path
       style="fill:#000000;fill-opacity:0;stroke:#000000;stroke-width:1.09998"
       d="M 82.386875,81.06978 C 79.149792,77.45734 78.340523,77.45734 78.340523,77.45734"
       id="path7262-5-3" />
    <rect
       style="fill:none;stroke-width:0.264583"
       id="rect111-8-4"
       width="18"
       height="17.625"
       x="76.578522"
       y="70.553741" />
    <ellipse
       style="fill:#000000;fill-opacity:0;stroke:#000000;stroke-width:0.843454"
       id="path270-8-5-7"
       cx="92.929047"
       cy="72.919083"
       rx="6.0607738"
       ry="6.2482743" />
    <path
       style="fill:#000000;fill-opacity:0;stroke:#000000;stroke-width:0.940626"
       d="m 90.829595,66.53176 c -0.3665,12.75951 0,12.39495 0,12.39495"
       id="path9855-04-6-2" />
    <path
       style="fill:#000000;fill-opacity:0;stroke:#000000;stroke-width:0.930304"
       d="m 95.044455,67.4618 c -0.39488,11.58384 0,11.25287 0,11.25287"
       id="path9855-0-6-2-9" />
    <path
       style="fill:#000000;fill-opacity:0;stroke:#000000;stroke-width:0.88869"
       d="m 87.498675,70.30168 c 10.20297,-0.40912 10.49448,0 10.49448,0"
       id="path9991-0-8-7" />
    <path
       style="fill:#000000;fill-opacity:0;stroke:#000000;stroke-width:0.909084"
       d="m 87.324235,74.508 c 10.93278,-0.39953 11.24515,0 11.24515,0"
       id="path9991-3-3-5-5" />
    <ellipse
       style="fill:#000000;fill-opacity:0;stroke:#000000;stroke-width:0.843454"
       id="path270-4-6"
       cx="92.632568"
       cy="72.785332"
       rx="6.0607738"
       ry="6.2482743" />
    <path
       style="fill:#000000;fill-opacity:0;stroke:#000000;stroke-width:0.964999"
       d="m 97.132573,68.09783 c 3.749997,-3.75 3.374997,-3.75 3.374997,-3.75"
       id="path7238-39-5" />
    <path
       style="fill:#000000;fill-opacity:0;stroke:#000000;stroke-width:0.964999"
       d="m 84.115657,81.29349 c 3.749998,-3.75 3.374998,-3.75 3.374998,-3.75"
       id="path7238-3-0-3" />
    <path
       style="fill:#000000;fill-opacity:0;stroke:#000000;stroke-width:0.964999"
       d="m 87.757571,68.09783 c -3,-3 -3.749998,-3 -3.749998,-3"
       id="path7262-56-0" />
    <path
       style="fill:#000000;fill-opacity:0;stroke:#000000;stroke-width:1.09998"
       d="M 101.06592,80.86386 C 97.828838,77.25142 97.019569,77.25142 97.019569,77.25142"
       id="path7262-5-3-4" />
  </g>
</svg>
