<?xml version="1.0" encoding="UTF-8" standalone="no"?>
<!-- Created with Inkscape (http://www.inkscape.org/) -->

<svg
   width="210mm"
   height="297mm"
   viewBox="0 0 210 297"
   version="1.1"
   id="svg5"
   inkscape:version="1.2.2 (b0a84865, 2022-12-01)"
   sodipodi:docname="3233.svg"
   xmlns:inkscape="http://www.inkscape.org/namespaces/inkscape"
   xmlns:sodipodi="http://sodipodi.sourceforge.net/DTD/sodipodi-0.dtd"
   xmlns="http://www.w3.org/2000/svg"
   xmlns:svg="http://www.w3.org/2000/svg">
  <sodipodi:namedview
     id="namedview7"
     pagecolor="#ffffff"
     bordercolor="#000000"
     borderopacity="0.25"
     inkscape:showpageshadow="2"
     inkscape:pageopacity="0.0"
     inkscape:pagecheckerboard="0"
     inkscape:deskcolor="#d1d1d1"
     inkscape:document-units="mm"
     showgrid="false"
     inkscape:zoom="0.70555556"
     inkscape:cx="211.1811"
     inkscape:cy="552.7559"
     inkscape:window-width="1390"
     inkscape:window-height="942"
     inkscape:window-x="0"
     inkscape:window-y="25"
     inkscape:window-maximized="0"
     inkscape:current-layer="layer1" />
  <defs
     id="defs2">
    <linearGradient
       id="linearGradient801"
       inkscape:swatch="solid">
      <stop
         style="stop-color:#000000;stop-opacity:1;"
         offset="0"
         id="stop799" />
    </linearGradient>
    <linearGradient
       id="linearGradient795"
       inkscape:swatch="solid">
      <stop
         style="stop-color:#000000;stop-opacity:1;"
         offset="0"
         id="stop793" />
    </linearGradient>
  </defs>
  <g
     inkscape:label="Layer 1"
     inkscape:groupmode="layer"
     id="layer1">
    <rect
       style="fill:none;stroke-width:0.264583"
       id="rect111"
       width="18"
       height="17.625"
       x="52.874996"
       y="75" />
    <ellipse
       style="fill:#000000;fill-opacity:0;stroke:#000000;stroke-width:0.843454"
       id="path270-8"
       cx="55.875"
       cy="73.5"
       rx="6.0607738"
       ry="6.2482743" />
    <path
       style="fill:#000000;fill-opacity:0;stroke:#000000;stroke-width:0.940626"
       d="m 53.77555,67.112684 c -0.3665,12.759506 0,12.394946 0,12.394946"
       id="path9855-04" />
    <path
       style="fill:#000000;fill-opacity:0;stroke:#000000;stroke-width:0.930304"
       d="m 57.99041,68.042721 c -0.39488,11.583839 0,11.252869 0,11.252869"
       id="path9855-0-6" />
    <path
       style="fill:#000000;fill-opacity:0;stroke:#000000;stroke-width:0.88869"
       d="m 50.44463,70.8826 c 10.20297,-0.40912 10.49448,0 10.49448,0"
       id="path9991-0" />
    <path
       style="fill:#000000;fill-opacity:0;stroke:#000000;stroke-width:0.909084"
       d="m 50.27019,75.08892 c 10.93278,-0.39953 11.24515,0 11.24515,0"
       id="path9991-3-3" />
    <rect
       style="fill:none;stroke-width:0.264583"
       id="rect111-4"
       width="18"
       height="17.625"
       x="40.279526"
       y="70.439957" />
    <ellipse
       style="fill:#000000;fill-opacity:0;stroke:#000000;stroke-width:0.811405;stroke-dasharray:none"
       id="path270-5"
       cx="58.8549"
       cy="70.921974"
       rx="9.0366583"
       ry="9.2225542"
       transform="matrix(0.99904463,0.04370154,-0.03904492,0.99923746,0,0)" />
    <ellipse
       style="fill:#000000;fill-opacity:0;stroke:#000000;stroke-width:0.843454"
       id="path270-8-4"
       cx="75.970467"
       cy="73.935059"
       rx="6.0607738"
       ry="6.2482743" />
    <path
       style="fill:#000000;fill-opacity:0;stroke:#000000;stroke-width:0.940626"
       d="m 73.87102,67.54774 c -0.3665,12.75951 0,12.39495 0,12.39495"
       id="path9855-04-9" />
    <path
       style="fill:#000000;fill-opacity:0;stroke:#000000;stroke-width:0.930304"
       d="m 78.08588,68.477777 c -0.39488,11.583843 0,11.252873 0,11.252873"
       id="path9855-0-6-5" />
    <path
       style="fill:#000000;fill-opacity:0;stroke:#000000;stroke-width:0.88869"
       d="m 70.5401,71.317656 c 10.20297,-0.40912 10.49448,0 10.49448,0"
       id="path9991-0-9" />
    <path
       style="fill:#000000;fill-opacity:0;stroke:#000000;stroke-width:0.909084"
       d="m 70.36566,75.523976 c 10.93278,-0.39953 11.24515,0 11.24515,0"
       id="path9991-3-3-0" />
    <ellipse
       style="fill:#000000;fill-opacity:0;stroke:#000000;stroke-width:0.811405;stroke-dasharray:none"
       id="path270-5-9"
       cx="78.952248"
       cy="70.478401"
       rx="9.0366583"
       ry="9.2225542"
       transform="matrix(0.99904463,0.04370154,-0.03904492,0.99923746,0,0)" />
    <ellipse
       style="fill:#000000;fill-opacity:0;stroke:#000000;stroke-width:0.843454"
       id="path270-8-7"
       cx="96.220467"
       cy="73.935059"
       rx="6.0607738"
       ry="6.2482743" />
    <path
       style="fill:#000000;fill-opacity:0;stroke:#000000;stroke-width:0.940626"
       d="m 94.12102,67.547741 c -0.3665,12.75951 0,12.39495 0,12.39495"
       id="path9855-04-5" />
    <path
       style="fill:#000000;fill-opacity:0;stroke:#000000;stroke-width:0.930304"
       d="m 98.33588,68.477781 c -0.39488,11.58384 0,11.25287 0,11.25287"
       id="path9855-0-6-7" />
    <path
       style="fill:#000000;fill-opacity:0;stroke:#000000;stroke-width:0.88869"
       d="m 90.7901,71.317661 c 10.20297,-0.40912 10.49448,0 10.49448,0"
       id="path9991-0-5" />
    <path
       style="fill:#000000;fill-opacity:0;stroke:#000000;stroke-width:0.909084"
       d="m 90.61566,75.523981 c 10.93278,-0.39953 11.24515,0 11.24515,0"
       id="path9991-3-3-06" />
    <ellipse
       style="fill:#000000;fill-opacity:0;stroke:#000000;stroke-width:0.811405;stroke-dasharray:none"
       id="path270-5-4"
       cx="99.187027"
       cy="69.593445"
       rx="9.0366583"
       ry="9.2225542"
       transform="matrix(0.99904463,0.04370154,-0.03904492,0.99923746,0,0)" />
  </g>
</svg>
