<svg xmlns="http://www.w3.org/2000/svg" xmlns:xlink="http://www.w3.org/1999/xlink" width="41mm" height="41mm" viewBox="0 0 41 41"><defs><linearGradient id="a"><stop offset="0" style="stop-color:#b1d9b1;stop-opacity:1"/></linearGradient><linearGradient xlink:href="#a" id="b" x1="66.683" x2="90.066" y1="94.125" y2="94.125" gradientTransform="matrix(.8721 0 0 .65408 -45.634 -31.46)" gradientUnits="userSpaceOnUse"/></defs><path d="M26.582 59.776c3.24 7.739 3.698 28.926 3.726 27.34v.403" style="fill:#fff;fill-opacity:1;stroke:#278227;stroke-width:1.35613;stroke-dasharray:none;stroke-opacity:1"/><path d="M19.342 59.73c-5.093 7.5-2.277 30.722-2.625 30.376v.375" style="fill:#fff;fill-opacity:1;stroke:#278227;stroke-width:1.314;stroke-dasharray:none;stroke-opacity:1"/><path fill="none" d="M26.312 21.059C24.185-15.624 21.48 9.93 21.48 9.93" style="fill:#fff;fill-opacity:0;stroke:#278227;stroke-width:1.593;stroke-dasharray:none;stroke-opacity:1"/><path d="M30.09 44.815c3.991 1.802 3.06 12.166 3.06 12.166" style="fill:#fff;fill-opacity:1;stroke:#278227;stroke-width:1.06465;stroke-dasharray:none;stroke-opacity:1"/><path d="M15.526 45.509c-3.98 4.47-2.796 12.937-2.796 12.937" style="fill:#fff;fill-opacity:1;stroke:#278227;stroke-width:1.16934;stroke-dasharray:none;stroke-opacity:1"/><ellipse cx="22.904" cy="49.231" rx="8.098" ry="12.036" style="fill:#b1d9b1;fill-opacity:1;stroke:#278227;stroke-width:.31692;stroke-dasharray:none;stroke-opacity:1"/><circle cx="22.717" cy="30.106" r="9.811" style="mix-blend-mode:normal;fill:url(#b);fill-opacity:1;stroke:#278227;stroke-width:.377633;stroke-dasharray:none;stroke-opacity:1"/><ellipse cx="19.232" cy="28.203" rx="2.521" ry="2.311" style="fill:#000;fill-opacity:1;stroke:#000;stroke-width:.636481;stroke-dasharray:none;stroke-opacity:1"/><ellipse cx="26.082" cy="28.203" rx="2.511" ry="2.311" style="fill:#000;fill-opacity:1;stroke:#000;stroke-width:.63534;stroke-dasharray:none;stroke-opacity:1"/><ellipse cx="-114.188" cy="10.875" rx="1.313" ry=".75" style="fill:#fff;fill-opacity:1;stroke:#000;stroke-width:.383;stroke-dasharray:none;stroke-opacity:1"/><path fill="none" d="M18.35 21.356C14.223-12.02 8.973 11.23 8.973 11.23" style="opacity:1;fill:#fff;fill-opacity:0;fill-rule:nonzero;stroke:#278227;stroke-width:1.593;stroke-dasharray:none;stroke-opacity:1"/><ellipse cx="9.349" cy="11.231" rx="1.125" ry="1.875" style="fill:#278227;fill-opacity:1;stroke:#278227;stroke-width:.383;stroke-dasharray:none;stroke-opacity:1"/><ellipse cx="21.834" cy="9.709" rx="1.125" ry="1.875" style="fill:#278227;fill-opacity:1;stroke:#278227;stroke-width:.383;stroke-dasharray:none;stroke-opacity:1"/><ellipse cx="-8.596" cy="91.226" rx="3" ry="1.5" style="fill:#278227;fill-opacity:1;stroke:#278227;stroke-width:1.314;stroke-dasharray:none;stroke-opacity:1" transform="rotate(-14.467)"/><ellipse cx="-93.413" cy="-18.45" rx="3" ry="1.5" style="fill:#278227;fill-opacity:1;stroke:#278227;stroke-width:1.314;stroke-dasharray:none;stroke-opacity:1" transform="rotate(-120.689)"/><ellipse cx="42.314" cy="51.815" rx="1.125" ry="1.875" style="fill:#278227;fill-opacity:1;stroke:#278227;stroke-width:.383;stroke-dasharray:none;stroke-opacity:1" transform="rotate(9.838)"/><ellipse cx="-31.074" cy="-52.178" rx="1.125" ry="1.875" style="fill:#278227;fill-opacity:1;stroke:#278227;stroke-width:.383;stroke-dasharray:none;stroke-opacity:1" transform="rotate(-160.841)"/><ellipse cx="27.272" cy="27.508" rx=".679" ry=".867" style="fill:#fff;fill-opacity:1;stroke:#000;stroke-width:.0661126;stroke-dasharray:none;stroke-opacity:1"/><ellipse cx="20.38" cy="27.64" rx=".679" ry=".867" style="fill:#fff;fill-opacity:1;stroke:#000;stroke-width:.0661126;stroke-dasharray:none;stroke-opacity:1"/><path d="M19.398 32.999c4.422 6.453 6.265-.645 6.265-.645" style="fill:#b1d9b1;fill-opacity:1;stroke:#278227;stroke-width:.650206;stroke-dasharray:none;stroke-opacity:1"/></svg>