<?xml version="1.0" encoding="UTF-8" standalone="no"?>
<svg
   width="71mm"
   height="36mm"
   viewBox="0 0 71 36"
   version="1.1"
   id="svg770"
   sodipodi:docname="1132.svg"
   inkscape:version="1.2.2 (b0a84865, 2022-12-01)"
   xmlns:inkscape="http://www.inkscape.org/namespaces/inkscape"
   xmlns:sodipodi="http://sodipodi.sourceforge.net/DTD/sodipodi-0.dtd"
   xmlns="http://www.w3.org/2000/svg"
   xmlns:svg="http://www.w3.org/2000/svg">
  <defs
     id="defs774" />
  <sodipodi:namedview
     id="namedview772"
     pagecolor="#ffffff"
     bordercolor="#000000"
     borderopacity="0.25"
     inkscape:showpageshadow="2"
     inkscape:pageopacity="0.0"
     inkscape:pagecheckerboard="0"
     inkscape:deskcolor="#d1d1d1"
     inkscape:document-units="mm"
     showgrid="false"
     inkscape:zoom="0.70555556"
     inkscape:cx="396.85039"
     inkscape:cy="272.12598"
     inkscape:window-width="1390"
     inkscape:window-height="942"
     inkscape:window-x="0"
     inkscape:window-y="25"
     inkscape:window-maximized="0"
     inkscape:current-layer="svg770" />
  <path
     d="m 30.375,14.625 h 18 V 32.25 h -18 z"
     style="fill:none;stroke-width:0.264583"
     id="path756" />
  <path
     d="m 28.875,11.25 h 12.75 v 13.125 h -12.75 z"
     style="fill:none;stroke:#000000;stroke-width:0.965;stroke-dasharray:none;stroke-opacity:1"
     id="path758" />
  <path
     fill="none"
     d="m 33,11.625 c -0.375,13.125 0,12.75 0,12.75 m 4.583,-13.356 c -0.375,13.125 0,12.75 0,12.75"
     style="fill:#000000;fill-opacity:0;stroke:#000000;stroke-width:0.964999"
     id="path760" />
  <path
     fill="none"
     d="m 28.5,15.375 c 13.125,-0.375 13.5,0 13.5,0 m -13.289,4.208 c 13.125,-0.375 13.5,0 13.5,0"
     style="fill:#000000;fill-opacity:0;stroke:#000000;stroke-width:0.964999"
     id="path762" />
  <path
     d="m 30.091,14.358 h 18 v 17.625 h -18 z"
     style="fill:none;stroke-width:0.264583"
     id="path764" />
  <path
     fill="none"
     d="m 28.591,10.983 -3,-2.625 V 7.983 m 19.208,18.944 -3,-2.625 v -0.375"
     style="fill:#000000;fill-opacity:0;stroke:#000000;stroke-width:0.964999"
     id="path766" />
  <path
     fill="none"
     d="M 41.76,10.672 45.218,7.474 V 7.017 m -20.293,20.275 3.457,-3.198 v -0.457"
     style="fill:#000000;fill-opacity:0;stroke:#000000;stroke-width:0.783033;stroke-dasharray:none"
     id="path768" />
</svg>
