<?xml version="1.0" encoding="UTF-8" standalone="no"?>
<svg
   width="71mm"
   height="36mm"
   viewBox="0 0 71 36"
   version="1.1"
   id="svg989"
   sodipodi:docname="1232.svg"
   inkscape:version="1.2.2 (b0a84865, 2022-12-01)"
   xmlns:inkscape="http://www.inkscape.org/namespaces/inkscape"
   xmlns:sodipodi="http://sodipodi.sourceforge.net/DTD/sodipodi-0.dtd"
   xmlns="http://www.w3.org/2000/svg"
   xmlns:svg="http://www.w3.org/2000/svg">
  <defs
     id="defs993" />
  <sodipodi:namedview
     id="namedview991"
     pagecolor="#ffffff"
     bordercolor="#000000"
     borderopacity="0.25"
     inkscape:showpageshadow="2"
     inkscape:pageopacity="0.0"
     inkscape:pagecheckerboard="0"
     inkscape:deskcolor="#d1d1d1"
     inkscape:document-units="mm"
     showgrid="false"
     inkscape:zoom="0.70555556"
     inkscape:cx="396.85039"
     inkscape:cy="323.14961"
     inkscape:window-width="1390"
     inkscape:window-height="942"
     inkscape:window-x="0"
     inkscape:window-y="25"
     inkscape:window-maximized="0"
     inkscape:current-layer="svg989" />
  <path
     d="m 31.875,20.25 h 18 v 17.625 h -18 z"
     style="fill:none;stroke-width:0.264583"
     id="path969" />
  <ellipse
     cx="34.875"
     cy="18.75"
     fill="none"
     rx="6.0609999"
     ry="6.2480001"
     style="fill:#000000;fill-opacity:0;stroke:#000000;stroke-width:0.843454"
     id="ellipse971" />
  <path
     fill="none"
     d="m 32.776,12.363 c -0.367,12.76 0,12.395 0,12.395"
     style="fill:#000000;fill-opacity:0;stroke:#000000;stroke-width:0.940626"
     id="path973" />
  <path
     fill="none"
     d="m 36.99,13.293 c -0.394,11.584 0,11.253 0,11.253"
     style="fill:#000000;fill-opacity:0;stroke:#000000;stroke-width:0.930304"
     id="path975" />
  <path
     fill="none"
     d="m 29.445,16.133 c 10.203,-0.41 10.494,0 10.494,0"
     style="fill:#000000;fill-opacity:0;stroke:#000000;stroke-width:0.88869"
     id="path977" />
  <path
     fill="none"
     d="m 29.27,20.339 c 10.933,-0.4 11.245,0 11.245,0"
     style="fill:#000000;fill-opacity:0;stroke:#000000;stroke-width:0.909084"
     id="path979" />
  <path
     d="m 19.579,16.179 h 18 v 17.625 h -18 z"
     style="fill:none;stroke-width:0.264583"
     id="path981" />
  <ellipse
     cx="34.578999"
     cy="18.615997"
     fill="none"
     rx="6.0609999"
     ry="6.2480001"
     style="fill:#000000;fill-opacity:0;stroke:#000000;stroke-width:0.843454"
     id="ellipse983" />
  <path
     fill="none"
     d="m 39.079,13.929 c 3.75,-3.75 3.375,-3.75 3.375,-3.75 M 26.062,27.124 c 3.75,-3.75 3.375,-3.75 3.375,-3.75 m 0.267,-9.445 c -3,-3 -3.75,-3 -3.75,-3"
     style="fill:#000000;fill-opacity:0;stroke:#000000;stroke-width:0.964999"
     id="path985" />
  <path
     fill="none"
     d="M 43.012,26.695 C 39.775,23.082 38.966,23.082 38.966,23.082"
     style="fill:#000000;fill-opacity:0;stroke:#000000;stroke-width:1.09998"
     id="path987" />
</svg>
