<?xml version="1.0" encoding="UTF-8" standalone="no"?>
<svg
   width="71mm"
   height="36mm"
   viewBox="0 0 71 36"
   version="1.1"
   id="svg1223"
   sodipodi:docname="1332.svg"
   inkscape:version="1.2.2 (b0a84865, 2022-12-01)"
   xmlns:inkscape="http://www.inkscape.org/namespaces/inkscape"
   xmlns:sodipodi="http://sodipodi.sourceforge.net/DTD/sodipodi-0.dtd"
   xmlns="http://www.w3.org/2000/svg"
   xmlns:svg="http://www.w3.org/2000/svg">
  <defs
     id="defs1227" />
  <sodipodi:namedview
     id="namedview1225"
     pagecolor="#ffffff"
     bordercolor="#000000"
     borderopacity="0.25"
     inkscape:showpageshadow="2"
     inkscape:pageopacity="0.0"
     inkscape:pagecheckerboard="0"
     inkscape:deskcolor="#d1d1d1"
     inkscape:document-units="mm"
     showgrid="false"
     inkscape:zoom="0.70555556"
     inkscape:cx="187.08661"
     inkscape:cy="323.14961"
     inkscape:window-width="1390"
     inkscape:window-height="942"
     inkscape:window-x="0"
     inkscape:window-y="25"
     inkscape:window-maximized="0"
     inkscape:current-layer="svg1223" />
  <path
     d="m 52.875,75 h 18 v 17.625 h -18 z"
     style="fill:none;stroke-width:0.264583"
     id="path1203" />
  <path
     fill="none"
     d="m 40.969222,23.96725 -6.38,-0.145 -6.381,0.088 3.316,-5.452 3.114,-5.57 3.064,5.597 z"
     style="fill:#000000;fill-opacity:0;stroke:#000000;stroke-width:0.843"
     id="path1205" />
  <path
     d="m 29.513222,12.40225 h 18 v 17.625 h -18 z"
     style="fill:none;stroke-width:0.264583"
     id="path1207" />
  <path
     fill="none"
     d="m 32.694222,17.63125 c -0.492,6.34 0,6.16 0,6.16"
     style="fill:#000000;fill-opacity:0;stroke:#000000;stroke-width:0.76885"
     id="path1209" />
  <path
     fill="none"
     d="m 36.742222,16.74125 c -0.466,7.423 0,7.21 0,7.21"
     style="fill:#000000;fill-opacity:0;stroke:#000000;stroke-width:0.809004"
     id="path1211" />
  <path
     fill="none"
     d="m 31.683222,17.56625 c 4.891,-0.518 5.031,0 5.031,0"
     style="fill:#000000;fill-opacity:0;stroke:#000000;stroke-width:0.692843"
     id="path1213" />
  <path
     fill="none"
     d="m 30.510222,20.87825 c 8.507,-0.413 8.75,0 8.75,0"
     style="fill:#000000;fill-opacity:0;stroke:#000000;stroke-width:0.815745"
     id="path1215" />
  <path
     fill="none"
     d="m 34.500222,12.66725 c 0,-4.773 0.266,-4.773 0.266,-4.773"
     style="fill:#000000;fill-opacity:0;stroke:#000000;stroke-width:0.843"
     id="path1217" />
  <path
     fill="none"
     d="m 28.460222,23.59325 -4.737,3.004"
     style="fill:#000000;fill-opacity:0;stroke:#000000;stroke-width:0.883;stroke-dasharray:none"
     id="path1219" />
  <path
     fill="none"
     d="m 40.338222,23.79125 c 4.035,2.407 4.51,3.209 4.51,3.209"
     style="fill:#000000;fill-opacity:0;stroke:#000000;stroke-width:0.800917"
     id="path1221" />
</svg>
