<?xml version="1.0" encoding="UTF-8" standalone="no"?>
<svg
   width="71mm"
   height="36mm"
   viewBox="0 0 71 36"
   version="1.1"
   id="svg1465"
   sodipodi:docname="2122.svg"
   inkscape:version="1.2.2 (b0a84865, 2022-12-01)"
   xmlns:inkscape="http://www.inkscape.org/namespaces/inkscape"
   xmlns:sodipodi="http://sodipodi.sourceforge.net/DTD/sodipodi-0.dtd"
   xmlns="http://www.w3.org/2000/svg"
   xmlns:svg="http://www.w3.org/2000/svg">
  <defs
     id="defs1469" />
  <sodipodi:namedview
     id="namedview1467"
     pagecolor="#ffffff"
     bordercolor="#000000"
     borderopacity="0.25"
     inkscape:showpageshadow="2"
     inkscape:pageopacity="0.0"
     inkscape:pagecheckerboard="0"
     inkscape:deskcolor="#d1d1d1"
     inkscape:document-units="mm"
     showgrid="false"
     inkscape:zoom="0.70555556"
     inkscape:cx="396.85039"
     inkscape:cy="85.03937"
     inkscape:window-width="1390"
     inkscape:window-height="942"
     inkscape:window-x="0"
     inkscape:window-y="25"
     inkscape:window-maximized="0"
     inkscape:current-layer="svg1465" />
  <path
     d="m 19.875,15.75 h 18 v 17.625 h -18 z"
     style="fill:none;stroke-width:0.264583"
     id="path1441" />
  <path
     d="m 18.375,12.375 h 12.75 V 25.5 h -12.75 z"
     style="fill:#000000;stroke:#000000;stroke-width:0.965;stroke-dasharray:none;stroke-opacity:1"
     id="path1443" />
  <path
     d="m 19.591,15.108 h 18 v 17.625 h -18 z"
     style="fill:none;stroke-width:0.264583"
     id="path1445" />
  <path
     d="m 18.091,11.733 h 12.75 v 13.125 h -12.75 z"
     style="fill:none;stroke:#000000;stroke-width:0.965;stroke-dasharray:none;stroke-opacity:1"
     id="path1447" />
  <path
     fill="none"
     d="m 17.716,11.358 -3,-2.625 V 8.358 m 19.583,19.319 -3,-2.625 v -0.375"
     style="fill:#000000;fill-opacity:0;stroke:#000000;stroke-width:0.964999"
     id="path1449" />
  <path
     fill="none"
     d="M 31.26,11.422 34.718,8.224 V 7.767 m -20.293,20.275 3.457,-3.198 v -0.457"
     style="fill:#000000;fill-opacity:0;stroke:#000000;stroke-width:0.783033;stroke-dasharray:none"
     id="path1451" />
  <path
     d="m 41.858,15.429 h 18 v 17.625 h -18 z"
     style="fill:none;stroke-width:0.264583"
     id="path1453" />
  <path
     d="m 40.358,12.054 h 12.75 v 13.125 h -12.75 z"
     style="fill:#000000;stroke:#000000;stroke-width:0.965;stroke-dasharray:none;stroke-opacity:1"
     id="path1455" />
  <path
     d="m 41.574,14.787 h 18 v 17.625 h -18 z"
     style="fill:none;stroke-width:0.264583"
     id="path1457" />
  <path
     d="m 40.074,11.412 h 12.75 v 13.125 h -12.75 z"
     style="fill:none;stroke:#000000;stroke-width:0.965;stroke-dasharray:none;stroke-opacity:1"
     id="path1459" />
  <path
     fill="none"
     d="m 39.7,11.037 -3,-2.625 V 8.037 m 19.582,19.319 -3,-2.625 v -0.375"
     style="fill:#000000;fill-opacity:0;stroke:#000000;stroke-width:0.964999"
     id="path1461" />
  <path
     fill="none"
     d="M 53.243,11.101 56.701,7.903 V 7.446 m -20.293,20.275 3.457,-3.198 v -0.457"
     style="fill:#000000;fill-opacity:0;stroke:#000000;stroke-width:0.783033;stroke-dasharray:none"
     id="path1463" />
</svg>
