<?xml version="1.0" encoding="UTF-8" standalone="no"?>
<svg
   width="71mm"
   height="36mm"
   viewBox="0 0 71 36"
   version="1.1"
   id="svg1527"
   sodipodi:docname="2131.svg"
   inkscape:version="1.2.2 (b0a84865, 2022-12-01)"
   xmlns:inkscape="http://www.inkscape.org/namespaces/inkscape"
   xmlns:sodipodi="http://sodipodi.sourceforge.net/DTD/sodipodi-0.dtd"
   xmlns="http://www.w3.org/2000/svg"
   xmlns:svg="http://www.w3.org/2000/svg">
  <defs
     id="defs1531" />
  <sodipodi:namedview
     id="namedview1529"
     pagecolor="#ffffff"
     bordercolor="#000000"
     borderopacity="0.25"
     inkscape:showpageshadow="2"
     inkscape:pageopacity="0.0"
     inkscape:pagecheckerboard="0"
     inkscape:deskcolor="#d1d1d1"
     inkscape:document-units="mm"
     showgrid="false"
     inkscape:zoom="0.70555556"
     inkscape:cx="396.85039"
     inkscape:cy="31.181102"
     inkscape:window-width="1390"
     inkscape:window-height="942"
     inkscape:window-x="0"
     inkscape:window-y="25"
     inkscape:window-maximized="0"
     inkscape:current-layer="svg1527" />
  <path
     d="m 21.375,15.375 h 18 V 33 h -18 z"
     style="fill:none;stroke-width:0.264583"
     id="path1513" />
  <path
     d="m 19.875,12 h 12.75 v 13.125 h -12.75 z"
     style="fill:none;stroke:#000000;stroke-width:0.965;stroke-dasharray:none;stroke-opacity:1"
     id="path1515" />
  <path
     fill="none"
     d="m 24,12.375 c -0.375,13.125 0,12.75 0,12.75 m 4.583,-13.356 c -0.375,13.125 0,12.75 0,12.75"
     style="fill:#000000;fill-opacity:0;stroke:#000000;stroke-width:0.964999"
     id="path1517" />
  <path
     fill="none"
     d="m 19.5,16.125 c 13.125,-0.375 13.5,0 13.5,0 m -13.289,4.208 c 13.125,-0.375 13.5,0 13.5,0"
     style="fill:#000000;fill-opacity:0;stroke:#000000;stroke-width:0.964999"
     id="path1519" />
  <path
     d="m 35.778,11.813 h 12.75 v 13.125 h -12.75 z"
     style="fill:none;stroke:#000000;stroke-width:0.965;stroke-dasharray:none;stroke-opacity:1"
     id="path1521" />
  <path
     fill="none"
     d="m 39.903,12.188 c -0.375,13.125 0,12.75 0,12.75 m 4.583,-13.357 c -0.375,13.125 0,12.75 0,12.75"
     style="fill:#000000;fill-opacity:0;stroke:#000000;stroke-width:0.964999"
     id="path1523" />
  <path
     fill="none"
     d="m 35.403,15.938 c 13.125,-0.375 13.5,0 13.5,0 m -13.289,4.208 c 13.125,-0.375 13.5,0 13.5,0"
     style="fill:#000000;fill-opacity:0;stroke:#000000;stroke-width:0.964999"
     id="path1525" />
</svg>
