<?xml version="1.0" encoding="UTF-8" standalone="no"?>
<svg
   width="71mm"
   height="36mm"
   viewBox="0 0 71 36"
   version="1.1"
   id="svg1571"
   sodipodi:docname="2132.svg"
   inkscape:version="1.2.2 (b0a84865, 2022-12-01)"
   xmlns:inkscape="http://www.inkscape.org/namespaces/inkscape"
   xmlns:sodipodi="http://sodipodi.sourceforge.net/DTD/sodipodi-0.dtd"
   xmlns="http://www.w3.org/2000/svg"
   xmlns:svg="http://www.w3.org/2000/svg">
  <defs
     id="defs1575" />
  <sodipodi:namedview
     id="namedview1573"
     pagecolor="#ffffff"
     bordercolor="#000000"
     borderopacity="0.25"
     inkscape:showpageshadow="2"
     inkscape:pageopacity="0.0"
     inkscape:pagecheckerboard="0"
     inkscape:deskcolor="#d1d1d1"
     inkscape:document-units="mm"
     showgrid="false"
     inkscape:zoom="0.70555556"
     inkscape:cx="396.85039"
     inkscape:cy="323.14961"
     inkscape:window-width="1390"
     inkscape:window-height="942"
     inkscape:window-x="0"
     inkscape:window-y="25"
     inkscape:window-maximized="0"
     inkscape:current-layer="svg1571" />
  <path
     d="m 19.5,15.375 h 18 V 33 h -18 z"
     style="fill:none;stroke-width:0.264583"
     id="path1543" />
  <path
     d="M 18,12 H 30.75 V 25.125 H 18 Z"
     style="fill:none;stroke:#000000;stroke-width:0.965;stroke-dasharray:none;stroke-opacity:1"
     id="path1545" />
  <path
     fill="none"
     d="m 22.125,12.375 c -0.375,13.125 0,12.75 0,12.75 m 4.583,-13.356 c -0.375,13.125 0,12.75 0,12.75"
     style="fill:#000000;fill-opacity:0;stroke:#000000;stroke-width:0.964999"
     id="path1547" />
  <path
     fill="none"
     d="m 17.625,16.125 c 13.125,-0.375 13.5,0 13.5,0 m -13.289,4.208 c 13.125,-0.375 13.5,0 13.5,0"
     style="fill:#000000;fill-opacity:0;stroke:#000000;stroke-width:0.964999"
     id="path1549" />
  <path
     d="m 19.216,15.108 h 18 v 17.625 h -18 z"
     style="fill:none;stroke-width:0.264583"
     id="path1551" />
  <path
     fill="none"
     d="m 17.716,11.733 -3,-2.625 V 8.733 m 19.208,18.944 -3,-2.625 v -0.375"
     style="fill:#000000;fill-opacity:0;stroke:#000000;stroke-width:0.964999"
     id="path1553" />
  <path
     fill="none"
     d="M 30.885,11.422 34.343,8.224 V 7.767 M 14.05,28.042 17.507,24.844 v -0.457"
     style="fill:#000000;fill-opacity:0;stroke:#000000;stroke-width:0.783033;stroke-dasharray:none"
     id="path1555" />
  <path
     d="m 41.483,14.867 h 18 v 17.625 h -18 z"
     style="fill:none;stroke-width:0.264583"
     id="path1557" />
  <path
     d="m 39.983,11.492 h 12.75 v 13.125 h -12.75 z"
     style="fill:none;stroke:#000000;stroke-width:0.965;stroke-dasharray:none;stroke-opacity:1"
     id="path1559" />
  <path
     fill="none"
     d="m 44.108,11.867 c -0.375,13.125 0,12.75 0,12.75 M 48.692,11.26 c -0.375,13.125 0,12.75 0,12.75"
     style="fill:#000000;fill-opacity:0;stroke:#000000;stroke-width:0.964999"
     id="path1561" />
  <path
     fill="none"
     d="m 39.608,15.617 c 13.125,-0.375 13.5,0 13.5,0 m -13.289,4.208 c 13.125,-0.375 13.5,0 13.5,0"
     style="fill:#000000;fill-opacity:0;stroke:#000000;stroke-width:0.964999"
     id="path1563" />
  <path
     d="m 41.199,14.6 h 18 v 17.625 h -18 z"
     style="fill:none;stroke-width:0.264583"
     id="path1565" />
  <path
     fill="none"
     d="m 39.699,11.225 -3,-2.625 V 8.225 m 19.208,18.943 -3,-2.625 v -0.375"
     style="fill:#000000;fill-opacity:0;stroke:#000000;stroke-width:0.964999"
     id="path1567" />
  <path
     fill="none"
     d="M 52.868,10.914 56.326,7.715 V 7.258 M 36.033,27.534 39.49,24.335 v -0.457"
     style="fill:#000000;fill-opacity:0;stroke:#000000;stroke-width:0.783033;stroke-dasharray:none"
     id="path1569" />
</svg>
