<?xml version="1.0" encoding="UTF-8" standalone="no"?>
<svg
   width="71mm"
   height="36mm"
   viewBox="0 0 71 36"
   version="1.1"
   id="svg1612"
   sodipodi:docname="2133.svg"
   inkscape:version="1.2.2 (b0a84865, 2022-12-01)"
   xmlns:inkscape="http://www.inkscape.org/namespaces/inkscape"
   xmlns:sodipodi="http://sodipodi.sourceforge.net/DTD/sodipodi-0.dtd"
   xmlns="http://www.w3.org/2000/svg"
   xmlns:svg="http://www.w3.org/2000/svg">
  <defs
     id="defs1616" />
  <sodipodi:namedview
     id="namedview1614"
     pagecolor="#ffffff"
     bordercolor="#000000"
     borderopacity="0.25"
     inkscape:showpageshadow="2"
     inkscape:pageopacity="0.0"
     inkscape:pagecheckerboard="0"
     inkscape:deskcolor="#d1d1d1"
     inkscape:document-units="mm"
     showgrid="false"
     inkscape:zoom="0.70555556"
     inkscape:cx="396.85039"
     inkscape:cy="39.685039"
     inkscape:window-width="1390"
     inkscape:window-height="942"
     inkscape:window-x="0"
     inkscape:window-y="25"
     inkscape:window-maximized="0"
     inkscape:current-layer="svg1612" />
  <path
     d="m 19.5,15 h 18 v 17.625 h -18 z"
     style="fill:none;stroke-width:0.264583"
     id="path1594" />
  <path
     d="M 18,11.625 H 30.75 V 24.75 H 18 Z"
     style="fill:none;stroke:#000000;stroke-width:0.965;stroke-dasharray:none;stroke-opacity:1"
     id="path1596" />
  <path
     fill="none"
     d="m 22.125,12 c -0.375,13.125 0,12.75 0,12.75 m 4.583,-13.356 c -0.375,13.125 0,12.75 0,12.75"
     style="fill:#000000;fill-opacity:0;stroke:#000000;stroke-width:0.964999"
     id="path1598" />
  <path
     fill="none"
     d="m 17.625,15.75 c 13.125,-0.375 13.5,0 13.5,0 m -13.289,4.208 c 13.125,-0.375 13.5,0 13.5,0"
     style="fill:#000000;fill-opacity:0;stroke:#000000;stroke-width:0.964999"
     id="path1600" />
  <path
     d="M 15.564,8.814 H 33.187 V 27.187 H 15.564 Z"
     style="fill:none;stroke:#000000;stroke-width:1.34229;stroke-dasharray:none;stroke-opacity:1"
     id="path1602" />
  <path
     d="m 38.625,11.625 h 12.75 V 24.75 h -12.75 z"
     style="fill:none;stroke:#000000;stroke-width:0.965;stroke-dasharray:none;stroke-opacity:1"
     id="path1604" />
  <path
     fill="none"
     d="m 42.75,12 c -0.375,13.125 0,12.75 0,12.75 m 4.583,-13.356 c -0.375,13.125 0,12.75 0,12.75"
     style="fill:#000000;fill-opacity:0;stroke:#000000;stroke-width:0.964999"
     id="path1606" />
  <path
     fill="none"
     d="m 38.25,15.75 c 13.125,-0.375 13.5,0 13.5,0 m -13.289,4.208 c 13.125,-0.375 13.5,0 13.5,0"
     style="fill:#000000;fill-opacity:0;stroke:#000000;stroke-width:0.964999"
     id="path1608" />
  <path
     d="M 36.189,8.814 H 53.812 V 27.187 H 36.189 Z"
     style="fill:none;stroke:#000000;stroke-width:1.34229;stroke-dasharray:none;stroke-opacity:1"
     id="path1610" />
</svg>
