<?xml version="1.0" encoding="UTF-8" standalone="no"?>
<svg
   width="71mm"
   height="36mm"
   viewBox="0 0 71 36"
   version="1.1"
   id="svg1668"
   sodipodi:docname="2212.svg"
   inkscape:version="1.2.2 (b0a84865, 2022-12-01)"
   xmlns:inkscape="http://www.inkscape.org/namespaces/inkscape"
   xmlns:sodipodi="http://sodipodi.sourceforge.net/DTD/sodipodi-0.dtd"
   xmlns="http://www.w3.org/2000/svg"
   xmlns:svg="http://www.w3.org/2000/svg">
  <defs
     id="defs1672" />
  <sodipodi:namedview
     id="namedview1670"
     pagecolor="#ffffff"
     bordercolor="#000000"
     borderopacity="0.25"
     inkscape:showpageshadow="2"
     inkscape:pageopacity="0.0"
     inkscape:pagecheckerboard="0"
     inkscape:deskcolor="#d1d1d1"
     inkscape:document-units="mm"
     showgrid="false"
     inkscape:zoom="0.70555556"
     inkscape:cx="396.85039"
     inkscape:cy="323.14961"
     inkscape:window-width="1390"
     inkscape:window-height="942"
     inkscape:window-x="0"
     inkscape:window-y="25"
     inkscape:window-maximized="0"
     inkscape:current-layer="svg1668" />
  <path
     d="m 52.875,75 h 18 v 17.625 h -18 z"
     style="fill:none;stroke-width:0.264583"
     id="path1654" />
  <ellipse
     cx="26.625"
     cy="17.813004"
     fill="none"
     rx="6.0609999"
     ry="6.2480001"
     style="fill:#000000;fill-opacity:0;stroke:#000000;stroke-width:0.843454"
     id="ellipse1656" />
  <path
     fill="none"
     d="M 31.125,13.125 C 34.875,9.375 34.5,9.375 34.5,9.375 M 18.108,26.321 c 3.75,-3.75 3.375,-3.75 3.375,-3.75 m 0.267,-9.446 c -3,-3 -3.75,-3 -3.75,-3"
     style="fill:#000000;fill-opacity:0;stroke:#000000;stroke-width:0.964999"
     id="path1658" />
  <path
     fill="none"
     d="M 35.058,25.891 C 31.821,22.279 31.012,22.279 31.012,22.279"
     style="fill:#000000;fill-opacity:0;stroke:#000000;stroke-width:1.09998"
     id="path1660" />
  <ellipse
     cx="45.008003"
     cy="17.660004"
     fill="none"
     rx="6.0609999"
     ry="6.2480001"
     style="fill:#000000;fill-opacity:0;stroke:#000000;stroke-width:0.843454"
     id="ellipse1662" />
  <path
     fill="none"
     d="m 49.508,12.973 c 3.75,-3.75 3.375,-3.75 3.375,-3.75 M 36.49,26.168 c 3.75,-3.75 3.376,-3.75 3.376,-3.75 m 0.267,-9.445 c -3,-3 -3.75,-3 -3.75,-3"
     style="fill:#000000;fill-opacity:0;stroke:#000000;stroke-width:0.964999"
     id="path1664" />
  <path
     fill="none"
     d="M 53.44,25.739 C 50.204,22.126 49.395,22.126 49.395,22.126"
     style="fill:#000000;fill-opacity:0;stroke:#000000;stroke-width:1.09998"
     id="path1666" />
</svg>
