<?xml version="1.0" encoding="UTF-8" standalone="no"?>
<svg
   width="71mm"
   height="36mm"
   viewBox="0 0 71 36"
   version="1.1"
   id="svg1896"
   sodipodi:docname="2232.svg"
   inkscape:version="1.2.2 (b0a84865, 2022-12-01)"
   xmlns:inkscape="http://www.inkscape.org/namespaces/inkscape"
   xmlns:sodipodi="http://sodipodi.sourceforge.net/DTD/sodipodi-0.dtd"
   xmlns="http://www.w3.org/2000/svg"
   xmlns:svg="http://www.w3.org/2000/svg">
  <defs
     id="defs1900" />
  <sodipodi:namedview
     id="namedview1898"
     pagecolor="#ffffff"
     bordercolor="#000000"
     borderopacity="0.25"
     inkscape:showpageshadow="2"
     inkscape:pageopacity="0.0"
     inkscape:pagecheckerboard="0"
     inkscape:deskcolor="#d1d1d1"
     inkscape:document-units="mm"
     showgrid="false"
     inkscape:zoom="0.70555556"
     inkscape:cx="396.85039"
     inkscape:cy="42.519685"
     inkscape:window-width="1390"
     inkscape:window-height="942"
     inkscape:window-x="0"
     inkscape:window-y="25"
     inkscape:window-maximized="0"
     inkscape:current-layer="svg1896" />
  <path
     d="m 52.875,75 h 18 v 17.625 h -18 z"
     style="fill:none;stroke-width:0.264583"
     id="path1858" />
  <ellipse
     cx="27"
     cy="18.375"
     fill="none"
     rx="6.0609999"
     ry="6.2480001"
     style="fill:#000000;fill-opacity:0;stroke:#000000;stroke-width:0.843454"
     id="ellipse1860" />
  <path
     fill="none"
     d="m 24.901,11.988 c -0.367,12.76 0,12.395 0,12.395"
     style="fill:#000000;fill-opacity:0;stroke:#000000;stroke-width:0.940626"
     id="path1862" />
  <path
     fill="none"
     d="m 29.115,12.918 c -0.394,11.584 0,11.253 0,11.253"
     style="fill:#000000;fill-opacity:0;stroke:#000000;stroke-width:0.930304"
     id="path1864" />
  <path
     fill="none"
     d="m 21.57,15.758 c 10.203,-0.41 10.494,0 10.494,0"
     style="fill:#000000;fill-opacity:0;stroke:#000000;stroke-width:0.88869"
     id="path1866" />
  <path
     fill="none"
     d="m 21.395,19.964 c 10.933,-0.4 11.245,0 11.245,0"
     style="fill:#000000;fill-opacity:0;stroke:#000000;stroke-width:0.909084"
     id="path1868" />
  <path
     d="m 40.579,70.929 h 18 v 17.625 h -18 z"
     style="fill:none;stroke-width:0.264583"
     id="path1870" />
  <ellipse
     cx="26.703999"
     cy="18.240997"
     fill="none"
     rx="6.0609999"
     ry="6.2480001"
     style="fill:#000000;fill-opacity:0;stroke:#000000;stroke-width:0.843454"
     id="ellipse1872" />
  <path
     fill="none"
     d="m 31.204,13.554 c 3.75,-3.75 3.375,-3.75 3.375,-3.75 M 18.187,26.749 c 3.75,-3.75 3.375,-3.75 3.375,-3.75 m 0.267,-9.445 c -3,-3 -3.75,-3 -3.75,-3"
     style="fill:#000000;fill-opacity:0;stroke:#000000;stroke-width:0.964999"
     id="path1874" />
  <path
     fill="none"
     d="M 35.137,26.32 C 31.9,22.707 31.091,22.707 31.091,22.707"
     style="fill:#000000;fill-opacity:0;stroke:#000000;stroke-width:1.09998"
     id="path1876" />
  <ellipse
     cx="45"
     cy="17.625"
     fill="none"
     rx="6.0609999"
     ry="6.2480001"
     style="fill:#000000;fill-opacity:0;stroke:#000000;stroke-width:0.843454"
     id="ellipse1878" />
  <path
     fill="none"
     d="m 42.901,11.238 c -0.367,12.76 0,12.395 0,12.395"
     style="fill:#000000;fill-opacity:0;stroke:#000000;stroke-width:0.940626"
     id="path1880" />
  <path
     fill="none"
     d="m 47.115,12.168 c -0.394,11.584 0,11.253 0,11.253"
     style="fill:#000000;fill-opacity:0;stroke:#000000;stroke-width:0.930304"
     id="path1882" />
  <path
     fill="none"
     d="m 39.57,15.008 c 10.203,-0.41 10.494,0 10.494,0"
     style="fill:#000000;fill-opacity:0;stroke:#000000;stroke-width:0.88869"
     id="path1884" />
  <path
     fill="none"
     d="m 39.395,19.214 c 10.933,-0.4 11.245,0 11.245,0"
     style="fill:#000000;fill-opacity:0;stroke:#000000;stroke-width:0.909084"
     id="path1886" />
  <path
     d="m 58.579,70.179 h 18 v 17.625 h -18 z"
     style="fill:none;stroke-width:0.264583"
     id="path1888" />
  <ellipse
     cx="44.704002"
     cy="17.490997"
     fill="none"
     rx="6.0609999"
     ry="6.2480001"
     style="fill:#000000;fill-opacity:0;stroke:#000000;stroke-width:0.843454"
     id="ellipse1890" />
  <path
     fill="none"
     d="m 49.204,12.804 c 3.75,-3.75 3.375,-3.75 3.375,-3.75 M 36.187,25.999 c 3.75,-3.75 3.375,-3.75 3.375,-3.75 m 0.267,-9.445 c -3,-3 -3.75,-3 -3.75,-3"
     style="fill:#000000;fill-opacity:0;stroke:#000000;stroke-width:0.964999"
     id="path1892" />
  <path
     fill="none"
     d="M 53.137,25.57 C 49.9,21.957 49.091,21.957 49.091,21.957"
     style="fill:#000000;fill-opacity:0;stroke:#000000;stroke-width:1.09998"
     id="path1894" />
</svg>
