<?xml version="1.0" encoding="UTF-8" standalone="no"?>
<svg
   width="71mm"
   height="36mm"
   viewBox="0 0 71 36"
   version="1.1"
   id="svg1952"
   sodipodi:docname="2233.svg"
   inkscape:version="1.2.2 (b0a84865, 2022-12-01)"
   xmlns:inkscape="http://www.inkscape.org/namespaces/inkscape"
   xmlns:sodipodi="http://sodipodi.sourceforge.net/DTD/sodipodi-0.dtd"
   xmlns="http://www.w3.org/2000/svg"
   xmlns:svg="http://www.w3.org/2000/svg">
  <defs
     id="defs1956" />
  <sodipodi:namedview
     id="namedview1954"
     pagecolor="#ffffff"
     bordercolor="#000000"
     borderopacity="0.25"
     inkscape:showpageshadow="2"
     inkscape:pageopacity="0.0"
     inkscape:pagecheckerboard="0"
     inkscape:deskcolor="#d1d1d1"
     inkscape:document-units="mm"
     showgrid="false"
     inkscape:zoom="0.70555556"
     inkscape:cx="396.85039"
     inkscape:cy="31.181102"
     inkscape:window-width="1390"
     inkscape:window-height="942"
     inkscape:window-x="0"
     inkscape:window-y="25"
     inkscape:window-maximized="0"
     inkscape:current-layer="svg1952" />
  <path
     d="m 52.875,75 h 18 v 17.625 h -18 z"
     style="fill:none;stroke-width:0.264583"
     id="path1924" />
  <ellipse
     cx="25.125"
     cy="18"
     fill="none"
     rx="6.0609999"
     ry="6.2480001"
     style="fill:#000000;fill-opacity:0;stroke:#000000;stroke-width:0.843454"
     id="ellipse1926" />
  <path
     fill="none"
     d="m 23.026,11.613 c -0.367,12.76 0,12.395 0,12.395"
     style="fill:#000000;fill-opacity:0;stroke:#000000;stroke-width:0.940626"
     id="path1928" />
  <path
     fill="none"
     d="m 27.24,12.543 c -0.394,11.584 0,11.253 0,11.253"
     style="fill:#000000;fill-opacity:0;stroke:#000000;stroke-width:0.930304"
     id="path1930" />
  <path
     fill="none"
     d="m 19.695,15.383 c 10.203,-0.41 10.494,0 10.494,0"
     style="fill:#000000;fill-opacity:0;stroke:#000000;stroke-width:0.88869"
     id="path1932" />
  <path
     fill="none"
     d="m 19.52,19.589 c 10.933,-0.4 11.245,0 11.245,0"
     style="fill:#000000;fill-opacity:0;stroke:#000000;stroke-width:0.909084"
     id="path1934" />
  <path
     d="m 40.28,70.44 h 18 v 17.625 h -18 z"
     style="fill:none;stroke-width:0.264583"
     id="path1936" />
  <ellipse
     cx="25.961094"
     cy="16.818378"
     fill="none"
     rx="9.0369577"
     ry="9.2230215"
     style="fill:#000000;fill-opacity:0;stroke:#000000;stroke-width:0.811404;stroke-dasharray:none"
     transform="matrix(0.99904469,0.04370021,-0.03903991,0.99923765,0,0)"
     id="ellipse1938" />
  <ellipse
     cx="45.220001"
     cy="18.434998"
     fill="none"
     rx="6.0609999"
     ry="6.2480001"
     style="fill:#000000;fill-opacity:0;stroke:#000000;stroke-width:0.843454"
     id="ellipse1940" />
  <path
     fill="none"
     d="m 43.121,12.048 c -0.366,12.76 0,12.395 0,12.395"
     style="fill:#000000;fill-opacity:0;stroke:#000000;stroke-width:0.940626"
     id="path1942" />
  <path
     fill="none"
     d="m 47.336,12.978 c -0.395,11.584 0,11.253 0,11.253"
     style="fill:#000000;fill-opacity:0;stroke:#000000;stroke-width:0.930304"
     id="path1944" />
  <path
     fill="none"
     d="m 39.79,15.818 c 10.203,-0.41 10.495,0 10.495,0"
     style="fill:#000000;fill-opacity:0;stroke:#000000;stroke-width:0.88869"
     id="path1946" />
  <path
     fill="none"
     d="m 39.616,20.024 c 10.932,-0.4 11.245,0 11.245,0"
     style="fill:#000000;fill-opacity:0;stroke:#000000;stroke-width:0.909084"
     id="path1948" />
  <ellipse
     cx="46.057999"
     cy="16.374378"
     fill="none"
     rx="9.0369577"
     ry="9.2230215"
     style="fill:#000000;fill-opacity:0;stroke:#000000;stroke-width:0.811404;stroke-dasharray:none"
     transform="matrix(0.99904469,0.04370021,-0.03903991,0.99923765,0,0)"
     id="ellipse1950" />
</svg>
