<?xml version="1.0" encoding="UTF-8" standalone="no"?>
<svg
   width="71mm"
   height="36mm"
   viewBox="0 0 71 36"
   version="1.1"
   id="svg2009"
   sodipodi:docname="2312.svg"
   inkscape:version="1.2.2 (b0a84865, 2022-12-01)"
   xmlns:inkscape="http://www.inkscape.org/namespaces/inkscape"
   xmlns:sodipodi="http://sodipodi.sourceforge.net/DTD/sodipodi-0.dtd"
   xmlns="http://www.w3.org/2000/svg"
   xmlns:svg="http://www.w3.org/2000/svg">
  <defs
     id="defs2013" />
  <sodipodi:namedview
     id="namedview2011"
     pagecolor="#ffffff"
     bordercolor="#000000"
     borderopacity="0.25"
     inkscape:showpageshadow="2"
     inkscape:pageopacity="0.0"
     inkscape:pagecheckerboard="0"
     inkscape:deskcolor="#d1d1d1"
     inkscape:document-units="mm"
     showgrid="false"
     inkscape:zoom="0.70555556"
     inkscape:cx="396.85039"
     inkscape:cy="85.03937"
     inkscape:window-width="1390"
     inkscape:window-height="942"
     inkscape:window-x="0"
     inkscape:window-y="25"
     inkscape:window-maximized="0"
     inkscape:current-layer="svg2009" />
  <path
     d="m 52.875,75 h 18 v 17.625 h -18 z"
     style="fill:none;stroke-width:0.264583"
     id="path1993" />
  <path
     fill="none"
     d="m 29.843,25.507 -6.38,-0.145 -6.381,0.088 3.316,-5.452 3.114,-5.57 3.064,5.597 z M 23.479,14.105 c 0,-4.773 0.265,-4.773 0.265,-4.773"
     style="fill:#000000;fill-opacity:0;stroke:#000000;stroke-width:0.843"
     id="path1995" />
  <path
     fill="none"
     d="m 17.438,25.032 -4.737,3.003"
     style="fill:#000000;fill-opacity:0;stroke:#000000;stroke-width:0.883;stroke-dasharray:none"
     id="path1997" />
  <path
     fill="none"
     d="m 29.317,25.229 c 4.035,2.407 4.51,3.209 4.51,3.209"
     style="fill:#000000;fill-opacity:0;stroke:#000000;stroke-width:0.800917"
     id="path1999" />
  <path
     fill="none"
     d="m 52.808,25.344 -6.38,-0.145 -6.381,0.088 3.316,-5.452 3.114,-5.57 3.064,5.597 z"
     style="fill:#000000;fill-opacity:0;stroke:#000000;stroke-width:0.843"
     id="path2001" />
  <path
     fill="none"
     d="m 46.444,13.942 c 0,-4.773 0.265,-4.773 0.265,-4.773"
     style="fill:#000000;fill-opacity:0;stroke:#000000;stroke-width:0.843"
     id="path2003" />
  <path
     fill="none"
     d="m 40.403,24.868 -4.737,3.004"
     style="fill:#000000;fill-opacity:0;stroke:#000000;stroke-width:0.883;stroke-dasharray:none"
     id="path2005" />
  <path
     fill="none"
     d="m 52.282,25.065 c 4.035,2.407 4.51,3.21 4.51,3.21"
     style="fill:#000000;fill-opacity:0;stroke:#000000;stroke-width:0.800917"
     id="path2007" />
</svg>
