<?xml version="1.0" encoding="UTF-8" standalone="no"?>
<svg
   width="71mm"
   height="36mm"
   viewBox="0 0 71 36"
   version="1.1"
   id="svg123"
   sodipodi:docname="2332.svg"
   inkscape:version="1.2.2 (b0a84865, 2022-12-01)"
   xmlns:inkscape="http://www.inkscape.org/namespaces/inkscape"
   xmlns:sodipodi="http://sodipodi.sourceforge.net/DTD/sodipodi-0.dtd"
   xmlns="http://www.w3.org/2000/svg"
   xmlns:svg="http://www.w3.org/2000/svg">
  <defs
     id="defs127" />
  <sodipodi:namedview
     id="namedview125"
     pagecolor="#ffffff"
     bordercolor="#000000"
     borderopacity="0.25"
     inkscape:showpageshadow="2"
     inkscape:pageopacity="0.0"
     inkscape:pagecheckerboard="0"
     inkscape:deskcolor="#d1d1d1"
     inkscape:document-units="mm"
     showgrid="false"
     inkscape:zoom="0.70555556"
     inkscape:cx="396.85039"
     inkscape:cy="28.346457"
     inkscape:window-width="1390"
     inkscape:window-height="942"
     inkscape:window-x="0"
     inkscape:window-y="25"
     inkscape:window-maximized="0"
     inkscape:current-layer="svg123" />
  <path
     d="m 52.875,75 h 18 v 17.625 h -18 z"
     style="fill:none;stroke-width:0.264583"
     id="path71" />
  <path
     fill="none"
     d="m 29.093,23.632 -6.38,-0.145 -6.381,0.088 3.316,-5.452 3.114,-5.57 3.064,5.597 z"
     style="fill:#000000;fill-opacity:0;stroke:#000000;stroke-width:0.843"
     id="path73" />
  <path
     d="m 17.637,13.567 h 18 v 17.625 h -18 z"
     style="fill:none;stroke-width:0.264583"
     id="path75" />
  <path
     fill="none"
     d="m 20.818,17.296 c -0.492,6.34 0,6.16 0,6.16"
     style="fill:#000000;fill-opacity:0;stroke:#000000;stroke-width:0.76885"
     id="path77" />
  <path
     fill="none"
     d="m 24.866,16.406 c -0.466,7.423 0,7.21 0,7.21"
     style="fill:#000000;fill-opacity:0;stroke:#000000;stroke-width:0.809004"
     id="path79" />
  <path
     fill="none"
     d="m 19.807,17.231 c 4.891,-0.518 5.031,0 5.031,0"
     style="fill:#000000;fill-opacity:0;stroke:#000000;stroke-width:0.692843"
     id="path81" />
  <path
     fill="none"
     d="m 18.634,20.543 c 8.507,-0.413 8.75,0 8.75,0"
     style="fill:#000000;fill-opacity:0;stroke:#000000;stroke-width:0.815745"
     id="path83" />
  <path
     fill="none"
     d="m 22.624,12.332 c 0,-4.7729997 0.266,-4.7729997 0.266,-4.7729997"
     style="fill:#000000;fill-opacity:0;stroke:#000000;stroke-width:0.843"
     id="path85" />
  <path
     fill="none"
     d="m 16.584,23.258 -4.737,3.004"
     style="fill:#000000;fill-opacity:0;stroke:#000000;stroke-width:0.883;stroke-dasharray:none"
     id="path87" />
  <path
     fill="none"
     d="m 28.462,23.456 c 4.035,2.407 4.51,3.209 4.51,3.209"
     style="fill:#000000;fill-opacity:0;stroke:#000000;stroke-width:0.800917"
     id="path89" />
  <path
     fill="none"
     d="m 52.163,23.632 -6.38,-0.145 -6.381,0.088 3.316,-5.452 3.114,-5.57 3.064,5.597 z"
     style="fill:#000000;fill-opacity:0;stroke:#000000;stroke-width:0.843"
     id="path91" />
  <path
     fill="none"
     d="m 43.888,17.296 c -0.493,6.34 0,6.16 0,6.16"
     style="fill:#000000;fill-opacity:0;stroke:#000000;stroke-width:0.76885"
     id="path93" />
  <path
     fill="none"
     d="m 47.935,16.406 c -0.466,7.423 0,7.21 0,7.21"
     style="fill:#000000;fill-opacity:0;stroke:#000000;stroke-width:0.809004"
     id="path95" />
  <path
     fill="none"
     d="m 42.876,17.231 c 4.892,-0.518 5.032,0 5.032,0"
     style="fill:#000000;fill-opacity:0;stroke:#000000;stroke-width:0.692843"
     id="path97" />
  <path
     fill="none"
     d="m 41.703,20.543 c 8.507,-0.413 8.75,0 8.75,0"
     style="fill:#000000;fill-opacity:0;stroke:#000000;stroke-width:0.815745"
     id="path99" />
  <path
     fill="none"
     d="m 45.694,12.332 c 0,-4.7729997 0.265,-4.7729997 0.265,-4.7729997"
     style="fill:#000000;fill-opacity:0;stroke:#000000;stroke-width:0.843"
     id="path101" />
  <path
     fill="none"
     d="m 39.653,23.258 -4.737,3.004"
     style="fill:#000000;fill-opacity:0;stroke:#000000;stroke-width:0.883;stroke-dasharray:none"
     id="path103" />
  <path
     fill="none"
     d="m 51.532,23.456 c 4.035,2.407 4.51,3.209 4.51,3.209"
     style="fill:#000000;fill-opacity:0;stroke:#000000;stroke-width:0.800917"
     id="path105" />
</svg>
