<?xml version="1.0" encoding="UTF-8" standalone="no"?>
<svg
   width="71mm"
   height="36mm"
   viewBox="0 0 71 36"
   version="1.1"
   id="svg2270"
   sodipodi:docname="2333.svg"
   inkscape:version="1.2.2 (b0a84865, 2022-12-01)"
   xmlns:inkscape="http://www.inkscape.org/namespaces/inkscape"
   xmlns:sodipodi="http://sodipodi.sourceforge.net/DTD/sodipodi-0.dtd"
   xmlns="http://www.w3.org/2000/svg"
   xmlns:svg="http://www.w3.org/2000/svg">
  <defs
     id="defs2274" />
  <sodipodi:namedview
     id="namedview2272"
     pagecolor="#ffffff"
     bordercolor="#000000"
     borderopacity="0.25"
     inkscape:showpageshadow="2"
     inkscape:pageopacity="0.0"
     inkscape:pagecheckerboard="0"
     inkscape:deskcolor="#d1d1d1"
     inkscape:document-units="mm"
     showgrid="false"
     inkscape:zoom="0.70555556"
     inkscape:cx="396.85039"
     inkscape:cy="31.181102"
     inkscape:window-width="1390"
     inkscape:window-height="942"
     inkscape:window-x="0"
     inkscape:window-y="25"
     inkscape:window-maximized="0"
     inkscape:current-layer="svg2270" />
  <path
     d="m 29.219,13.003 h 18 v 17.625 h -18 z"
     style="fill:none;stroke-width:0.264583"
     id="path2242" />
  <path
     fill="none"
     d="m 30.968,25.507 -6.38,-0.145 -6.381,0.088 3.316,-5.452 3.114,-5.57 3.064,5.597 z"
     style="fill:#000000;fill-opacity:0;stroke:#000000;stroke-width:0.843"
     id="path2244" />
  <path
     d="m 19.512,15.442 h 18 v 17.625 h -18 z"
     style="fill:none;stroke-width:0.264583"
     id="path2246" />
  <path
     fill="none"
     d="m 22.693,19.171 c -0.492,6.34 0,6.16 0,6.16"
     style="fill:#000000;fill-opacity:0;stroke:#000000;stroke-width:0.76885"
     id="path2248" />
  <path
     fill="none"
     d="m 26.741,18.281 c -0.466,7.423 0,7.21 0,7.21"
     style="fill:#000000;fill-opacity:0;stroke:#000000;stroke-width:0.809004"
     id="path2250" />
  <path
     fill="none"
     d="m 21.682,19.106 c 4.891,-0.518 5.031,0 5.031,0"
     style="fill:#000000;fill-opacity:0;stroke:#000000;stroke-width:0.692843"
     id="path2252" />
  <path
     fill="none"
     d="m 20.509,22.418 c 8.507,-0.413 8.75,0 8.75,0"
     style="fill:#000000;fill-opacity:0;stroke:#000000;stroke-width:0.815745"
     id="path2254" />
  <path
     fill="none"
     d="m 24.603,11.337 4.338,7.84 4.621,7.677 -8.959,-0.164 -8.959,0.164 4.622,-7.676 z"
     style="fill:#000000;fill-opacity:0;stroke:#000000;stroke-width:0.843"
     id="path2256" />
  <path
     fill="none"
     d="m 51.651,25.507 -6.38,-0.145 -6.381,0.088 3.316,-5.452 3.114,-5.57 3.064,5.597 z"
     style="fill:#000000;fill-opacity:0;stroke:#000000;stroke-width:0.843"
     id="path2258" />
  <path
     fill="none"
     d="m 43.376,19.171 c -0.492,6.34 0,6.16 0,6.16"
     style="fill:#000000;fill-opacity:0;stroke:#000000;stroke-width:0.76885"
     id="path2260" />
  <path
     fill="none"
     d="m 47.423,18.281 c -0.466,7.423 0,7.21 0,7.21"
     style="fill:#000000;fill-opacity:0;stroke:#000000;stroke-width:0.809004"
     id="path2262" />
  <path
     fill="none"
     d="m 42.365,19.106 c 4.891,-0.518 5.031,0 5.031,0"
     style="fill:#000000;fill-opacity:0;stroke:#000000;stroke-width:0.692843"
     id="path2264" />
  <path
     fill="none"
     d="m 41.192,22.418 c 8.506,-0.413 8.75,0 8.75,0"
     style="fill:#000000;fill-opacity:0;stroke:#000000;stroke-width:0.815745"
     id="path2266" />
  <path
     fill="none"
     d="m 45.286,11.337 4.338,7.84 4.621,7.677 -8.959,-0.164 -8.959,0.164 4.622,-7.676 z"
     style="fill:#000000;fill-opacity:0;stroke:#000000;stroke-width:0.843"
     id="path2268" />
</svg>
