<?xml version="1.0" encoding="UTF-8" standalone="no"?>
<svg
   width="71mm"
   height="36mm"
   viewBox="0 0 71 36"
   version="1.1"
   id="svg2374"
   sodipodi:docname="3112.svg"
   inkscape:version="1.2.2 (b0a84865, 2022-12-01)"
   xmlns:inkscape="http://www.inkscape.org/namespaces/inkscape"
   xmlns:sodipodi="http://sodipodi.sourceforge.net/DTD/sodipodi-0.dtd"
   xmlns="http://www.w3.org/2000/svg"
   xmlns:svg="http://www.w3.org/2000/svg">
  <defs
     id="defs2378" />
  <sodipodi:namedview
     id="namedview2376"
     pagecolor="#ffffff"
     bordercolor="#000000"
     borderopacity="0.25"
     inkscape:showpageshadow="2"
     inkscape:pageopacity="0.0"
     inkscape:pagecheckerboard="0"
     inkscape:deskcolor="#d1d1d1"
     inkscape:document-units="mm"
     showgrid="false"
     inkscape:zoom="0.70555556"
     inkscape:cx="396.85039"
     inkscape:cy="42.519685"
     inkscape:window-width="1390"
     inkscape:window-height="942"
     inkscape:window-x="0"
     inkscape:window-y="25"
     inkscape:window-maximized="0"
     inkscape:current-layer="svg2374" />
  <path
     d="m 8.25,16.125 h 18 V 33.75 h -18 z"
     style="fill:none;stroke-width:0.264583"
     id="path2308" />
  <path
     d="M 6.75,12.75 H 19.5 V 25.875 H 6.75 Z"
     style="fill:none;stroke:#000000;stroke-width:0.965;stroke-dasharray:none;stroke-opacity:1"
     id="path2310" />
  <path
     fill="none"
     d="m 6.375,12.375 -3,-2.625 V 9.375 m 19.582,19.318 -3,-2.625 v -0.375"
     style="fill:#000000;fill-opacity:0;stroke:#000000;stroke-width:0.964999"
     id="path2312" />
  <path
     fill="none"
     d="M 19.919,12.439 23.376,9.241 V 8.784 M 3.084,29.059 6.541,25.861 v -0.457"
     style="fill:#000000;fill-opacity:0;stroke:#000000;stroke-width:0.783033;stroke-dasharray:none"
     id="path2314" />
  <path
     d="m 30.841,15.483 h 18 v 17.625 h -18 z"
     style="fill:none;stroke-width:0.264583"
     id="path2316" />
  <path
     d="m 29.341,12.108 h 12.75 v 13.125 h -12.75 z"
     style="fill:none;stroke:#000000;stroke-width:0.965;stroke-dasharray:none;stroke-opacity:1"
     id="path2318" />
  <path
     fill="none"
     d="m 28.966,11.733 -3,-2.625 V 8.733 m 19.583,19.319 -3,-2.625 v -0.375"
     style="fill:#000000;fill-opacity:0;stroke:#000000;stroke-width:0.964999"
     id="path2320" />
  <path
     fill="none"
     d="M 42.51,11.797 45.968,8.599 V 8.142 m -20.293,20.275 3.457,-3.198 v -0.457"
     style="fill:#000000;fill-opacity:0;stroke:#000000;stroke-width:0.783033;stroke-dasharray:none"
     id="path2322" />
  <g
     fill="none"
     stroke="none"
     style="fill:#000000;fill-opacity:0;stroke:#000000;stroke-width:3.64724"
     id="g2336">
    <path
       d="m 45.41,118.923 15.558,-10.134 v 27.517 l -15.558,3.112 z"
       style="fill:#e9e9ff;fill-rule:evenodd;stroke:none;stroke-linejoin:round"
       id="path2324" />
    <path
       d="m 32.625,116.625 v 22.087 l 12.785,0.706 v -20.495 z"
       style="fill:#353564;fill-rule:evenodd;stroke:none;stroke-linejoin:round"
       id="path2326" />
    <path
       d="M 32.625,116.625 45,104.535 60.968,108.789 45.41,118.923 Z"
       style="fill:#4d4d9f;fill-rule:evenodd;stroke:none;stroke-linejoin:round"
       id="path2328" />
    <path
       d="M 32.625,138.713 45,135 l 15.968,1.306 -15.558,3.112 z"
       style="fill:#afafde;fill-rule:evenodd;stroke:none;stroke-linejoin:round"
       id="path2330" />
    <path
       d="M 45,104.534 V 135 l 15.968,1.306 V 108.79 Z"
       style="fill:#d7d7ff;fill-rule:evenodd;stroke:none;stroke-linejoin:round"
       id="path2332" />
    <path
       d="M 32.625,116.625 45,104.535 V 135 l -12.375,3.712 z"
       style="fill:#8686bf;fill-rule:evenodd;stroke:none;stroke-linejoin:round"
       id="path2334" />
  </g>
  <g
     fill="none"
     stroke="none"
     style="fill:#000000;fill-opacity:0;stroke:#000000;stroke-width:3.64724"
     id="g2350">
    <path
       d="M 45.41,129.362 70,118.998 V 156.5 l -24.59,-2.81 z"
       style="fill:#e9e9ff;fill-rule:evenodd;stroke:none;stroke-linejoin:round"
       id="path2338" />
    <path
       d="m 32.625,127.875 v 26.218 L 45.41,153.69 v -24.328 z"
       style="fill:#353564;fill-rule:evenodd;stroke:none;stroke-linejoin:round"
       id="path2340" />
    <path
       d="M 32.625,154.093 52.5,157.5 70,156.5 45.41,153.69 Z"
       style="fill:#afafde;fill-rule:evenodd;stroke:none;stroke-linejoin:round"
       id="path2342" />
    <path
       d="M 32.625,127.875 52.5,115.31 70,118.998 45.41,129.362 Z"
       style="fill:#4d4d9f;fill-rule:evenodd;stroke:none;stroke-linejoin:round"
       id="path2344" />
    <path
       d="m 52.5,115.31 v 42.19 l 17.5,-1 v -37.502 z"
       style="fill:#d7d7ff;fill-rule:evenodd;stroke:none;stroke-linejoin:round"
       id="path2346" />
    <path
       d="M 32.625,127.875 52.5,115.31 v 42.19 l -19.875,-3.407 z"
       style="fill:#8686bf;fill-rule:evenodd;stroke:none;stroke-linejoin:round"
       id="path2348" />
  </g>
  <g
     fill="none"
     stroke="none"
     style="fill:#000000;fill-opacity:0;stroke:#000000;stroke-width:3.64724"
     id="g2364"
     transform="translate(-44.625,-58.875)">
    <path
       d="m 81.322,77.956 2.97,-2.577 v 1.984 l -2.97,2.507 z"
       style="fill:#e9e9ff;fill-rule:evenodd;stroke:none;stroke-linejoin:round"
       id="path2352" />
    <path
       d="m 62.25,67.5 v 2.198 L 81.322,79.87 v -1.914 z"
       style="fill:#353564;fill-rule:evenodd;stroke:none;stroke-linejoin:round"
       id="path2354" />
    <path
       d="m 62.25,67.5 2.625,-3.416 19.417,11.296 -2.97,2.577 z"
       style="fill:#4d4d9f;fill-rule:evenodd;stroke:none;stroke-linejoin:round"
       id="path2356" />
    <path
       d="m 62.25,69.698 2.625,-3.323 19.417,10.988 -2.97,2.507 z"
       style="fill:#afafde;fill-rule:evenodd;stroke:none;stroke-linejoin:round"
       id="path2358" />
    <path
       d="m 64.875,64.084 v 2.291 L 84.292,77.363 V 75.38 Z"
       style="fill:#d7d7ff;fill-rule:evenodd;stroke:none;stroke-linejoin:round"
       id="path2360" />
    <path
       d="m 62.25,67.5 2.625,-3.416 v 2.291 l -2.625,3.323 z"
       style="fill:#8686bf;fill-rule:evenodd;stroke:none;stroke-linejoin:round"
       id="path2362" />
  </g>
  <path
     d="m 52.966,15.483 h 18 v 17.625 h -18 z"
     style="fill:none;stroke-width:0.264583"
     id="path2366" />
  <path
     d="m 51.466,12.108 h 12.75 v 13.125 h -12.75 z"
     style="fill:none;stroke:#000000;stroke-width:0.965;stroke-dasharray:none;stroke-opacity:1"
     id="path2368" />
  <path
     fill="none"
     d="m 51.091,11.733 -3,-2.625 V 8.733 m 19.583,19.319 -3,-2.625 v -0.375"
     style="fill:#000000;fill-opacity:0;stroke:#000000;stroke-width:0.964999"
     id="path2370" />
  <path
     fill="none"
     d="M 64.635,11.797 68.093,8.599 V 8.142 M 47.8,28.417 51.257,25.219 v -0.457"
     style="fill:#000000;fill-opacity:0;stroke:#000000;stroke-width:0.783033;stroke-dasharray:none"
     id="path2372" />
</svg>
