<?xml version="1.0" encoding="UTF-8" standalone="no"?>
<svg
   width="71mm"
   height="36mm"
   viewBox="0 0 71 36"
   version="1.1"
   id="svg2500"
   sodipodi:docname="3122.svg"
   inkscape:version="1.2.2 (b0a84865, 2022-12-01)"
   xmlns:inkscape="http://www.inkscape.org/namespaces/inkscape"
   xmlns:sodipodi="http://sodipodi.sourceforge.net/DTD/sodipodi-0.dtd"
   xmlns="http://www.w3.org/2000/svg"
   xmlns:svg="http://www.w3.org/2000/svg">
  <defs
     id="defs2504" />
  <sodipodi:namedview
     id="namedview2502"
     pagecolor="#ffffff"
     bordercolor="#000000"
     borderopacity="0.25"
     inkscape:showpageshadow="2"
     inkscape:pageopacity="0.0"
     inkscape:pagecheckerboard="0"
     inkscape:deskcolor="#d1d1d1"
     inkscape:document-units="mm"
     showgrid="false"
     inkscape:zoom="0.70555556"
     inkscape:cx="396.85039"
     inkscape:cy="269.29134"
     inkscape:window-width="1390"
     inkscape:window-height="942"
     inkscape:window-x="0"
     inkscape:window-y="25"
     inkscape:window-maximized="0"
     inkscape:current-layer="svg2500" />
  <path
     d="M 9,16.5 H 27 V 34.125 H 9 Z"
     style="fill:none;stroke-width:0.264583"
     id="path2464" />
  <path
     d="M 7.5,13.125 H 20.25 V 26.25 H 7.5 Z"
     style="fill:#000000;stroke:#000000;stroke-width:0.965;stroke-dasharray:none;stroke-opacity:1"
     id="path2466" />
  <path
     d="m 8.716,15.858 h 18 v 17.625 h -18 z"
     style="fill:none;stroke-width:0.264583"
     id="path2468" />
  <path
     d="m 7.216,12.483 h 12.75 V 25.608 H 7.216 Z"
     style="fill:none;stroke:#000000;stroke-width:0.965;stroke-dasharray:none;stroke-opacity:1"
     id="path2470" />
  <path
     fill="none"
     d="m 6.841,12.108 -3,-2.625 V 9.108 m 19.583,19.319 -3,-2.625 v -0.375"
     style="fill:#000000;fill-opacity:0;stroke:#000000;stroke-width:0.964999"
     id="path2472" />
  <path
     fill="none"
     d="M 20.385,12.172 23.843,8.974 V 8.517 M 3.55,28.792 7.007,25.594 v -0.457"
     style="fill:#000000;fill-opacity:0;stroke:#000000;stroke-width:0.783033;stroke-dasharray:none"
     id="path2474" />
  <path
     d="m 30.983,16.179 h 18 v 17.625 h -18 z"
     style="fill:none;stroke-width:0.264583"
     id="path2476" />
  <path
     d="m 29.483,12.804 h 12.75 v 13.125 h -12.75 z"
     style="fill:#000000;stroke:#000000;stroke-width:0.965;stroke-dasharray:none;stroke-opacity:1"
     id="path2478" />
  <path
     d="m 30.699,15.537 h 18 v 17.625 h -18 z"
     style="fill:none;stroke-width:0.264583"
     id="path2480" />
  <path
     d="m 29.199,12.162 h 12.75 v 13.125 h -12.75 z"
     style="fill:none;stroke:#000000;stroke-width:0.965;stroke-dasharray:none;stroke-opacity:1"
     id="path2482" />
  <path
     fill="none"
     d="m 28.825,11.787 -3,-2.625 V 8.787 m 19.582,19.319 -3,-2.625 v -0.375"
     style="fill:#000000;fill-opacity:0;stroke:#000000;stroke-width:0.964999"
     id="path2484" />
  <path
     fill="none"
     d="M 42.368,11.851 45.826,8.653 V 8.196 M 25.533,28.471 28.99,25.273 v -0.457"
     style="fill:#000000;fill-opacity:0;stroke:#000000;stroke-width:0.783033;stroke-dasharray:none"
     id="path2486" />
  <path
     d="m 96.983,74.304 h 18 v 17.625 h -18 z"
     style="fill:none;stroke-width:0.264583"
     id="path2488" />
  <path
     d="m 51.608,12.429 h 12.75 v 13.125 h -12.75 z"
     style="fill:#000000;stroke:#000000;stroke-width:0.965;stroke-dasharray:none;stroke-opacity:1"
     id="path2490" />
  <path
     d="m 52.824,15.162 h 18 v 17.625 h -18 z"
     style="fill:none;stroke-width:0.264583"
     id="path2492" />
  <path
     d="m 51.324,11.787 h 12.75 v 13.125 h -12.75 z"
     style="fill:none;stroke:#000000;stroke-width:0.965;stroke-dasharray:none;stroke-opacity:1"
     id="path2494" />
  <path
     fill="none"
     d="m 50.949,11.412 -3,-2.625 V 8.412 m 19.583,19.318 -3,-2.624 v -0.375"
     style="fill:#000000;fill-opacity:0;stroke:#000000;stroke-width:0.964999"
     id="path2496" />
  <path
     fill="none"
     d="M 64.493,11.476 67.951,8.278 V 7.821 m -20.293,20.275 3.457,-3.198 v -0.457"
     style="fill:#000000;fill-opacity:0;stroke:#000000;stroke-width:0.783033;stroke-dasharray:none"
     id="path2498" />
</svg>
