<?xml version="1.0" encoding="UTF-8" standalone="no"?>
<svg
   width="71mm"
   height="36mm"
   viewBox="0 0 71 36"
   version="1.1"
   id="svg440"
   sodipodi:docname="3132.svg"
   inkscape:version="1.2.2 (b0a84865, 2022-12-01)"
   xmlns:inkscape="http://www.inkscape.org/namespaces/inkscape"
   xmlns:sodipodi="http://sodipodi.sourceforge.net/DTD/sodipodi-0.dtd"
   xmlns="http://www.w3.org/2000/svg"
   xmlns:svg="http://www.w3.org/2000/svg">
  <defs
     id="defs444" />
  <sodipodi:namedview
     id="namedview442"
     pagecolor="#ffffff"
     bordercolor="#000000"
     borderopacity="0.25"
     inkscape:showpageshadow="2"
     inkscape:pageopacity="0.0"
     inkscape:pagecheckerboard="0"
     inkscape:deskcolor="#d1d1d1"
     inkscape:document-units="mm"
     showgrid="false"
     inkscape:zoom="0.70555556"
     inkscape:cx="396.85039"
     inkscape:cy="184.25197"
     inkscape:window-width="1390"
     inkscape:window-height="942"
     inkscape:window-x="378"
     inkscape:window-y="38"
     inkscape:window-maximized="0"
     inkscape:current-layer="svg440" />
  <path
     d="M 9,15 H 27 V 32.625 H 9 Z"
     style="fill:none;stroke-width:0.264583"
     id="path398" />
  <path
     d="M 7.5,11.625 H 20.25 V 24.75 H 7.5 Z"
     style="fill:none;stroke:#000000;stroke-width:0.965;stroke-dasharray:none;stroke-opacity:1"
     id="path400" />
  <path
     fill="none"
     d="m 11.625,12 c -0.375,13.125 0,12.75 0,12.75 m 4.583,-13.356 c -0.375,13.125 0,12.75 0,12.75"
     style="fill:#000000;fill-opacity:0;stroke:#000000;stroke-width:0.964999"
     id="path402" />
  <path
     fill="none"
     d="m 7.125,15.75 c 13.125,-0.375 13.5,0 13.5,0 M 7.336,19.958 c 13.125,-0.375 13.5,0 13.5,0"
     style="fill:#000000;fill-opacity:0;stroke:#000000;stroke-width:0.964999"
     id="path404" />
  <path
     d="m 8.716,14.733 h 18 v 17.625 h -18 z"
     style="fill:none;stroke-width:0.264583"
     id="path406" />
  <path
     fill="none"
     d="m 7.216,11.358 -3,-2.625 V 8.358 m 19.208,18.944 -3,-2.625 v -0.375"
     style="fill:#000000;fill-opacity:0;stroke:#000000;stroke-width:0.964999"
     id="path408" />
  <path
     fill="none"
     d="M 20.385,11.047 23.843,7.849 V 7.392 M 3.55,27.667 7.007,24.469 v -0.457"
     style="fill:#000000;fill-opacity:0;stroke:#000000;stroke-width:0.783033;stroke-dasharray:none"
     id="path410" />
  <path
     d="m 30.983,14.492 h 18 v 17.625 h -18 z"
     style="fill:none;stroke-width:0.264583"
     id="path412" />
  <path
     d="m 29.483,11.117 h 12.75 v 13.125 h -12.75 z"
     style="fill:none;stroke:#000000;stroke-width:0.965;stroke-dasharray:none;stroke-opacity:1"
     id="path414" />
  <path
     fill="none"
     d="m 33.608,11.492 c -0.375,13.125 0,12.75 0,12.75 m 4.584,-13.357 c -0.375,13.125 0,12.75 0,12.75"
     style="fill:#000000;fill-opacity:0;stroke:#000000;stroke-width:0.964999"
     id="path416" />
  <path
     fill="none"
     d="m 29.108,15.242 c 13.125,-0.375 13.5,0 13.5,0 M 29.319,19.45 c 13.125,-0.375 13.5,0 13.5,0"
     style="fill:#000000;fill-opacity:0;stroke:#000000;stroke-width:0.964999"
     id="path418" />
  <path
     d="m 30.699,14.225 h 18 V 31.85 h -18 z"
     style="fill:none;stroke-width:0.264583"
     id="path420" />
  <path
     fill="none"
     d="m 29.199,10.85 -3,-2.625 V 7.85 m 19.208,18.943 -3,-2.625 v -0.375"
     style="fill:#000000;fill-opacity:0;stroke:#000000;stroke-width:0.964999"
     id="path422" />
  <path
     fill="none"
     d="M 42.368,10.539 45.826,7.34 V 6.883 M 25.533,27.159 28.99,23.96 v -0.457"
     style="fill:#000000;fill-opacity:0;stroke:#000000;stroke-width:0.783033;stroke-dasharray:none"
     id="path424" />
  <path
     d="m 52.358,14.117 h 18 v 17.625 h -18 z"
     style="fill:none;stroke-width:0.264583"
     id="path426" />
  <path
     d="m 50.858,10.742 h 12.75 v 13.125 h -12.75 z"
     style="fill:none;stroke:#000000;stroke-width:0.965;stroke-dasharray:none;stroke-opacity:1"
     id="path428" />
  <path
     fill="none"
     d="m 54.983,11.117 c -0.375,13.125 0,12.75 0,12.75 M 59.567,10.51 c -0.375,13.125 0,12.75 0,12.75"
     style="fill:#000000;fill-opacity:0;stroke:#000000;stroke-width:0.964999"
     id="path430" />
  <path
     fill="none"
     d="m 50.483,14.867 c 13.125,-0.375 13.5,0 13.5,0 m -13.288,4.208 c 13.124,-0.375 13.5,0 13.5,0"
     style="fill:#000000;fill-opacity:0;stroke:#000000;stroke-width:0.964999"
     id="path432" />
  <path
     d="m 52.074,13.85 h 18 v 17.625 h -18 z"
     style="fill:none;stroke-width:0.264583"
     id="path434" />
  <path
     fill="none"
     d="m 50.575,10.475 -3,-2.625 V 7.475 m 19.207,18.943 -3,-2.625 v -0.375"
     style="fill:#000000;fill-opacity:0;stroke:#000000;stroke-width:0.964999"
     id="path436" />
  <path
     fill="none"
     d="M 63.743,10.164 67.201,6.965 V 6.508 m -20.293,20.276 3.457,-3.199 v -0.457"
     style="fill:#000000;fill-opacity:0;stroke:#000000;stroke-width:0.783033;stroke-dasharray:none"
     id="path438" />
</svg>
