<?xml version="1.0" encoding="UTF-8" standalone="no"?>
<svg
   width="71mm"
   height="36mm"
   viewBox="0 0 71 36"
   version="1.1"
   id="svg2652"
   sodipodi:docname="3133.svg"
   inkscape:version="1.2.2 (b0a84865, 2022-12-01)"
   xmlns:inkscape="http://www.inkscape.org/namespaces/inkscape"
   xmlns:sodipodi="http://sodipodi.sourceforge.net/DTD/sodipodi-0.dtd"
   xmlns="http://www.w3.org/2000/svg"
   xmlns:svg="http://www.w3.org/2000/svg">
  <defs
     id="defs2656" />
  <sodipodi:namedview
     id="namedview2654"
     pagecolor="#ffffff"
     bordercolor="#000000"
     borderopacity="0.25"
     inkscape:showpageshadow="2"
     inkscape:pageopacity="0.0"
     inkscape:pagecheckerboard="0"
     inkscape:deskcolor="#d1d1d1"
     inkscape:document-units="mm"
     showgrid="false"
     inkscape:zoom="0.70555556"
     inkscape:cx="396.85039"
     inkscape:cy="323.14961"
     inkscape:window-width="1390"
     inkscape:window-height="942"
     inkscape:window-x="0"
     inkscape:window-y="25"
     inkscape:window-maximized="0"
     inkscape:current-layer="svg2652" />
  <path
     d="m 10.5,16.5 h 18 v 17.625 h -18 z"
     style="fill:none;stroke-width:0.264583"
     id="path2626" />
  <path
     d="M 9,13.125 H 21.75 V 26.25 H 9 Z"
     style="fill:none;stroke:#000000;stroke-width:0.965;stroke-dasharray:none;stroke-opacity:1"
     id="path2628" />
  <path
     fill="none"
     d="m 13.125,13.5 c -0.375,13.125 0,12.75 0,12.75 m 4.583,-13.356 c -0.375,13.125 0,12.75 0,12.75"
     style="fill:#000000;fill-opacity:0;stroke:#000000;stroke-width:0.964999"
     id="path2630" />
  <path
     fill="none"
     d="m 8.625,17.25 c 13.125,-0.375 13.5,0 13.5,0 M 8.836,21.458 c 13.125,-0.375 13.5,0 13.5,0"
     style="fill:#000000;fill-opacity:0;stroke:#000000;stroke-width:0.964999"
     id="path2632" />
  <path
     d="M 6.564,10.314 H 24.187 V 28.687 H 6.564 Z"
     style="fill:none;stroke:#000000;stroke-width:1.34229;stroke-dasharray:none;stroke-opacity:1"
     id="path2634" />
  <path
     d="m 29.625,13.125 h 12.75 V 26.25 h -12.75 z"
     style="fill:none;stroke:#000000;stroke-width:0.965;stroke-dasharray:none;stroke-opacity:1"
     id="path2636" />
  <path
     fill="none"
     d="m 33.75,13.5 c -0.375,13.125 0,12.75 0,12.75 m 4.583,-13.356 c -0.375,13.125 0,12.75 0,12.75"
     style="fill:#000000;fill-opacity:0;stroke:#000000;stroke-width:0.964999"
     id="path2638" />
  <path
     fill="none"
     d="m 29.25,17.25 c 13.125,-0.375 13.5,0 13.5,0 m -13.289,4.208 c 13.125,-0.375 13.5,0 13.5,0"
     style="fill:#000000;fill-opacity:0;stroke:#000000;stroke-width:0.964999"
     id="path2640" />
  <path
     d="M 27.189,10.314 H 44.812 V 28.687 H 27.189 Z"
     style="fill:none;stroke:#000000;stroke-width:1.34229;stroke-dasharray:none;stroke-opacity:1"
     id="path2642" />
  <path
     d="M 50.25,13.125 H 63 V 26.25 H 50.25 Z"
     style="fill:none;stroke:#000000;stroke-width:0.965;stroke-dasharray:none;stroke-opacity:1"
     id="path2644" />
  <path
     fill="none"
     d="m 54.375,13.5 c -0.375,13.125 0,12.75 0,12.75 m 4.583,-13.356 c -0.375,13.125 0,12.75 0,12.75"
     style="fill:#000000;fill-opacity:0;stroke:#000000;stroke-width:0.964999"
     id="path2646" />
  <path
     fill="none"
     d="m 49.875,17.25 c 13.125,-0.375 13.5,0 13.5,0 m -13.289,4.208 c 13.125,-0.375 13.5,0 13.5,0"
     style="fill:#000000;fill-opacity:0;stroke:#000000;stroke-width:0.964999"
     id="path2648" />
  <path
     d="M 47.814,10.314 H 65.437 V 28.687 H 47.814 Z"
     style="fill:none;stroke:#000000;stroke-width:1.34229;stroke-dasharray:none;stroke-opacity:1"
     id="path2650" />
</svg>
