<?xml version="1.0" encoding="UTF-8" standalone="no"?>
<svg
   width="71mm"
   height="36mm"
   viewBox="0 0 71 36"
   version="1.1"
   id="svg2836"
   sodipodi:docname="3222.svg"
   inkscape:version="1.2.2 (b0a84865, 2022-12-01)"
   xmlns:inkscape="http://www.inkscape.org/namespaces/inkscape"
   xmlns:sodipodi="http://sodipodi.sourceforge.net/DTD/sodipodi-0.dtd"
   xmlns:xlink="http://www.w3.org/1999/xlink"
   xmlns="http://www.w3.org/2000/svg"
   xmlns:svg="http://www.w3.org/2000/svg">
  <sodipodi:namedview
     id="namedview2838"
     pagecolor="#ffffff"
     bordercolor="#000000"
     borderopacity="0.25"
     inkscape:showpageshadow="2"
     inkscape:pageopacity="0.0"
     inkscape:pagecheckerboard="0"
     inkscape:deskcolor="#d1d1d1"
     inkscape:document-units="mm"
     showgrid="false"
     inkscape:zoom="0.70555556"
     inkscape:cx="396.85039"
     inkscape:cy="323.14961"
     inkscape:window-width="1390"
     inkscape:window-height="942"
     inkscape:window-x="0"
     inkscape:window-y="25"
     inkscape:window-maximized="0"
     inkscape:current-layer="svg2836" />
  <defs
     id="defs2814">
    <linearGradient
       id="a">
      <stop
         offset="0"
         style="stop-color:#000;stop-opacity:1"
         id="stop2808" />
    </linearGradient>
    <linearGradient
       xlink:href="#a"
       id="b"
       x1="61.391998"
       x2="74.357002"
       y1="77.438004"
       y2="77.438004"
       gradientUnits="userSpaceOnUse"
       gradientTransform="translate(-50.25,-57.75)" />
    <linearGradient
       xlink:href="#a"
       id="c"
       x1="61.391998"
       x2="74.357002"
       y1="77.438004"
       y2="77.438004"
       gradientTransform="translate(-31.867,-57.902)"
       gradientUnits="userSpaceOnUse" />
    <linearGradient
       xlink:href="#a"
       id="d"
       x1="61.391998"
       x2="74.357002"
       y1="77.438004"
       y2="77.438004"
       gradientTransform="translate(-13.492,-58.277)"
       gradientUnits="userSpaceOnUse" />
  </defs>
  <path
     d="m 52.875,75 h 18 v 17.625 h -18 z"
     style="fill:none;stroke-width:0.264583"
     id="path2816" />
  <ellipse
     cx="17.625"
     cy="19.688004"
     rx="6.0609999"
     ry="6.2480001"
     style="fill:url(#b);fill-opacity:1;stroke:#000000;stroke-width:0.843454"
     id="ellipse2818" />
  <path
     fill="none"
     d="M 22.125,15 C 25.875,11.25 25.5,11.25 25.5,11.25 M 9.108,28.196 c 3.75,-3.75 3.375,-3.75 3.375,-3.75 M 12.75,15 C 9.75,12 9,12 9,12"
     style="fill:#000000;fill-opacity:0;stroke:#000000;stroke-width:0.964999"
     id="path2820" />
  <path
     fill="none"
     d="M 26.058,27.766 C 22.821,24.154 22.012,24.154 22.012,24.154"
     style="fill:#000000;fill-opacity:0;stroke:#000000;stroke-width:1.09998"
     id="path2822" />
  <ellipse
     cx="36.008003"
     cy="19.535004"
     rx="6.0609999"
     ry="6.2480001"
     style="fill:url(#c);fill-opacity:1;stroke:#000000;stroke-width:0.843454"
     id="ellipse2824" />
  <path
     fill="none"
     d="m 40.508,14.848 c 3.75,-3.75 3.375,-3.75 3.375,-3.75 M 27.49,28.043 c 3.75,-3.75 3.376,-3.75 3.376,-3.75 m 0.267,-9.445 c -3,-3 -3.75,-3 -3.75,-3"
     style="fill:#000000;fill-opacity:0;stroke:#000000;stroke-width:0.964999"
     id="path2826" />
  <path
     fill="none"
     d="M 44.44,27.614 C 41.204,24.001 40.395,24.001 40.395,24.001"
     style="fill:#000000;fill-opacity:0;stroke:#000000;stroke-width:1.09998"
     id="path2828" />
  <ellipse
     cx="54.383003"
     cy="19.160004"
     rx="6.0609999"
     ry="6.2480001"
     style="fill:url(#d);fill-opacity:1;stroke:#000000;stroke-width:0.843454"
     id="ellipse2830" />
  <path
     fill="none"
     d="m 58.883,14.473 c 3.75,-3.75 3.375,-3.75 3.375,-3.75 M 45.866,27.668 c 3.75,-3.75 3.375,-3.75 3.375,-3.75 m 0.267,-9.445 c -3,-3 -3.75,-3 -3.75,-3"
     style="fill:#000000;fill-opacity:0;stroke:#000000;stroke-width:0.964999"
     id="path2832" />
  <path
     fill="none"
     d="M 62.816,27.239 C 59.579,23.626 58.77,23.626 58.77,23.626"
     style="fill:#000000;fill-opacity:0;stroke:#000000;stroke-width:1.09998"
     id="path2834" />
</svg>
