<?xml version="1.0" encoding="UTF-8" standalone="no"?>
<svg
   width="71mm"
   height="36mm"
   viewBox="0 0 71 36"
   version="1.1"
   id="svg2946"
   sodipodi:docname="3231.svg"
   inkscape:version="1.2.2 (b0a84865, 2022-12-01)"
   xmlns:inkscape="http://www.inkscape.org/namespaces/inkscape"
   xmlns:sodipodi="http://sodipodi.sourceforge.net/DTD/sodipodi-0.dtd"
   xmlns="http://www.w3.org/2000/svg"
   xmlns:svg="http://www.w3.org/2000/svg">
  <defs
     id="defs2950" />
  <sodipodi:namedview
     id="namedview2948"
     pagecolor="#ffffff"
     bordercolor="#000000"
     borderopacity="0.25"
     inkscape:showpageshadow="2"
     inkscape:pageopacity="0.0"
     inkscape:pagecheckerboard="0"
     inkscape:deskcolor="#d1d1d1"
     inkscape:document-units="mm"
     showgrid="false"
     inkscape:zoom="0.70555556"
     inkscape:cx="396.85039"
     inkscape:cy="34.015748"
     inkscape:window-width="1390"
     inkscape:window-height="942"
     inkscape:window-x="0"
     inkscape:window-y="25"
     inkscape:window-maximized="0"
     inkscape:current-layer="svg2946" />
  <path
     d="m 52.875,75 h 18 v 17.625 h -18 z"
     style="fill:none;stroke-width:0.264583"
     id="path2914" />
  <ellipse
     cx="20.625"
     cy="19.313004"
     fill="none"
     rx="6.0609999"
     ry="6.2480001"
     style="fill:#000000;fill-opacity:0;stroke:#000000;stroke-width:0.843454"
     id="ellipse2916" />
  <path
     fill="none"
     d="m 18.526,12.925 c -0.367,12.76 0,12.395 0,12.395"
     style="fill:#000000;fill-opacity:0;stroke:#000000;stroke-width:0.940626"
     id="path2918" />
  <path
     fill="none"
     d="m 22.74,13.855 c -0.394,11.584 0,11.253 0,11.253"
     style="fill:#000000;fill-opacity:0;stroke:#000000;stroke-width:0.930304"
     id="path2920" />
  <path
     fill="none"
     d="m 15.195,16.695 c 10.203,-0.409 10.494,0 10.494,0"
     style="fill:#000000;fill-opacity:0;stroke:#000000;stroke-width:0.88869"
     id="path2922" />
  <path
     fill="none"
     d="m 15.02,20.901 c 10.933,-0.4 11.245,0 11.245,0"
     style="fill:#000000;fill-opacity:0;stroke:#000000;stroke-width:0.909084"
     id="path2924" />
  <ellipse
     cx="34.5"
     cy="19.5"
     fill="none"
     rx="6.0609999"
     ry="6.2480001"
     style="fill:#000000;fill-opacity:0;stroke:#000000;stroke-width:0.843454"
     id="ellipse2926" />
  <path
     fill="none"
     d="m 32.4,13.113 c -0.366,12.76 0,12.395 0,12.395"
     style="fill:#000000;fill-opacity:0;stroke:#000000;stroke-width:0.940626"
     id="path2928" />
  <path
     fill="none"
     d="m 36.615,14.043 c -0.394,11.584 0,11.253 0,11.253"
     style="fill:#000000;fill-opacity:0;stroke:#000000;stroke-width:0.930304"
     id="path2930" />
  <path
     fill="none"
     d="m 29.07,16.883 c 10.203,-0.41 10.494,0 10.494,0"
     style="fill:#000000;fill-opacity:0;stroke:#000000;stroke-width:0.88869"
     id="path2932" />
  <path
     fill="none"
     d="m 28.895,21.089 c 10.933,-0.4 11.245,0 11.245,0"
     style="fill:#000000;fill-opacity:0;stroke:#000000;stroke-width:0.909084"
     id="path2934" />
  <ellipse
     cx="48.375"
     cy="19.125"
     fill="none"
     rx="6.0609999"
     ry="6.2480001"
     style="fill:#000000;fill-opacity:0;stroke:#000000;stroke-width:0.843454"
     id="ellipse2936" />
  <path
     fill="none"
     d="m 46.276,12.738 c -0.367,12.76 0,12.395 0,12.395"
     style="fill:#000000;fill-opacity:0;stroke:#000000;stroke-width:0.940626"
     id="path2938" />
  <path
     fill="none"
     d="m 50.49,13.668 c -0.394,11.584 0,11.253 0,11.253"
     style="fill:#000000;fill-opacity:0;stroke:#000000;stroke-width:0.930304"
     id="path2940" />
  <path
     fill="none"
     d="m 42.945,16.508 c 10.203,-0.41 10.494,0 10.494,0"
     style="fill:#000000;fill-opacity:0;stroke:#000000;stroke-width:0.88869"
     id="path2942" />
  <path
     fill="none"
     d="m 42.77,20.714 c 10.933,-0.4 11.245,0 11.245,0"
     style="fill:#000000;fill-opacity:0;stroke:#000000;stroke-width:0.909084"
     id="path2944" />
</svg>
