<?xml version="1.0" encoding="UTF-8" standalone="no"?>
<svg
   width="71mm"
   height="36mm"
   viewBox="0 0 71 36"
   version="1.1"
   id="svg3027"
   sodipodi:docname="3232.svg"
   inkscape:version="1.2.2 (b0a84865, 2022-12-01)"
   xmlns:inkscape="http://www.inkscape.org/namespaces/inkscape"
   xmlns:sodipodi="http://sodipodi.sourceforge.net/DTD/sodipodi-0.dtd"
   xmlns="http://www.w3.org/2000/svg"
   xmlns:svg="http://www.w3.org/2000/svg">
  <defs
     id="defs3031" />
  <sodipodi:namedview
     id="namedview3029"
     pagecolor="#ffffff"
     bordercolor="#000000"
     borderopacity="0.25"
     inkscape:showpageshadow="2"
     inkscape:pageopacity="0.0"
     inkscape:pagecheckerboard="0"
     inkscape:deskcolor="#d1d1d1"
     inkscape:document-units="mm"
     showgrid="false"
     inkscape:zoom="0.70555556"
     inkscape:cx="396.85039"
     inkscape:cy="39.685039"
     inkscape:window-width="1390"
     inkscape:window-height="942"
     inkscape:window-x="0"
     inkscape:window-y="25"
     inkscape:window-maximized="0"
     inkscape:current-layer="svg3027" />
  <path
     d="m 52.875,75 h 18 v 17.625 h -18 z"
     style="fill:none;stroke-width:0.264583"
     id="path2971" />
  <ellipse
     cx="18"
     cy="18.75"
     fill="none"
     rx="6.0609999"
     ry="6.2480001"
     style="fill:#000000;fill-opacity:0;stroke:#000000;stroke-width:0.843454"
     id="ellipse2973" />
  <path
     fill="none"
     d="m 15.901,12.363 c -0.367,12.76 0,12.395 0,12.395"
     style="fill:#000000;fill-opacity:0;stroke:#000000;stroke-width:0.940626"
     id="path2975" />
  <path
     fill="none"
     d="m 20.115,13.293 c -0.394,11.584 0,11.253 0,11.253"
     style="fill:#000000;fill-opacity:0;stroke:#000000;stroke-width:0.930304"
     id="path2977" />
  <path
     fill="none"
     d="m 12.57,16.133 c 10.203,-0.41 10.494,0 10.494,0"
     style="fill:#000000;fill-opacity:0;stroke:#000000;stroke-width:0.88869"
     id="path2979" />
  <path
     fill="none"
     d="m 12.395,20.339 c 10.933,-0.4 11.245,0 11.245,0"
     style="fill:#000000;fill-opacity:0;stroke:#000000;stroke-width:0.909084"
     id="path2981" />
  <path
     d="m 40.579,70.929 h 18 v 17.625 h -18 z"
     style="fill:none;stroke-width:0.264583"
     id="path2983" />
  <ellipse
     cx="17.703999"
     cy="18.615997"
     fill="none"
     rx="6.0609999"
     ry="6.2480001"
     style="fill:#000000;fill-opacity:0;stroke:#000000;stroke-width:0.843454"
     id="ellipse2985" />
  <path
     fill="none"
     d="m 22.204,13.929 c 3.75,-3.75 3.375,-3.75 3.375,-3.75 M 9.187,27.124 c 3.75,-3.75 3.375,-3.75 3.375,-3.75 m 0.267,-9.445 c -3,-3 -3.75,-3 -3.75,-3"
     style="fill:#000000;fill-opacity:0;stroke:#000000;stroke-width:0.964999"
     id="path2987" />
  <path
     fill="none"
     d="M 26.137,26.695 C 22.9,23.082 22.091,23.082 22.091,23.082"
     style="fill:#000000;fill-opacity:0;stroke:#000000;stroke-width:1.09998"
     id="path2989" />
  <ellipse
     cx="36.375"
     cy="18.375"
     fill="none"
     rx="6.0609999"
     ry="6.2480001"
     style="fill:#000000;fill-opacity:0;stroke:#000000;stroke-width:0.843454"
     id="ellipse2991" />
  <path
     fill="none"
     d="m 34.275,11.988 c -0.366,12.76 0,12.395 0,12.395"
     style="fill:#000000;fill-opacity:0;stroke:#000000;stroke-width:0.940626"
     id="path2993" />
  <path
     fill="none"
     d="m 38.49,12.918 c -0.394,11.584 0,11.253 0,11.253"
     style="fill:#000000;fill-opacity:0;stroke:#000000;stroke-width:0.930304"
     id="path2995" />
  <path
     fill="none"
     d="m 30.945,15.758 c 10.203,-0.41 10.494,0 10.494,0"
     style="fill:#000000;fill-opacity:0;stroke:#000000;stroke-width:0.88869"
     id="path2997" />
  <path
     fill="none"
     d="m 30.77,19.964 c 10.933,-0.4 11.245,0 11.245,0"
     style="fill:#000000;fill-opacity:0;stroke:#000000;stroke-width:0.909084"
     id="path2999" />
  <path
     d="m 58.579,70.179 h 18 v 17.625 h -18 z"
     style="fill:none;stroke-width:0.264583"
     id="path3001" />
  <ellipse
     cx="36.079002"
     cy="18.240997"
     fill="none"
     rx="6.0609999"
     ry="6.2480001"
     style="fill:#000000;fill-opacity:0;stroke:#000000;stroke-width:0.843454"
     id="ellipse3003" />
  <path
     fill="none"
     d="m 40.579,13.554 c 3.75,-3.75 3.375,-3.75 3.375,-3.75 M 27.562,26.75 C 31.312,23 30.937,23 30.937,23 m 0.267,-9.446 c -3,-3 -3.75,-3 -3.75,-3"
     style="fill:#000000;fill-opacity:0;stroke:#000000;stroke-width:0.964999"
     id="path3005" />
  <path
     fill="none"
     d="M 44.512,26.32 C 41.275,22.707 40.466,22.707 40.466,22.707"
     style="fill:#000000;fill-opacity:0;stroke:#000000;stroke-width:1.09998"
     id="path3007" />
  <path
     d="m 76.579,70.554 h 18 v 17.625 h -18 z"
     style="fill:none;stroke-width:0.264583"
     id="path3009" />
  <ellipse
     cx="55.054001"
     cy="18.168999"
     fill="none"
     rx="6.0609999"
     ry="6.2480001"
     style="fill:#000000;fill-opacity:0;stroke:#000000;stroke-width:0.843454"
     id="ellipse3011" />
  <path
     fill="none"
     d="m 52.955,11.782 c -0.367,12.76 0,12.395 0,12.395"
     style="fill:#000000;fill-opacity:0;stroke:#000000;stroke-width:0.940626"
     id="path3013" />
  <path
     fill="none"
     d="m 57.169,12.712 c -0.394,11.584 0,11.253 0,11.253"
     style="fill:#000000;fill-opacity:0;stroke:#000000;stroke-width:0.930304"
     id="path3015" />
  <path
     fill="none"
     d="m 49.624,15.552 c 10.203,-0.41 10.494,0 10.494,0"
     style="fill:#000000;fill-opacity:0;stroke:#000000;stroke-width:0.88869"
     id="path3017" />
  <path
     fill="none"
     d="m 49.449,19.758 c 10.933,-0.4 11.245,0 11.245,0"
     style="fill:#000000;fill-opacity:0;stroke:#000000;stroke-width:0.909084"
     id="path3019" />
  <ellipse
     cx="54.758003"
     cy="18.035004"
     fill="none"
     rx="6.0609999"
     ry="6.2480001"
     style="fill:#000000;fill-opacity:0;stroke:#000000;stroke-width:0.843454"
     id="ellipse3021" />
  <path
     fill="none"
     d="m 59.258,13.348 c 3.75,-3.75 3.375,-3.75 3.375,-3.75 M 46.241,26.543 c 3.75,-3.75 3.375,-3.75 3.375,-3.75 m 0.267,-9.445 c -3,-3 -3.75,-3 -3.75,-3"
     style="fill:#000000;fill-opacity:0;stroke:#000000;stroke-width:0.964999"
     id="path3023" />
  <path
     fill="none"
     d="M 63.191,26.114 C 59.954,22.501 59.145,22.501 59.145,22.501"
     style="fill:#000000;fill-opacity:0;stroke:#000000;stroke-width:1.09998"
     id="path3025" />
</svg>
