<?xml version="1.0" encoding="UTF-8" standalone="no"?>
<svg
   width="71mm"
   height="36mm"
   viewBox="0 0 71 36"
   version="1.1"
   id="svg3135"
   sodipodi:docname="3233.svg"
   inkscape:version="1.2.2 (b0a84865, 2022-12-01)"
   xmlns:inkscape="http://www.inkscape.org/namespaces/inkscape"
   xmlns:sodipodi="http://sodipodi.sourceforge.net/DTD/sodipodi-0.dtd"
   xmlns="http://www.w3.org/2000/svg"
   xmlns:svg="http://www.w3.org/2000/svg">
  <defs
     id="defs3139" />
  <sodipodi:namedview
     id="namedview3137"
     pagecolor="#ffffff"
     bordercolor="#000000"
     borderopacity="0.25"
     inkscape:showpageshadow="2"
     inkscape:pageopacity="0.0"
     inkscape:pagecheckerboard="0"
     inkscape:deskcolor="#d1d1d1"
     inkscape:document-units="mm"
     showgrid="false"
     inkscape:zoom="0.70555556"
     inkscape:cx="396.85039"
     inkscape:cy="42.519685"
     inkscape:window-width="1390"
     inkscape:window-height="942"
     inkscape:window-x="0"
     inkscape:window-y="25"
     inkscape:window-maximized="0"
     inkscape:current-layer="svg3135" />
  <path
     d="m 52.875,75 h 18 v 17.625 h -18 z"
     style="fill:none;stroke-width:0.264583"
     id="path3095" />
  <ellipse
     cx="15.375"
     cy="18.75"
     fill="none"
     rx="6.0609999"
     ry="6.2480001"
     style="fill:#000000;fill-opacity:0;stroke:#000000;stroke-width:0.843454"
     id="ellipse3097" />
  <path
     fill="none"
     d="m 13.276,12.363 c -0.367,12.76 0,12.395 0,12.395"
     style="fill:#000000;fill-opacity:0;stroke:#000000;stroke-width:0.940626"
     id="path3099" />
  <path
     fill="none"
     d="m 17.49,13.293 c -0.394,11.584 0,11.253 0,11.253"
     style="fill:#000000;fill-opacity:0;stroke:#000000;stroke-width:0.930304"
     id="path3101" />
  <path
     fill="none"
     d="m 9.945,16.133 c 10.203,-0.41 10.494,0 10.494,0"
     style="fill:#000000;fill-opacity:0;stroke:#000000;stroke-width:0.88869"
     id="path3103" />
  <path
     fill="none"
     d="m 9.77,20.339 c 10.933,-0.4 11.245,0 11.245,0"
     style="fill:#000000;fill-opacity:0;stroke:#000000;stroke-width:0.909084"
     id="path3105" />
  <path
     d="m 40.28,70.44 h 18 v 17.625 h -18 z"
     style="fill:none;stroke-width:0.264583"
     id="path3107" />
  <ellipse
     cx="16.247702"
     cy="17.993752"
     fill="none"
     rx="9.0369577"
     ry="9.2230215"
     style="fill:#000000;fill-opacity:0;stroke:#000000;stroke-width:0.811404;stroke-dasharray:none"
     transform="matrix(0.99904469,0.04370021,-0.03903991,0.99923765,0,0)"
     id="ellipse3109" />
  <ellipse
     cx="35.470001"
     cy="19.184998"
     fill="none"
     rx="6.0609999"
     ry="6.2480001"
     style="fill:#000000;fill-opacity:0;stroke:#000000;stroke-width:0.843454"
     id="ellipse3111" />
  <path
     fill="none"
     d="m 33.371,12.798 c -0.366,12.76 0,12.395 0,12.395"
     style="fill:#000000;fill-opacity:0;stroke:#000000;stroke-width:0.940626"
     id="path3113" />
  <path
     fill="none"
     d="m 37.586,13.728 c -0.395,11.584 0,11.253 0,11.253"
     style="fill:#000000;fill-opacity:0;stroke:#000000;stroke-width:0.930304"
     id="path3115" />
  <path
     fill="none"
     d="m 30.04,16.568 c 10.203,-0.41 10.495,0 10.495,0"
     style="fill:#000000;fill-opacity:0;stroke:#000000;stroke-width:0.88869"
     id="path3117" />
  <path
     fill="none"
     d="m 29.866,20.774 c 10.932,-0.4 11.245,0 11.245,0"
     style="fill:#000000;fill-opacity:0;stroke:#000000;stroke-width:0.909084"
     id="path3119" />
  <ellipse
     cx="36.344604"
     cy="17.549751"
     fill="none"
     rx="9.0369577"
     ry="9.2230215"
     style="fill:#000000;fill-opacity:0;stroke:#000000;stroke-width:0.811404;stroke-dasharray:none"
     transform="matrix(0.99904469,0.04370021,-0.03903991,0.99923765,0,0)"
     id="ellipse3121" />
  <ellipse
     cx="55.720001"
     cy="19.184998"
     fill="none"
     rx="6.0609999"
     ry="6.2480001"
     style="fill:#000000;fill-opacity:0;stroke:#000000;stroke-width:0.843454"
     id="ellipse3123" />
  <path
     fill="none"
     d="m 53.621,12.798 c -0.366,12.76 0,12.395 0,12.395"
     style="fill:#000000;fill-opacity:0;stroke:#000000;stroke-width:0.940626"
     id="path3125" />
  <path
     fill="none"
     d="m 57.836,13.728 c -0.395,11.584 0,11.253 0,11.253"
     style="fill:#000000;fill-opacity:0;stroke:#000000;stroke-width:0.930304"
     id="path3127" />
  <path
     fill="none"
     d="m 50.29,16.568 c 10.203,-0.41 10.495,0 10.495,0"
     style="fill:#000000;fill-opacity:0;stroke:#000000;stroke-width:0.88869"
     id="path3129" />
  <path
     fill="none"
     d="m 50.116,20.774 c 10.932,-0.4 11.245,0 11.245,0"
     style="fill:#000000;fill-opacity:0;stroke:#000000;stroke-width:0.909084"
     id="path3131" />
  <ellipse
     cx="56.579506"
     cy="16.664749"
     fill="none"
     rx="9.0369577"
     ry="9.2230215"
     style="fill:#000000;fill-opacity:0;stroke:#000000;stroke-width:0.811404;stroke-dasharray:none"
     transform="matrix(0.99904469,0.04370021,-0.03903991,0.99923765,0,0)"
     id="ellipse3133" />
</svg>
