<?xml version="1.0" encoding="UTF-8" standalone="no"?>
<svg
   width="71mm"
   height="36mm"
   viewBox="0 0 71 36"
   version="1.1"
   id="svg3209"
   sodipodi:docname="3312.svg"
   inkscape:version="1.2.2 (b0a84865, 2022-12-01)"
   xmlns:inkscape="http://www.inkscape.org/namespaces/inkscape"
   xmlns:sodipodi="http://sodipodi.sourceforge.net/DTD/sodipodi-0.dtd"
   xmlns="http://www.w3.org/2000/svg"
   xmlns:svg="http://www.w3.org/2000/svg">
  <defs
     id="defs3213" />
  <sodipodi:namedview
     id="namedview3211"
     pagecolor="#ffffff"
     bordercolor="#000000"
     borderopacity="0.25"
     inkscape:showpageshadow="2"
     inkscape:pageopacity="0.0"
     inkscape:pagecheckerboard="0"
     inkscape:deskcolor="#d1d1d1"
     inkscape:document-units="mm"
     showgrid="false"
     inkscape:zoom="0.70555556"
     inkscape:cx="396.85039"
     inkscape:cy="42.519685"
     inkscape:window-width="1390"
     inkscape:window-height="942"
     inkscape:window-x="0"
     inkscape:window-y="25"
     inkscape:window-maximized="0"
     inkscape:current-layer="svg3209" />
  <path
     d="m 52.875,75 h 18 v 17.625 h -18 z"
     style="fill:none;stroke-width:0.264583"
     id="path3185" />
  <path
     fill="none"
     d="m 18.968,25.882 -6.38,-0.145 -6.381,0.088 3.316,-5.452 3.114,-5.57 3.064,5.597 z M 12.604,14.48 c 0,-4.773 0.265,-4.773 0.265,-4.773"
     style="fill:#000000;fill-opacity:0;stroke:#000000;stroke-width:0.843"
     id="path3187" />
  <path
     fill="none"
     d="M 6.563,25.407 1.826,28.41"
     style="fill:#000000;fill-opacity:0;stroke:#000000;stroke-width:0.883;stroke-dasharray:none"
     id="path3189" />
  <path
     fill="none"
     d="m 18.442,25.604 c 4.035,2.407 4.51,3.209 4.51,3.209"
     style="fill:#000000;fill-opacity:0;stroke:#000000;stroke-width:0.800917"
     id="path3191" />
  <path
     fill="none"
     d="m 41.933,25.719 -6.38,-0.145 -6.381,0.088 3.316,-5.452 3.114,-5.57 3.064,5.597 z"
     style="fill:#000000;fill-opacity:0;stroke:#000000;stroke-width:0.843"
     id="path3193" />
  <path
     fill="none"
     d="m 35.569,14.317 c 0,-4.773 0.265,-4.773 0.265,-4.773"
     style="fill:#000000;fill-opacity:0;stroke:#000000;stroke-width:0.843"
     id="path3195" />
  <path
     fill="none"
     d="m 29.528,25.243 -4.737,3.004"
     style="fill:#000000;fill-opacity:0;stroke:#000000;stroke-width:0.883;stroke-dasharray:none"
     id="path3197" />
  <path
     fill="none"
     d="m 41.407,25.44 c 4.035,2.407 4.51,3.21 4.51,3.21"
     style="fill:#000000;fill-opacity:0;stroke:#000000;stroke-width:0.800917"
     id="path3199" />
  <path
     fill="none"
     d="m 65.268,25.984 -6.38,-0.145 -6.381,0.088 3.316,-5.452 3.114,-5.57 3.064,5.597 z"
     style="fill:#000000;fill-opacity:0;stroke:#000000;stroke-width:0.843"
     id="path3201" />
  <path
     fill="none"
     d="m 58.903,14.582 c 0,-4.773 0.266,-4.773 0.266,-4.773"
     style="fill:#000000;fill-opacity:0;stroke:#000000;stroke-width:0.843"
     id="path3203" />
  <path
     fill="none"
     d="m 52.863,25.508 -4.737,3.004"
     style="fill:#000000;fill-opacity:0;stroke:#000000;stroke-width:0.883;stroke-dasharray:none"
     id="path3205" />
  <path
     fill="none"
     d="m 64.741,25.706 c 4.035,2.407 4.51,3.209 4.51,3.209"
     style="fill:#000000;fill-opacity:0;stroke:#000000;stroke-width:0.800917"
     id="path3207" />
</svg>
