<?xml version="1.0" encoding="UTF-8" standalone="no"?>
<svg
   width="71mm"
   height="36mm"
   viewBox="0 0 71 36"
   version="1.1"
   id="svg3244"
   sodipodi:docname="3313.svg"
   inkscape:version="1.2.2 (b0a84865, 2022-12-01)"
   xmlns:inkscape="http://www.inkscape.org/namespaces/inkscape"
   xmlns:sodipodi="http://sodipodi.sourceforge.net/DTD/sodipodi-0.dtd"
   xmlns="http://www.w3.org/2000/svg"
   xmlns:svg="http://www.w3.org/2000/svg">
  <defs
     id="defs3248" />
  <sodipodi:namedview
     id="namedview3246"
     pagecolor="#ffffff"
     bordercolor="#000000"
     borderopacity="0.25"
     inkscape:showpageshadow="2"
     inkscape:pageopacity="0.0"
     inkscape:pagecheckerboard="0"
     inkscape:deskcolor="#d1d1d1"
     inkscape:document-units="mm"
     showgrid="false"
     inkscape:zoom="0.70555556"
     inkscape:cx="396.85039"
     inkscape:cy="39.685039"
     inkscape:window-width="1390"
     inkscape:window-height="942"
     inkscape:window-x="0"
     inkscape:window-y="25"
     inkscape:window-maximized="0"
     inkscape:current-layer="svg3244" />
  <path
     d="m 52.875,75 h 18 v 17.625 h -18 z"
     style="fill:none;stroke-width:0.264583"
     id="path3230" />
  <path
     fill="none"
     d="m 21.593,25.507 -6.38,-0.145 -6.381,0.088 3.316,-5.452 3.114,-5.57 3.064,5.597 z"
     style="fill:#000000;fill-opacity:0;stroke:#000000;stroke-width:0.843"
     id="path3232" />
  <path
     fill="none"
     d="m 15.228,11.45 4.338,7.84 4.621,7.677 -8.959,-0.164 -8.959,0.164 4.622,-7.676 z"
     style="fill:#000000;fill-opacity:0;stroke:#000000;stroke-width:0.843"
     id="path3234" />
  <path
     fill="none"
     d="m 42.541,25.394 -6.38,-0.145 -6.381,0.088 3.316,-5.452 3.114,-5.57 3.064,5.597 z"
     style="fill:#000000;fill-opacity:0;stroke:#000000;stroke-width:0.843"
     id="path3236" />
  <path
     fill="none"
     d="m 36.177,11.337 4.338,7.84 4.621,7.677 -8.959,-0.164 -8.959,0.164 4.622,-7.676 z"
     style="fill:#000000;fill-opacity:0;stroke:#000000;stroke-width:0.843"
     id="path3238" />
  <path
     fill="none"
     d="m 63.223,25.394 -6.38,-0.145 -6.381,0.088 3.316,-5.452 3.114,-5.57 3.064,5.597 z"
     style="fill:#000000;fill-opacity:0;stroke:#000000;stroke-width:0.843"
     id="path3240" />
  <path
     fill="none"
     d="m 56.859,11.337 4.338,7.84 4.621,7.677 -8.959,-0.164 -8.959,0.164 4.622,-7.676 z"
     style="fill:#000000;fill-opacity:0;stroke:#000000;stroke-width:0.843"
     id="path3242" />
</svg>
