<?xml version="1.0" encoding="UTF-8" standalone="no"?>
<svg
   width="71mm"
   height="36mm"
   viewBox="0 0 71 36"
   version="1.1"
   id="svg3326"
   sodipodi:docname="3322.svg"
   inkscape:version="1.2.2 (b0a84865, 2022-12-01)"
   xmlns:inkscape="http://www.inkscape.org/namespaces/inkscape"
   xmlns:sodipodi="http://sodipodi.sourceforge.net/DTD/sodipodi-0.dtd"
   xmlns:xlink="http://www.w3.org/1999/xlink"
   xmlns="http://www.w3.org/2000/svg"
   xmlns:svg="http://www.w3.org/2000/svg">
  <sodipodi:namedview
     id="namedview3328"
     pagecolor="#ffffff"
     bordercolor="#000000"
     borderopacity="0.25"
     inkscape:showpageshadow="2"
     inkscape:pageopacity="0.0"
     inkscape:pagecheckerboard="0"
     inkscape:deskcolor="#d1d1d1"
     inkscape:document-units="mm"
     showgrid="false"
     inkscape:zoom="0.70555556"
     inkscape:cx="396.85039"
     inkscape:cy="34.015748"
     inkscape:window-width="1390"
     inkscape:window-height="942"
     inkscape:window-x="0"
     inkscape:window-y="25"
     inkscape:window-maximized="0"
     inkscape:current-layer="svg3326" />
  <defs
     id="defs3298">
    <linearGradient
       id="a">
      <stop
         offset="0"
         style="stop-color:#000;stop-opacity:1"
         id="stop3292" />
    </linearGradient>
    <linearGradient
       xlink:href="#a"
       id="b"
       x1="23.076"
       x2="37.345001"
       y1="62.125999"
       y2="62.125999"
       gradientUnits="userSpaceOnUse"
       gradientTransform="translate(-18.375,-41.625)" />
    <linearGradient
       xlink:href="#a"
       id="c"
       x1="23.076"
       x2="37.345001"
       y1="62.125999"
       y2="62.125999"
       gradientUnits="userSpaceOnUse"
       gradientTransform="translate(5.385,-41.523)" />
    <linearGradient
       xlink:href="#a"
       id="d"
       x1="23.076"
       x2="37.345001"
       y1="62.125999"
       y2="62.125999"
       gradientUnits="userSpaceOnUse"
       gradientTransform="translate(29.25,-41.523)" />
  </defs>
  <path
     d="m 52.875,75 h 18 v 17.625 h -18 z"
     style="fill:none;stroke-width:0.264583"
     id="path3300" />
  <path
     d="m 18.218,26.257 -6.38,-0.145 -6.381,0.088 3.316,-5.452 3.114,-5.57 3.064,5.597 z"
     style="fill:url(#b);fill-opacity:1;stroke:#000000;stroke-width:0.843"
     id="path3302" />
  <path
     fill="none"
     d="m 11.854,14.855 c 0,-4.773 0.265,-4.773 0.265,-4.773"
     style="fill:#000000;fill-opacity:0;stroke:#000000;stroke-width:0.843"
     id="path3304" />
  <path
     fill="none"
     d="M 5.813,25.782 1.076,28.785"
     style="fill:#000000;fill-opacity:0;stroke:#000000;stroke-width:0.883;stroke-dasharray:none"
     id="path3306" />
  <path
     fill="none"
     d="m 17.692,25.979 c 4.035,2.407 4.51,3.209 4.51,3.209"
     style="fill:#000000;fill-opacity:0;stroke:#000000;stroke-width:0.800917"
     id="path3308" />
  <path
     d="m 41.978,26.359 -6.38,-0.145 -6.381,0.088 3.316,-5.452 3.114,-5.57 3.064,5.597 z"
     style="fill:url(#c);fill-opacity:1;stroke:#000000;stroke-width:0.843"
     id="path3310" />
  <path
     fill="none"
     d="m 35.615,14.957 c 0,-4.773 0.264,-4.773 0.264,-4.773"
     style="fill:#000000;fill-opacity:0;stroke:#000000;stroke-width:0.843"
     id="path3312" />
  <path
     fill="none"
     d="m 29.574,25.883 -4.737,3.004"
     style="fill:#000000;fill-opacity:0;stroke:#000000;stroke-width:0.883;stroke-dasharray:none"
     id="path3314" />
  <path
     fill="none"
     d="m 41.452,26.081 c 4.035,2.407 4.51,3.209 4.51,3.209"
     style="fill:#000000;fill-opacity:0;stroke:#000000;stroke-width:0.800917"
     id="path3316" />
  <path
     d="m 65.843,26.359 -6.38,-0.145 -6.381,0.088 3.316,-5.452 3.114,-5.57 3.064,5.597 z"
     style="fill:url(#d);fill-opacity:1;stroke:#000000;stroke-width:0.843"
     id="path3318" />
  <path
     fill="none"
     d="m 59.479,14.957 c 0,-4.773 0.265,-4.773 0.265,-4.773"
     style="fill:#000000;fill-opacity:0;stroke:#000000;stroke-width:0.843"
     id="path3320" />
  <path
     fill="none"
     d="m 53.439,25.883 -4.737,3.004"
     style="fill:#000000;fill-opacity:0;stroke:#000000;stroke-width:0.883;stroke-dasharray:none"
     id="path3322" />
  <path
     fill="none"
     d="m 65.317,26.081 c 4.035,2.407 4.51,3.209 4.51,3.209"
     style="fill:#000000;fill-opacity:0;stroke:#000000;stroke-width:0.800917"
     id="path3324" />
</svg>
