<?xml version="1.0" encoding="UTF-8" standalone="no"?>
<svg
   width="71mm"
   height="36mm"
   viewBox="0 0 71 36"
   version="1.1"
   id="svg3373"
   sodipodi:docname="3323.svg"
   inkscape:version="1.2.2 (b0a84865, 2022-12-01)"
   xmlns:inkscape="http://www.inkscape.org/namespaces/inkscape"
   xmlns:sodipodi="http://sodipodi.sourceforge.net/DTD/sodipodi-0.dtd"
   xmlns:xlink="http://www.w3.org/1999/xlink"
   xmlns="http://www.w3.org/2000/svg"
   xmlns:svg="http://www.w3.org/2000/svg">
  <sodipodi:namedview
     id="namedview3375"
     pagecolor="#ffffff"
     bordercolor="#000000"
     borderopacity="0.25"
     inkscape:showpageshadow="2"
     inkscape:pageopacity="0.0"
     inkscape:pagecheckerboard="0"
     inkscape:deskcolor="#d1d1d1"
     inkscape:document-units="mm"
     showgrid="false"
     inkscape:zoom="0.70555556"
     inkscape:cx="396.85039"
     inkscape:cy="39.685039"
     inkscape:window-width="1390"
     inkscape:window-height="942"
     inkscape:window-x="0"
     inkscape:window-y="25"
     inkscape:window-maximized="0"
     inkscape:current-layer="svg3373" />
  <defs
     id="defs3357">
    <linearGradient
       id="a">
      <stop
         offset="0"
         style="stop-color:#000;stop-opacity:1"
         id="stop3351" />
    </linearGradient>
    <linearGradient
       xlink:href="#a"
       id="b"
       x1="23.076"
       x2="37.345001"
       y1="62.125999"
       y2="62.125999"
       gradientUnits="userSpaceOnUse"
       gradientTransform="translate(-15.375,-42.375)" />
    <linearGradient
       xlink:href="#a"
       id="c"
       x1="23.076"
       x2="37.345001"
       y1="62.125999"
       y2="62.125999"
       gradientUnits="userSpaceOnUse"
       gradientTransform="translate(5.043,-42.488)" />
    <linearGradient
       xlink:href="#a"
       id="d"
       x1="23.076"
       x2="37.345001"
       y1="62.125999"
       y2="62.125999"
       gradientUnits="userSpaceOnUse"
       gradientTransform="translate(25.46,-42.488)" />
  </defs>
  <path
     d="m 52.875,75 h 18 v 17.625 h -18 z"
     style="fill:none;stroke-width:0.264583"
     id="path3359" />
  <path
     d="m 21.218,25.507 -6.38,-0.145 -6.381,0.088 3.316,-5.452 3.114,-5.57 3.064,5.597 z"
     style="fill:url(#b);fill-opacity:1;stroke:#000000;stroke-width:0.843"
     id="path3361" />
  <path
     fill="none"
     d="m 14.853,11.45 4.338,7.84 4.621,7.677 -8.959,-0.164 -8.959,0.164 4.622,-7.676 z"
     style="fill:#000000;fill-opacity:0;stroke:#000000;stroke-width:0.843"
     id="path3363" />
  <path
     d="m 41.636,25.394 -6.38,-0.145 -6.381,0.088 3.316,-5.452 3.114,-5.57 3.064,5.597 z"
     style="fill:url(#c);fill-opacity:1;stroke:#000000;stroke-width:0.843"
     id="path3365" />
  <path
     fill="none"
     d="m 35.271,11.337 4.338,7.84 4.621,7.677 -8.959,-0.164 -8.959,0.164 4.622,-7.676 z"
     style="fill:#000000;fill-opacity:0;stroke:#000000;stroke-width:0.843"
     id="path3367" />
  <path
     d="m 62.053,25.394 -6.38,-0.145 -6.381,0.088 3.316,-5.452 3.114,-5.57 3.064,5.597 z"
     style="fill:url(#d);fill-opacity:1;stroke:#000000;stroke-width:0.843"
     id="path3369" />
  <path
     fill="none"
     d="m 55.688,11.337 4.338,7.84 4.621,7.677 -8.959,-0.164 -8.959,0.164 4.622,-7.676 z"
     style="fill:#000000;fill-opacity:0;stroke:#000000;stroke-width:0.843"
     id="path3371" />
</svg>
