<?xml version="1.0" encoding="UTF-8" standalone="no"?>
<svg
   width="71mm"
   height="36mm"
   viewBox="0 0 71 36"
   version="1.1"
   id="svg3426"
   sodipodi:docname="3331.svg"
   inkscape:version="1.2.2 (b0a84865, 2022-12-01)"
   xmlns:inkscape="http://www.inkscape.org/namespaces/inkscape"
   xmlns:sodipodi="http://sodipodi.sourceforge.net/DTD/sodipodi-0.dtd"
   xmlns="http://www.w3.org/2000/svg"
   xmlns:svg="http://www.w3.org/2000/svg">
  <defs
     id="defs3430" />
  <sodipodi:namedview
     id="namedview3428"
     pagecolor="#ffffff"
     bordercolor="#000000"
     borderopacity="0.25"
     inkscape:showpageshadow="2"
     inkscape:pageopacity="0.0"
     inkscape:pagecheckerboard="0"
     inkscape:deskcolor="#d1d1d1"
     inkscape:document-units="mm"
     showgrid="false"
     inkscape:zoom="0.70555556"
     inkscape:cx="396.85039"
     inkscape:cy="39.685039"
     inkscape:window-width="1390"
     inkscape:window-height="942"
     inkscape:window-x="0"
     inkscape:window-y="25"
     inkscape:window-maximized="0"
     inkscape:current-layer="svg3426" />
  <path
     d="m 52.875,75 h 18 v 17.625 h -18 z"
     style="fill:none;stroke-width:0.264583"
     id="path3392" />
  <path
     fill="none"
     d="m 26.843,25.132 -6.38,-0.145 -6.381,0.088 3.316,-5.452 3.114,-5.57 3.064,5.597 z"
     style="fill:#000000;fill-opacity:0;stroke:#000000;stroke-width:0.843"
     id="path3394" />
  <path
     d="m 25.137,57.817 h 18 v 17.625 h -18 z"
     style="fill:none;stroke-width:0.264583"
     id="path3396" />
  <path
     fill="none"
     d="m 18.568,18.796 c -0.492,6.34 0,6.16 0,6.16"
     style="fill:#000000;fill-opacity:0;stroke:#000000;stroke-width:0.76885"
     id="path3398" />
  <path
     fill="none"
     d="m 22.616,17.906 c -0.466,7.423 0,7.21 0,7.21"
     style="fill:#000000;fill-opacity:0;stroke:#000000;stroke-width:0.809004"
     id="path3400" />
  <path
     fill="none"
     d="m 17.557,18.731 c 4.891,-0.518 5.031,0 5.031,0"
     style="fill:#000000;fill-opacity:0;stroke:#000000;stroke-width:0.692843"
     id="path3402" />
  <path
     fill="none"
     d="m 16.384,22.043 c 8.507,-0.413 8.75,0 8.75,0"
     style="fill:#000000;fill-opacity:0;stroke:#000000;stroke-width:0.815745"
     id="path3404" />
  <path
     fill="none"
     d="m 42.506,25.054 -6.38,-0.145 -6.381,0.088 3.316,-5.452 3.114,-5.57 3.064,5.597 z"
     style="fill:#000000;fill-opacity:0;stroke:#000000;stroke-width:0.843"
     id="path3406" />
  <path
     fill="none"
     d="m 34.232,18.719 c -0.493,6.34 0,6.158 0,6.158"
     style="fill:#000000;fill-opacity:0;stroke:#000000;stroke-width:0.76885"
     id="path3408" />
  <path
     fill="none"
     d="m 38.279,17.828 c -0.466,7.423 0,7.211 0,7.211"
     style="fill:#000000;fill-opacity:0;stroke:#000000;stroke-width:0.809004"
     id="path3410" />
  <path
     fill="none"
     d="m 33.22,18.653 c 4.892,-0.518 5.031,0 5.031,0"
     style="fill:#000000;fill-opacity:0;stroke:#000000;stroke-width:0.692843"
     id="path3412" />
  <path
     fill="none"
     d="m 32.047,21.965 c 8.507,-0.413 8.75,0 8.75,0"
     style="fill:#000000;fill-opacity:0;stroke:#000000;stroke-width:0.815745"
     id="path3414" />
  <path
     fill="none"
     d="m 57.886,25.054 -6.38,-0.145 -6.381,0.088 3.316,-5.452 3.114,-5.57 3.064,5.597 z"
     style="fill:#000000;fill-opacity:0;stroke:#000000;stroke-width:0.843"
     id="path3416" />
  <path
     fill="none"
     d="m 49.611,18.719 c -0.493,6.34 0,6.158 0,6.158"
     style="fill:#000000;fill-opacity:0;stroke:#000000;stroke-width:0.76885"
     id="path3418" />
  <path
     fill="none"
     d="m 53.658,17.828 c -0.466,7.423 0,7.211 0,7.211"
     style="fill:#000000;fill-opacity:0;stroke:#000000;stroke-width:0.809004"
     id="path3420" />
  <path
     fill="none"
     d="m 48.6,18.653 c 4.891,-0.518 5.03,0 5.03,0"
     style="fill:#000000;fill-opacity:0;stroke:#000000;stroke-width:0.692843"
     id="path3422" />
  <path
     fill="none"
     d="m 47.427,21.965 c 8.506,-0.413 8.75,0 8.75,0"
     style="fill:#000000;fill-opacity:0;stroke:#000000;stroke-width:0.815745"
     id="path3424" />
</svg>
