<?xml version="1.0" encoding="UTF-8" standalone="no"?>
<svg
   width="71mm"
   height="36mm"
   viewBox="0 0 71 36"
   version="1.1"
   id="svg3504"
   sodipodi:docname="3332.svg"
   inkscape:version="1.2.2 (b0a84865, 2022-12-01)"
   xmlns:inkscape="http://www.inkscape.org/namespaces/inkscape"
   xmlns:sodipodi="http://sodipodi.sourceforge.net/DTD/sodipodi-0.dtd"
   xmlns="http://www.w3.org/2000/svg"
   xmlns:svg="http://www.w3.org/2000/svg">
  <defs
     id="defs3508" />
  <sodipodi:namedview
     id="namedview3506"
     pagecolor="#ffffff"
     bordercolor="#000000"
     borderopacity="0.25"
     inkscape:showpageshadow="2"
     inkscape:pageopacity="0.0"
     inkscape:pagecheckerboard="0"
     inkscape:deskcolor="#d1d1d1"
     inkscape:document-units="mm"
     showgrid="false"
     inkscape:zoom="0.70555556"
     inkscape:cx="396.85039"
     inkscape:cy="85.03937"
     inkscape:window-width="1390"
     inkscape:window-height="942"
     inkscape:window-x="0"
     inkscape:window-y="25"
     inkscape:window-maximized="0"
     inkscape:current-layer="svg3504" />
  <path
     d="m 52.875,75 h 18 v 17.625 h -18 z"
     style="fill:none;stroke-width:0.264583"
     id="path3452" />
  <path
     fill="none"
     d="m 19.343,24.757 -6.38,-0.145 -6.381,0.088 3.316,-5.452 3.114,-5.57 3.064,5.597 z"
     style="fill:#000000;fill-opacity:0;stroke:#000000;stroke-width:0.843"
     id="path3454" />
  <path
     d="m 7.887,14.692 h 18 v 17.625 h -18 z"
     style="fill:none;stroke-width:0.264583"
     id="path3456" />
  <path
     fill="none"
     d="m 11.068,18.421 c -0.492,6.34 0,6.16 0,6.16"
     style="fill:#000000;fill-opacity:0;stroke:#000000;stroke-width:0.76885"
     id="path3458" />
  <path
     fill="none"
     d="m 15.116,17.531 c -0.466,7.423 0,7.21 0,7.21"
     style="fill:#000000;fill-opacity:0;stroke:#000000;stroke-width:0.809004"
     id="path3460" />
  <path
     fill="none"
     d="m 10.057,18.356 c 4.891,-0.518 5.031,0 5.031,0"
     style="fill:#000000;fill-opacity:0;stroke:#000000;stroke-width:0.692843"
     id="path3462" />
  <path
     fill="none"
     d="m 8.884,21.668 c 8.507,-0.413 8.75,0 8.75,0"
     style="fill:#000000;fill-opacity:0;stroke:#000000;stroke-width:0.815745"
     id="path3464" />
  <path
     fill="none"
     d="m 12.874,13.457 c 0,-4.773 0.266,-4.773 0.266,-4.773"
     style="fill:#000000;fill-opacity:0;stroke:#000000;stroke-width:0.843"
     id="path3466" />
  <path
     fill="none"
     d="M 6.834,24.383 2.097,27.387"
     style="fill:#000000;fill-opacity:0;stroke:#000000;stroke-width:0.883;stroke-dasharray:none"
     id="path3468" />
  <path
     fill="none"
     d="m 18.712,24.581 c 4.035,2.407 4.51,3.209 4.51,3.209"
     style="fill:#000000;fill-opacity:0;stroke:#000000;stroke-width:0.800917"
     id="path3470" />
  <path
     fill="none"
     d="m 42.413,24.757 -6.38,-0.145 -6.381,0.088 3.316,-5.452 3.114,-5.57 3.064,5.597 z"
     style="fill:#000000;fill-opacity:0;stroke:#000000;stroke-width:0.843"
     id="path3472" />
  <path
     fill="none"
     d="m 34.138,18.421 c -0.493,6.34 0,6.16 0,6.16"
     style="fill:#000000;fill-opacity:0;stroke:#000000;stroke-width:0.76885"
     id="path3474" />
  <path
     fill="none"
     d="m 38.185,17.531 c -0.466,7.423 0,7.21 0,7.21"
     style="fill:#000000;fill-opacity:0;stroke:#000000;stroke-width:0.809004"
     id="path3476" />
  <path
     fill="none"
     d="m 33.126,18.356 c 4.892,-0.518 5.032,0 5.032,0"
     style="fill:#000000;fill-opacity:0;stroke:#000000;stroke-width:0.692843"
     id="path3478" />
  <path
     fill="none"
     d="m 31.953,21.668 c 8.507,-0.413 8.75,0 8.75,0"
     style="fill:#000000;fill-opacity:0;stroke:#000000;stroke-width:0.815745"
     id="path3480" />
  <path
     fill="none"
     d="m 35.944,13.457 c 0,-4.773 0.265,-4.773 0.265,-4.773"
     style="fill:#000000;fill-opacity:0;stroke:#000000;stroke-width:0.843"
     id="path3482" />
  <path
     fill="none"
     d="m 29.903,24.383 -4.737,3.004"
     style="fill:#000000;fill-opacity:0;stroke:#000000;stroke-width:0.883;stroke-dasharray:none"
     id="path3484" />
  <path
     fill="none"
     d="m 41.782,24.581 c 4.035,2.407 4.51,3.209 4.51,3.209"
     style="fill:#000000;fill-opacity:0;stroke:#000000;stroke-width:0.800917"
     id="path3486" />
  <path
     fill="none"
     d="m 65.482,24.757 -6.38,-0.145 -6.381,0.088 3.316,-5.452 3.114,-5.57 3.064,5.597 z"
     style="fill:#000000;fill-opacity:0;stroke:#000000;stroke-width:0.843"
     id="path3488" />
  <path
     fill="none"
     d="m 57.207,18.421 c -0.493,6.34 0,6.16 0,6.16"
     style="fill:#000000;fill-opacity:0;stroke:#000000;stroke-width:0.76885"
     id="path3490" />
  <path
     fill="none"
     d="m 61.254,17.531 c -0.466,7.423 0,7.21 0,7.21"
     style="fill:#000000;fill-opacity:0;stroke:#000000;stroke-width:0.809004"
     id="path3492" />
  <path
     fill="none"
     d="m 56.196,18.356 c 4.891,-0.518 5.03,0 5.03,0"
     style="fill:#000000;fill-opacity:0;stroke:#000000;stroke-width:0.692843"
     id="path3494" />
  <path
     fill="none"
     d="m 55.023,21.668 c 8.506,-0.413 8.75,0 8.75,0"
     style="fill:#000000;fill-opacity:0;stroke:#000000;stroke-width:0.815745"
     id="path3496" />
  <path
     fill="none"
     d="m 59.013,13.457 c 0,-4.773 0.265,-4.773 0.265,-4.773"
     style="fill:#000000;fill-opacity:0;stroke:#000000;stroke-width:0.843"
     id="path3498" />
  <path
     fill="none"
     d="m 52.973,24.383 -4.737,3.004"
     style="fill:#000000;fill-opacity:0;stroke:#000000;stroke-width:0.883;stroke-dasharray:none"
     id="path3500" />
  <path
     fill="none"
     d="m 64.851,24.581 c 4.035,2.407 4.51,3.209 4.51,3.209"
     style="fill:#000000;fill-opacity:0;stroke:#000000;stroke-width:0.800917"
     id="path3502" />
</svg>
