<?xml version="1.0" encoding="UTF-8" standalone="no"?>
<svg
   width="71mm"
   height="36mm"
   viewBox="0 0 71 36"
   version="1.1"
   id="svg3579"
   sodipodi:docname="3333.svg"
   inkscape:version="1.2.2 (b0a84865, 2022-12-01)"
   xmlns:inkscape="http://www.inkscape.org/namespaces/inkscape"
   xmlns:sodipodi="http://sodipodi.sourceforge.net/DTD/sodipodi-0.dtd"
   xmlns="http://www.w3.org/2000/svg"
   xmlns:svg="http://www.w3.org/2000/svg">
  <defs
     id="defs3583" />
  <sodipodi:namedview
     id="namedview3581"
     pagecolor="#ffffff"
     bordercolor="#000000"
     borderopacity="0.25"
     inkscape:showpageshadow="2"
     inkscape:pageopacity="0.0"
     inkscape:pagecheckerboard="0"
     inkscape:deskcolor="#d1d1d1"
     inkscape:document-units="mm"
     showgrid="false"
     inkscape:zoom="0.70555556"
     inkscape:cx="396.85039"
     inkscape:cy="323.14961"
     inkscape:window-width="1390"
     inkscape:window-height="942"
     inkscape:window-x="0"
     inkscape:window-y="25"
     inkscape:window-maximized="0"
     inkscape:current-layer="svg3579" />
  <path
     d="m 21.344,12.628 h 18 v 17.625 h -18 z"
     style="fill:none;stroke-width:0.264583"
     id="path3539" />
  <path
     fill="none"
     d="m 23.093,25.132 -6.38,-0.145 -6.381,0.088 3.316,-5.452 3.114,-5.57 3.064,5.597 z"
     style="fill:#000000;fill-opacity:0;stroke:#000000;stroke-width:0.843"
     id="path3541" />
  <path
     d="m 11.637,15.067 h 18 v 17.625 h -18 z"
     style="fill:none;stroke-width:0.264583"
     id="path3543" />
  <path
     fill="none"
     d="m 14.818,18.796 c -0.492,6.34 0,6.16 0,6.16"
     style="fill:#000000;fill-opacity:0;stroke:#000000;stroke-width:0.76885"
     id="path3545" />
  <path
     fill="none"
     d="m 18.866,17.906 c -0.466,7.423 0,7.21 0,7.21"
     style="fill:#000000;fill-opacity:0;stroke:#000000;stroke-width:0.809004"
     id="path3547" />
  <path
     fill="none"
     d="m 13.807,18.731 c 4.891,-0.518 5.031,0 5.031,0"
     style="fill:#000000;fill-opacity:0;stroke:#000000;stroke-width:0.692843"
     id="path3549" />
  <path
     fill="none"
     d="m 12.634,22.043 c 8.507,-0.413 8.75,0 8.75,0"
     style="fill:#000000;fill-opacity:0;stroke:#000000;stroke-width:0.815745"
     id="path3551" />
  <path
     fill="none"
     d="m 16.728,10.962 4.338,7.84 4.621,7.677 -8.959,-0.164 -8.959,0.164 4.622,-7.676 z"
     style="fill:#000000;fill-opacity:0;stroke:#000000;stroke-width:0.843"
     id="path3553" />
  <path
     fill="none"
     d="m 43.776,25.132 -6.38,-0.145 -6.381,0.088 3.316,-5.452 3.114,-5.57 3.064,5.597 z"
     style="fill:#000000;fill-opacity:0;stroke:#000000;stroke-width:0.843"
     id="path3555" />
  <path
     fill="none"
     d="m 35.501,18.796 c -0.492,6.34 0,6.16 0,6.16"
     style="fill:#000000;fill-opacity:0;stroke:#000000;stroke-width:0.76885"
     id="path3557" />
  <path
     fill="none"
     d="m 39.548,17.906 c -0.466,7.423 0,7.21 0,7.21"
     style="fill:#000000;fill-opacity:0;stroke:#000000;stroke-width:0.809004"
     id="path3559" />
  <path
     fill="none"
     d="m 34.49,18.731 c 4.891,-0.518 5.031,0 5.031,0"
     style="fill:#000000;fill-opacity:0;stroke:#000000;stroke-width:0.692843"
     id="path3561" />
  <path
     fill="none"
     d="m 33.317,22.043 c 8.506,-0.413 8.75,0 8.75,0"
     style="fill:#000000;fill-opacity:0;stroke:#000000;stroke-width:0.815745"
     id="path3563" />
  <path
     fill="none"
     d="m 37.411,10.962 4.338,7.84 4.621,7.677 -8.959,-0.164 -8.959,0.164 4.622,-7.676 z"
     style="fill:#000000;fill-opacity:0;stroke:#000000;stroke-width:0.843"
     id="path3565" />
  <path
     fill="none"
     d="m 64.459,25.132 -6.38,-0.145 -6.381,0.088 3.316,-5.452 3.114,-5.57 3.064,5.597 z"
     style="fill:#000000;fill-opacity:0;stroke:#000000;stroke-width:0.843"
     id="path3567" />
  <path
     fill="none"
     d="m 56.184,18.796 c -0.493,6.34 0,6.16 0,6.16"
     style="fill:#000000;fill-opacity:0;stroke:#000000;stroke-width:0.76885"
     id="path3569" />
  <path
     fill="none"
     d="m 60.231,17.906 c -0.466,7.423 0,7.21 0,7.21"
     style="fill:#000000;fill-opacity:0;stroke:#000000;stroke-width:0.809004"
     id="path3571" />
  <path
     fill="none"
     d="m 55.173,18.731 c 4.891,-0.518 5.03,0 5.03,0"
     style="fill:#000000;fill-opacity:0;stroke:#000000;stroke-width:0.692843"
     id="path3573" />
  <path
     fill="none"
     d="m 54,22.043 c 8.506,-0.413 8.75,0 8.75,0"
     style="fill:#000000;fill-opacity:0;stroke:#000000;stroke-width:0.815745"
     id="path3575" />
  <path
     fill="none"
     d="m 58.094,10.962 4.338,7.84 4.621,7.677 -8.959,-0.164 -8.959,0.164 4.622,-7.676 z"
     style="fill:#000000;fill-opacity:0;stroke:#000000;stroke-width:0.843"
     id="path3577" />
</svg>
